<svg xmlns="http://www.w3.org/2000/svg" xmlns:xlink="http://www.w3.org/1999/xlink" viewBox="0 0 4975.054 3967.622">
  <defs>
    <linearGradient id="linear-gradient" y1="1983.811" x2="4975.054" y2="1983.811" gradientUnits="userSpaceOnUse">
      <stop offset="0" stop-color="#fff" stop-opacity="0.05"/>
      <stop offset="0.474" stop-color="#fff" stop-opacity="0.0537"/>
      <stop offset="1" stop-color="#fff" stop-opacity="0.02"/>
    </linearGradient>
  </defs>
  <g id="Layer_2" data-name="Layer 2">
    <g id="backgrounds">
      <path d="M0,2063.94,2124.442,17.752l50.722,48.854L50.722,2112.794ZM1482.767,878.978,2319.839,72.74,2295.78,49.567,1458.708,855.805ZM524.276,1802.164l837.071-806.238-24.059-23.174L500.216,1778.991Zm223.54,587.059,837.072-806.238-24.059-23.173L723.757,2366.05ZM2267.572,925.448l837.072-806.239-24.059-23.173L2243.513,902.274ZM468.052,2183.272,2615.813,114.624,2496.806,0,349.045,2068.648Zm-23.319,197.493L2569.175,334.577l-50.722-48.854L394.011,2331.911Zm473.553-310.629L2897.99,163.355l-24.06-23.173-1979.7,1906.78Zm-14.41,340.834L3009.824,382.6,2962.382,336.9,856.434,2365.275ZM3734.258,607.91,1609.815,2654.1l50.722,48.854L3784.98,656.763Zm-1917.724,1701.6L979.461,3115.75l24.06,23.174,837.072-806.238ZM3260.7,918.539l-837.072,806.238,24.059,23.173,837.073-806.238Zm56.224-381.108L1169.166,2606.078,1288.173,2720.7,3435.935,652.055Zm23.319-197.493L1215.8,2386.125l50.723,48.854L3390.969,388.792ZM2866.694,650.567,886.99,2557.347l24.059,23.173,1979.7-1906.78ZM4924.331,1854.828,2799.889,3901.016l50.723,48.854L4975.054,1903.682ZM3492.286,3088.643l-837.072,806.239,24.06,23.173,837.072-806.238Zm958.492-923.185L3613.706,2971.7l24.059,23.173,837.072-806.238ZM4227.237,1578.4l-837.072,806.238,24.06,23.173L4251.3,1601.572ZM2707.481,3042.174l-837.072,806.239,24.06,23.173,837.072-806.238ZM4507,1784.35,2359.241,3853l119.007,114.624L4626.009,1898.974Zm23.319-197.493L2405.879,3633.045,2456.6,3681.9,4581.043,1635.711Zm-473.553,310.629-1979.7,1906.781,24.059,23.173,1979.7-1906.78Zm14.41-340.834L1965.23,3585.027l47.442,45.694L4118.619,1602.346ZM1240.8,3359.712,3365.239,1313.526l-50.723-48.854L1190.073,3310.858Zm1917.724-1701.6,837.072-806.237L3971.533,828.7,3134.46,1634.936ZM1714.349,3049.083l837.072-806.238-24.059-23.173L1690.29,3025.91Zm-56.224,381.108L3805.887,1361.544,3686.88,1246.92,1539.118,3315.567Zm-23.319,197.493L3759.249,1581.5l-50.722-48.854L1584.084,3578.83Zm473.554-310.629,1979.7-1906.78-24.059-23.173L2084.3,3293.882Z" style="fill: url(#linear-gradient)"/>
    </g>
  </g>
</svg>
