<svg xmlns="http://www.w3.org/2000/svg" xmlns:xlink="http://www.w3.org/1999/xlink" viewBox="0 0 499.35 502"><defs><style>.cls-1,.cls-11{fill:#fff;}.cls-1{opacity:0.71;}.cls-2,.cls-22{opacity:0.53;}.cls-12,.cls-13,.cls-15,.cls-16,.cls-17,.cls-18,.cls-19,.cls-2,.cls-20,.cls-21,.cls-23,.cls-24,.cls-26,.cls-27,.cls-28,.cls-6,.cls-7,.cls-8,.cls-9{isolation:isolate;}.cls-2{fill:url(#linear-gradient);}.cls-3{fill:#def1fa;}.cls-29,.cls-4{fill:none;stroke-miterlimit:10;}.cls-4{stroke:#def1fa;}.cls-5{fill:#47c7f2;}.cls-12,.cls-13,.cls-17,.cls-18,.cls-19,.cls-23,.cls-6,.cls-7{opacity:0.46;}.cls-6{fill:url(#linear-gradient-2);}.cls-7{fill:url(#linear-gradient-3);}.cls-21,.cls-8,.cls-9{opacity:0.62;}.cls-8{fill:url(#linear-gradient-4);}.cls-9{fill:url(#linear-gradient-5);}.cls-10{opacity:0.65;}.cls-12{fill:url(#linear-gradient-6);}.cls-13{fill:url(#linear-gradient-7);}.cls-14{opacity:0.48;}.cls-15{opacity:0.32;fill:url(#linear-gradient-8);}.cls-16,.cls-20,.cls-24{opacity:0.67;}.cls-16{fill:url(#linear-gradient-9);}.cls-17{fill:url(#linear-gradient-10);}.cls-18{fill:url(#linear-gradient-11);}.cls-19{fill:url(#linear-gradient-12);}.cls-20{fill:url(#linear-gradient-13);}.cls-21{fill:url(#linear-gradient-14);}.cls-23{fill:url(#linear-gradient-15);}.cls-24{fill:url(#linear-gradient-16);}.cls-25,.cls-26,.cls-27,.cls-28{fill:#35495b;}.cls-26{opacity:0.5;}.cls-27{opacity:0.51;}.cls-28{opacity:0.55;}.cls-29{stroke:#a4c1ca;stroke-width:2px;}.cls-30{fill:#aa7d22;}.cls-31{fill:url(#linear-gradient-17);}.cls-32{opacity:0.04;}.cls-33{fill:url(#linear-gradient-18);}.cls-34{fill:url(#linear-gradient-19);}.cls-35{fill:#f6b412;}</style><linearGradient id="linear-gradient" x1="252.775" y1="851.817" x2="263.662" y2="769.666" gradientTransform="matrix(1, 0, 0, -1, 0, 1193.22)" gradientUnits="userSpaceOnUse"><stop offset="0" stop-color="#53c8f2"/><stop offset="1" stop-color="#50bfe7" stop-opacity="0"/></linearGradient><linearGradient id="linear-gradient-2" x1="384.902" y1="852.472" x2="499.35" y2="852.472" gradientTransform="matrix(1, 0, 0, -1, 0, 1193.22)" gradientUnits="userSpaceOnUse"><stop offset="0" stop-color="#313390" stop-opacity="0"/><stop offset="1" stop-color="#05007f" stop-opacity="0.64"/></linearGradient><linearGradient id="linear-gradient-3" x1="428.095" y1="848.753" x2="475.545" y2="895.368" xlink:href="#linear-gradient-2"/><linearGradient id="linear-gradient-4" x1="278.937" y1="860.004" x2="384.902" y2="860.004" gradientTransform="matrix(1, 0, 0, -1, 0, 1193.22)" gradientUnits="userSpaceOnUse"><stop offset="0" stop-color="#fff"/><stop offset="1" stop-color="#fff" stop-opacity="0"/></linearGradient><linearGradient id="linear-gradient-5" x1="144.992" y1="853.927" x2="222.599" y2="853.927" gradientTransform="matrix(1, 0, 0, -1, 0, 1193.22)" gradientUnits="userSpaceOnUse"><stop offset="0" stop-color="#fff"/><stop offset="0.68" stop-color="#fff" stop-opacity="0"/></linearGradient><linearGradient id="linear-gradient-6" x1="449.925" y1="830.823" x2="497.907" y2="830.823" xlink:href="#linear-gradient-2"/><linearGradient id="linear-gradient-7" x1="411.982" y1="829.43" x2="301.839" y2="829.43" gradientTransform="matrix(1, 0, 0, -1, 0, 1193.22)" gradientUnits="userSpaceOnUse"><stop offset="0" stop-color="#313390" stop-opacity="0"/><stop offset="0.38" stop-color="#110e82" stop-opacity="0.47"/><stop offset="1" stop-color="#05007f" stop-opacity="0.64"/></linearGradient><linearGradient id="linear-gradient-8" x1="319.892" y1="826.961" x2="362.861" y2="826.961" xlink:href="#linear-gradient-2"/><linearGradient id="linear-gradient-9" x1="208.166" y1="823.86" x2="242.906" y2="823.86" gradientTransform="matrix(1, 0, 0, -1, 0, 1193.22)" gradientUnits="userSpaceOnUse"><stop offset="0" stop-color="#fff" stop-opacity="0"/><stop offset="0.1" stop-color="#fff" stop-opacity="0.02"/><stop offset="0.21" stop-color="#fff" stop-opacity="0.07"/><stop offset="0.32" stop-color="#fff" stop-opacity="0.15"/><stop offset="0.43" stop-color="#fff" stop-opacity="0.26"/><stop offset="0.54" stop-color="#fff" stop-opacity="0.41"/><stop offset="0.54" stop-color="#fff" stop-opacity="0.42"/><stop offset="0.63" stop-color="#fff" stop-opacity="0.36"/><stop offset="0.81" stop-color="#fff" stop-opacity="0.2"/><stop offset="1" stop-color="#fff" stop-opacity="0"/></linearGradient><linearGradient id="linear-gradient-10" x1="195.883" y1="799.931" x2="152.864" y2="852.788" gradientTransform="matrix(1, 0, 0, -1, 0, 1193.22)" gradientUnits="userSpaceOnUse"><stop offset="0.45" stop-color="#313390" stop-opacity="0"/><stop offset="1" stop-color="#05007f" stop-opacity="0.64"/></linearGradient><linearGradient id="linear-gradient-11" x1="141.827" y1="822.657" x2="188.513" y2="822.657" xlink:href="#linear-gradient-2"/><linearGradient id="linear-gradient-12" x1="136.497" y1="798.679" x2="190.05" y2="798.679" xlink:href="#linear-gradient-2"/><linearGradient id="linear-gradient-13" x1="22.062" y1="788.32" x2="43.622" y2="788.32" xlink:href="#linear-gradient-4"/><linearGradient id="linear-gradient-14" x1="13.263" y1="778.359" x2="134.319" y2="838.786" xlink:href="#linear-gradient-4"/><linearGradient id="linear-gradient-15" x1="308.057" y1="854.914" x2="318.577" y2="876.892" xlink:href="#linear-gradient-2"/><linearGradient id="linear-gradient-16" x1="368.848" y1="861.234" x2="314.523" y2="858.462" gradientTransform="matrix(1, 0, 0, -1, 0, 1193.22)" gradientUnits="userSpaceOnUse"><stop offset="0" stop-color="#fff"/><stop offset="0.87" stop-color="#fff" stop-opacity="0"/></linearGradient><linearGradient id="linear-gradient-17" x1="389.764" y1="899.631" x2="440.987" y2="899.631" gradientTransform="matrix(1, 0, 0, -1, 0, 1193.22)" gradientUnits="userSpaceOnUse"><stop offset="0" stop-color="#fff"/><stop offset="0.37" stop-color="#fbfbfb"/><stop offset="0.51" stop-color="#f4f4f4"/><stop offset="0.6" stop-color="#e9e9e9"/><stop offset="0.68" stop-color="#d8d8d8"/><stop offset="0.75" stop-color="#c2c2c2"/><stop offset="0.8" stop-color="#a6a6a6"/><stop offset="0.86" stop-color="#868686"/><stop offset="0.91" stop-color="#626262"/><stop offset="0.95" stop-color="#373737"/><stop offset="0.99" stop-color="#090909"/><stop offset="1"/></linearGradient><linearGradient id="linear-gradient-18" x1="405.839" y1="758.672" x2="405.839" y2="720.223" gradientTransform="matrix(1, 0, 0, -1, 0, 1193.22)" gradientUnits="userSpaceOnUse"><stop offset="0"/><stop offset="1" stop-color="#030709" stop-opacity="0"/></linearGradient><linearGradient id="linear-gradient-19" x1="442.027" y1="760.647" x2="442.027" y2="718.464" xlink:href="#linear-gradient-18"/></defs><g id="Layer_2" data-name="Layer 2"><g id="largest"><polygon class="cls-1" points="472.825 348 42.825 380 19.825 64 468.825 181 472.825 348"/><g id="reflections"><path class="cls-2" d="M27.885,421.077c.38,7.723,17.345,13.167,26.46,15.952,35.955,11.268,49.881-11.141,91.407-5.95,26.586,3.418,33.929,14.306,54.565,8.862,14.939-3.925,15.7-10.888,31.4-17.724,28.106-12.407,94.951-4.305,131.159-11.9,17.851-3.8-4.557-6.583,12.407-17.218a24.243,24.243,0,0,1,12.407-4.178c10.382-.379,18.231,7.09,20.636,9.116,20.763,17.218,85.963-2.912,85.583-13.8-.506-13.8-105.586-22.028-170.152-22.661C176.009,360.435,26.746,397.529,27.885,421.077Z"/></g><g id="graph_fill" data-name="graph fill"><polygon class="cls-3" points="45.483 425.129 25.86 425.129 1.046 73.682 21.176 65.453 45.483 425.129"/></g><g id="graph_outlines" data-name="graph outlines"><polygon class="cls-4" points="21.176 63.934 45.483 423.989 468.966 355.751 468.966 181.42 21.176 63.934"/><polyline class="cls-4" points="21.176 63.934 1.046 72.163 25.86 423.989 45.483 423.989"/><line class="cls-4" x1="130.433" y1="92.546" x2="143.853" y2="408.164"/><line class="cls-4" x1="219.56" y1="115.967" x2="229.815" y2="394.238"/><line class="cls-4" x1="295.775" y1="135.97" x2="301.472" y2="382.717"/><line class="cls-4" x1="362.747" y1="153.568" x2="362.747" y2="372.842"/><line class="cls-4" x1="419.591" y1="168.38" x2="419.591" y2="363.727"/><line class="cls-4" x1="24.847" y1="119.006" x2="468.966" y2="213.45"/><line class="cls-4" x1="28.392" y1="171.925" x2="468.966" y2="247.253"/><line class="cls-4" x1="31.937" y1="224.591" x2="468.966" y2="281.056"/><line class="cls-4" x1="35.481" y1="277.384" x2="468.966" y2="313.086"/><line class="cls-4" x1="39.026" y1="329.038" x2="468.966" y2="340.938"/></g><g id="blobs_fill" data-name="blobs fill"><path class="cls-5" d="M277.671,348.788l62.414-2.026,58.237-1.9c32.283-1.013,67.352-3.165,99.636-4.3-4.178-2.406-7.47-5.824-11.648-8.23s-8.1-4.3-12.027-6.33c-1.772-.886-3.545-1.9-5.57-3.038-3.8-2.152-5.7-3.925-11.648-6.583-15.952-1.646-35.195.379-50.641.253l-27.852-.253c-10-.127-18.99-1.013-29.751.379-7.47,1.9-12.66,5.065-18.991,7.976l-9.621,4.305-21.523,9.875Z"/><path class="cls-6" d="M499.35,341.065c-32.283,1.013-67.352,3.165-99.635,4.3l-14.813.507,106.725-10.255C494.159,337.52,496.692,339.419,499.35,341.065Z"/><path class="cls-7" d="M482.639,330.557,416.173,316.5c13.293-.38,27.979-1.392,40.512-.126,6.077,2.658,7.85,4.431,11.648,6.583,1.9,1.139,3.8,2.026,5.57,3.038C476.815,327.645,479.6,328.911,482.639,330.557Z"/><path class="cls-8" d="M384.9,344.61c-6.077.253-12.154.38-18.23.633l-16.712.506c-23.674.76-47.349,1.519-71.023,2.153,7.975-3.545,15.951-7.09,23.927-10.762,8.229-3.671,16.332-7.343,24.561-11.014l10.888-4.937c2.025-.887,3.8-1.773,5.7-2.659L366.8,332.962Z"/><path class="cls-5" d="M144.992,350.18l20.383-1.392c12.28-.76,24.561-2.406,36.841-3.165l4.431-.254,15.952-1.012,13.546-.887,35.069-2.278,36.588-2.406,53.805-3.545h1.013l-52.666-8.862H309.7c-12.154-.506-24.308.507-36.462.76l-34.815.633c-4.431.126-8.989.126-13.42.38l-15.825,1.012-4.3.254c-12.154.759-24.055.379-36.335,1.139-6.71.38-12.281.633-18.99,3.545-3.419,5.064-2.532,5.317-3.039,8.1Z"/><path class="cls-9" d="M222.6,343.724h0l-15.952,1.012-4.431.254c-12.28.759-24.561,2.4-36.841,3.165l-20.383,1.392,1.393-8.229c.506-2.912-.254-3.038,3.038-8.1,6.71-2.912,12.28-3.165,18.99-3.545,8.229-.507,16.332-.507,24.434-.633Z"/><path class="cls-5" d="M277.671,382.464H423.389c19.75,0,21.4,1.646,41.146,1.646h33.423V340.685l-9.242.253c-2.026,0-23.3-.379-25.321-.253-19.75.633-20.129,1.773-39.879,2.406l-50.641,1.645L277.8,347.775l-.126,34.689Z"/><g class="cls-10"><path class="cls-11" d="M498.084,341.445c-9.242.506-18.357.126-27.6,0l-6.837-.127c-2.278,0-4.557.127-6.836.253-4.558.254-9.115.507-13.8.887-9.115.886-18.357,1.139-27.472,1.392l-27.6.76L277.8,347.9l110.144-3.672,27.6-.886c9.242-.253,18.357-.507,27.472-1.393,4.558-.38,9.116-.759,13.8-1.013,2.279-.126,4.558-.253,6.836-.253h6.837c9.242,0,18.357.38,27.6-.126Z"/></g><path class="cls-12" d="M497.958,340.685V384.11H464.535c-6.33,0-10.761-.127-14.56-.38V341.318c3.419-.253,7.6-.506,13.42-.633,2.026,0,23.3.38,25.321.253Z"/><path class="cls-13" d="M408.83,344.61v38.36H298.686V348.155l95.078-3.039Z"/><path class="cls-5" d="M144.992,403.733c2.152-.127,21.4.126,23.548,0l19.5-.76q14.811-.57,28.865-1.139l10.887-.507,12.154-.506c18.737-.76,37.1-1.646,56.085-2.405,16.964-.76,34.309-1.393,52.666-2.026l12.534-.506.633-34.31.506-27.092H350.593l-52.666.126-32.284.127a106.052,106.052,0,0,0-12.66.76c-5.7.759-6.077.759-11.014,1.392-4.305.633-13.42,1.9-17.345,2.406-3.544.506-10.634.633-14.052,1.139-8.862,1.266-13.673,2.912-23.422,4.3-6.077.887-12.66,1.773-19.876,2.659-2.152.253-20.256,1.266-22.409,1.646l.127,54.692Z"/><g class="cls-14"><path class="cls-5" d="M144.359,349.167c2.152-.253,20.256-1.266,22.282-1.645,7.216-.887,13.8-1.773,19.876-2.659,9.622-1.393,14.56-3.038,23.422-4.3,3.418-.507,10.508-.633,14.052-1.14,3.925-.633,13.04-1.772,17.345-2.4,4.937-.633,5.317-.633,11.014-1.393a106.26,106.26,0,0,1,12.66-.759h32.284l52.666-.127h11.774"/><path class="cls-11" d="M144.232,348.661c4.558-.38,9.116-.633,13.673-.886l6.837-.507c2.279-.126,4.558-.506,6.71-.759,8.988-1.266,18.1-2.026,26.966-4.051,4.431-1.013,8.989-1.773,13.42-2.406,4.557-.38,9.115-.38,13.546-1.139,8.989-1.266,17.978-2.532,27.093-3.545a123.808,123.808,0,0,1,13.673-.76h95.711l-54.566.254-27.346.126H266.276a119.636,119.636,0,0,0-13.546.76c-8.989,1.139-18.1,2.405-27.093,3.671-4.557.76-9.115.76-13.673,1.14a119,119,0,0,0-13.42,2.4c-8.862,2.026-17.977,2.912-26.966,4.178-2.279.253-4.557.633-6.836.759l-6.837.507c-4.557.38-9.115.633-13.546,1.013Z"/></g><path class="cls-15" d="M362.873,334.735l-.506,27.093c-.253,11.394.506,22.788.253,34.309-4.3.126-9.368.253-13.419.506q-15,.57-29.245,1.14v-62.8H351.1Z"/><path class="cls-16" d="M247.919,337.394v62.541L215.762,401.2l-2.532.126V340.179l4.685-.633c4.937-.633,5.317-.633,11.014-1.393a106.248,106.248,0,0,1,12.66-.759Z"/><path class="cls-17" d="M213.1,340.812v61.655c-8.229.38-16.585.633-25.194,1.013l-19.5.759c-2.152.127-21.4-.126-23.548,0V349.674c2.153-.253,20.257-1.266,22.282-1.646,7.217-.886,13.8-1.772,19.877-2.659,9.621-1.392,14.559-3.038,23.421-4.3A18.819,18.819,0,0,1,213.1,340.812Z"/><path class="cls-5" d="M22.948,388.541c3.925-.38,9.115-.76,13.04-1.14,12.66-1.266,27.726-2.532,40.386-3.8l108.751-10.761a2.4,2.4,0,0,0,1.013-.253c.886-.38.506-1.393-.254-1.646a12.849,12.849,0,0,0-3.165-.76l-46.209-13.04a23.365,23.365,0,0,0-7.217-.759l-34.435,2.279-31.271,2.152-9.622.633-13.293,12.28c-3.671,3.292-9.748,6.71-13.42,10.128-1.266,1.14-3.671,2.279-4.937,3.419a.945.945,0,0,0,0,1.139A.947.947,0,0,0,22.948,388.541Z"/><path class="cls-18" d="M188.037,372.462a2.971,2.971,0,0,1-1.013.253l-45.2,4.558,20.509-13.42,22.282,6.33a14.386,14.386,0,0,1,3.165.76C188.416,371.2,188.923,372.082,188.037,372.462Z"/><path class="cls-5" d="M27.632,422.343c2.152,2.153,4.938,1.646,7.723,1.52l141.667-8.23,9.116-.506a4.17,4.17,0,0,0,3.924-4.178V375.374a4,4,0,0,0-4.051-4.051h-.38l-1.9.126c-48.615,4.431-99.762,8.863-148.377,13.294-2.912.253-6.963.506-9.875.759a3.838,3.838,0,0,0-3.418,3.8c0,5.318,1.266,10.635,1.266,15.952,0,4.305,1.266,8.609,1.266,12.913C24.594,419.811,26.493,421.2,27.632,422.343Z"/><path class="cls-19" d="M190.062,375.247v35.576A4.169,4.169,0,0,1,186.138,415l-8.989.507-40.513,2.4V375.627l47.223-4.3,1.9-.127a4.013,4.013,0,0,1,4.431,3.672C189.936,375.121,190.062,375.121,190.062,375.247Z"/><path class="cls-20" d="M41.052,385.5l2.532,38.36-5.57.254c-1.14,0-2.153.126-3.292.126a10.448,10.448,0,0,1-6.71-1.645c-1.393-1.013-3.418-2.533-3.418-4.052L22.062,390.06a2.546,2.546,0,0,1,.38-1.393c.126-.253.253-.38.379-.633s.38-.38.507-.506.253-.127.253-.253a11.224,11.224,0,0,1,4.051-1.013l4.558-.253,6.457-.507A15.182,15.182,0,0,0,41.052,385.5Z"/><path class="cls-21" d="M157.526,375.121l-81.279,8.1c-12.66,1.266-27.726,2.532-40.386,3.8-3.924.38-9.115.76-13.04,1.14a.709.709,0,0,1-.759-.633h0a.964.964,0,0,1,.253-.633c1.266-1.14,3.671-2.279,4.937-3.418,3.672-3.292,9.749-6.71,13.42-10.129l10.382-9.621Z"/><g class="cls-22"><polygon class="cls-11" points="22.315 386.895 188.037 372.462 22.315 387.528 22.315 386.895"/></g><path class="cls-23" d="M325.526,328.658l-18.1,9.748h-.38l-3.8.254-2.026-12.914c2.659,0,5.191,0,7.85.127h.253Z"/><path class="cls-24" d="M361.607,336H360.6l-53.426,3.545,18.1-9.749h0C337.427,331.95,349.454,333.975,361.607,336Z"/></g><g id="shadow"><polygon class="cls-25" points="97.263 370.69 141.574 362.207 118.406 358.789 110.303 358.789 97.263 370.69"/><polygon class="cls-26" points="147.397 349.421 176.516 349.927 174.11 366.892 147.397 359.675 147.397 349.421"/><polygon class="cls-27" points="323.754 328.658 348.061 321.442 348.061 321.442 348.188 321.442 369.077 321.822 369.077 321.822 376.673 319.922 369.077 322.075 369.077 322.075 369.077 322.075 348.061 322.075 347.808 322.201 325.399 328.911 323.754 328.658"/><polygon class="cls-28" points="147.397 349.421 176.516 349.927 283.747 332.962 297.167 337.394 324.766 328.785 322.994 328.531 297.674 334.735 283.874 330.81 147.397 349.421"/></g><g id="outline"><path class="cls-29" d="M24.214,416.14,1.046,72.163l20-8.356,376.26,98.623,72.163,19.117-.506,140.021,25.573,14.939a7.187,7.187,0,0,1,3.672,6.33v37.1a4.269,4.269,0,0,1-4.305,4.3h-.126l-44.311-.759-26.966-.76h-59l-.127,9.622a4.164,4.164,0,0,1-4.051,4.051l-57.1,2.152-69.5,3.039L190.7,402.973v7.47c0,2.912-1.013,5.317-4.051,5.444L165,416.646l-119.639,7.47-10.887,1.012a9.505,9.505,0,0,1-10.382-8.482h0A.954.954,0,0,0,24.214,416.14Z"/></g><g id="guy"><path class="cls-30" d="M404.019,119.385l-10.634,22.409-10-2.279,10.761-21.142-11.267-2.532v-8.609l21.142,4.811Z"/><path class="cls-30" d="M414.78,130.906c2.279-1.772,3.292-3.545,3.292-5.444q0-2.279-1.519-2.658a1.036,1.036,0,0,0-1.266.506,7.381,7.381,0,0,0-.38,2.912l-9.369-2.152a11.558,11.558,0,0,1,1.773-6.457,6.831,6.831,0,0,1,4.3-2.912,15.3,15.3,0,0,1,13.926,4.811,12.1,12.1,0,0,1,2.532,7.47,10.434,10.434,0,0,1-2.785,7.342,19.424,19.424,0,0,1-6.963,4.938l10,2.279v7.976l-22.662-5.064v-7.6A70.275,70.275,0,0,0,414.78,130.906Z"/><path class="cls-30" d="M430.605,134.2c0-4.938,1.14-8.609,3.292-11.015s5.444-3.038,9.875-2.025a15.015,15.015,0,0,1,9.875,6.71,22.835,22.835,0,0,1,3.292,12.407c0,4.937-1.14,8.609-3.292,11.014s-5.444,3.165-9.875,2.152a15.015,15.015,0,0,1-9.875-6.71A22.973,22.973,0,0,1,430.605,134.2Zm16.712,3.8a16.861,16.861,0,0,0-.633-5.064,3.789,3.789,0,0,0-2.912-2.406c-1.393-.379-2.4,0-2.912,1.013a12.323,12.323,0,0,0-.633,4.811,16.865,16.865,0,0,0,.633,5.064,3.789,3.789,0,0,0,2.912,2.406c1.393.379,2.405,0,2.912-1.14A11.7,11.7,0,0,0,447.317,138Z"/><path class="cls-30" d="M72.956,302.831H62.827v2.912a4.672,4.672,0,0,1,1.773-.886,7.372,7.372,0,0,1,2.405-.38,7.852,7.852,0,0,1,4.052,1.14,6.323,6.323,0,0,1,2.405,3.038,11.161,11.161,0,0,1,.76,4.178,8.1,8.1,0,0,1-7.217,8.862H65.36a12.25,12.25,0,0,1-5.191-1.013,7.373,7.373,0,0,1-3.292-2.912,7.087,7.087,0,0,1-1.013-4.178h7.6a1.438,1.438,0,0,0,.38,1.013,1.626,1.626,0,0,0,1.266.507,1.559,1.559,0,0,0,1.266-.633,2.821,2.821,0,0,0,.38-1.773,2.209,2.209,0,0,0-.506-1.519,1.9,1.9,0,0,0-1.393-.506,2.039,2.039,0,0,0-1.139.379,1.094,1.094,0,0,0-.38.76h-7.6v-15.7H72.956Z"/><path class="cls-30" d="M83.843,309.288c1.773-1.772,2.659-3.418,2.659-4.811,0-1.139-.38-1.772-1.266-1.772a1.29,1.29,0,0,0-1.013.633,4.709,4.709,0,0,0-.253,2.279H76.5a11.105,11.105,0,0,1,1.393-5.318,7.246,7.246,0,0,1,3.418-3.038,9.477,9.477,0,0,1,4.558-.886c2.912,0,5.064.759,6.457,2.152a6.867,6.867,0,0,1,2.025,5.317,9.977,9.977,0,0,1-2.152,6.2,21.31,21.31,0,0,1-5.57,5.064H94.6v6.2H76.627v-5.824C79.159,313.466,81.565,311.44,83.843,309.288Z"/><path class="cls-30" d="M96.5,308.908a15.289,15.289,0,0,1,2.532-9.115c1.645-2.279,4.3-3.418,7.849-3.418s6.2,1.139,7.849,3.418a17.487,17.487,0,0,1,0,18.23c-1.646,2.279-4.3,3.419-7.849,3.419s-6.2-1.14-7.849-3.419A15.287,15.287,0,0,1,96.5,308.908Zm13.293,0a13.062,13.062,0,0,0-.507-3.8,2.563,2.563,0,0,0-3.545-1.013,3.854,3.854,0,0,0-1.012,1.013,9.85,9.85,0,0,0-.507,3.8,13.062,13.062,0,0,0,.507,3.8,2.532,2.532,0,0,0,3.544,1.013,3.843,3.843,0,0,0,1.013-1.013A9.85,9.85,0,0,0,109.8,308.908Z"/><path class="cls-30" d="M238.551,184.459a1.559,1.559,0,0,0-1.266-.633,1.44,1.44,0,0,0-1.773,1.012h0a11.053,11.053,0,0,0-.38,4.052,4.2,4.2,0,0,1,1.773-1.266,6.306,6.306,0,0,1,2.658-.127,8.02,8.02,0,0,1,5.318,2.912,9.495,9.495,0,0,1,2.025,6.33,9.234,9.234,0,0,1-1.139,4.431A6.314,6.314,0,0,1,242.6,203.7a8.835,8.835,0,0,1-4.811.253c-3.671-.506-6.2-2.152-7.6-4.557a20.3,20.3,0,0,1-2.152-9.749,21.3,21.3,0,0,1,1.013-7.469,6.555,6.555,0,0,1,3.038-3.8,9.315,9.315,0,0,1,5.57-.507A9.586,9.586,0,0,1,244,181.294a10.933,10.933,0,0,1,2.278,6.2l-7.216-1.139A2.422,2.422,0,0,0,238.551,184.459Zm-2.279,12.027a2.882,2.882,0,0,0,1.519.759,2.177,2.177,0,0,0,1.519-.253,1.629,1.629,0,0,0,.507-1.519,2.716,2.716,0,0,0-.507-1.519,2.89,2.89,0,0,0-1.519-.76,2.183,2.183,0,0,0-1.519.253,1.509,1.509,0,0,0-.507,1.393,1.874,1.874,0,0,0,.507,1.646Z"/><path class="cls-30" d="M251.844,183.193a6.415,6.415,0,0,1,3.038-2.153,9.85,9.85,0,0,1,5.064-.253,12.325,12.325,0,0,1,5.064,1.9,9.1,9.1,0,0,1,3.039,3.165,6.807,6.807,0,0,1,1.013,3.545,6.371,6.371,0,0,1-.76,3.039,4.949,4.949,0,0,1-2.152,1.772,8.013,8.013,0,0,1,3.545,6.71,6.168,6.168,0,0,1-4.938,6.457,10.857,10.857,0,0,1-4.937.126,13.588,13.588,0,0,1-4.938-1.772,11.054,11.054,0,0,1-3.545-3.292,8.688,8.688,0,0,1-1.266-4.684,5.643,5.643,0,0,1,3.545-5.571,7.766,7.766,0,0,1-2.152-2.405,7.393,7.393,0,0,1-.76-3.292A7.308,7.308,0,0,1,251.844,183.193Zm6.583,17.217a2.164,2.164,0,0,0,1.646.887,1.827,1.827,0,0,0,1.646-.38,2.407,2.407,0,0,0,.633-1.646,3.021,3.021,0,0,0-.633-1.772,2.81,2.81,0,0,0-1.646-1.013,1.825,1.825,0,0,0-1.646.38,2.4,2.4,0,0,0-.633,1.645,2.863,2.863,0,0,0,.633,1.9Zm.507-9.874a1.843,1.843,0,0,0,1.139.759,1.019,1.019,0,0,0,1.139-.38,2.016,2.016,0,0,0,.507-1.519,2.545,2.545,0,0,0-.507-1.646,1.843,1.843,0,0,0-1.139-.759,1.272,1.272,0,0,0-1.139.38,2.016,2.016,0,0,0-.507,1.519A2.335,2.335,0,0,0,258.934,190.536Z"/><path class="cls-30" d="M272.733,196.486c0-3.8.886-6.71,2.532-8.736s4.305-2.658,7.849-2.152a10.935,10.935,0,0,1,7.85,4.684,17.934,17.934,0,0,1,2.658,9.495q0,5.7-2.658,8.736c-1.773,2.026-4.305,2.785-7.85,2.152a10.93,10.93,0,0,1-7.849-4.684A14.775,14.775,0,0,1,272.733,196.486Zm13.293,2.152a13.921,13.921,0,0,0-.506-3.925,2.759,2.759,0,0,0-2.279-1.772,1.9,1.9,0,0,0-2.279,1.013,9.83,9.83,0,0,0-.506,3.8,13.359,13.359,0,0,0,.506,3.925,2.759,2.759,0,0,0,2.279,1.772,1.9,1.9,0,0,0,2.279-1.013,13.061,13.061,0,0,0,.506-3.8Z"/><path class="cls-30" d="M315.778,155.087,307.3,173.065l-7.976-1.266,8.609-17.092-8.988-1.392V146.6l16.838,2.658Z"/><path class="cls-30" d="M317.17,162.05c0-3.8.886-6.71,2.532-8.735,1.773-2.026,4.305-2.659,7.85-2.153a10.931,10.931,0,0,1,7.849,4.685,16.745,16.745,0,0,1,2.532,9.5c0,3.8-.886,6.71-2.532,8.735s-4.305,2.659-7.849,2.153a10.933,10.933,0,0,1-7.85-4.685A16.491,16.491,0,0,1,317.17,162.05Zm13.42,2.152a13.951,13.951,0,0,0-.506-3.924,2.433,2.433,0,0,0-2.279-1.646,1.9,1.9,0,0,0-2.279,1.013,9.217,9.217,0,0,0-.506,3.8,13.348,13.348,0,0,0,.506,3.924,2.758,2.758,0,0,0,2.279,1.773,1.9,1.9,0,0,0,2.279-1.013,15.212,15.212,0,0,0,.506-3.925Z"/><path class="cls-30" d="M340.338,165.722c0-3.8.887-6.71,2.532-8.736s4.305-2.659,7.85-2.152a10.931,10.931,0,0,1,7.849,4.684,16.747,16.747,0,0,1,2.532,9.5c0,3.8-.886,6.71-2.532,8.736s-4.3,2.658-7.849,2.152a10.935,10.935,0,0,1-7.85-4.684A16.755,16.755,0,0,1,340.338,165.722Zm13.294,2.152a10.234,10.234,0,0,0-.633-3.925,2.433,2.433,0,0,0-2.279-1.646,1.784,1.784,0,0,0-2.279,1.013,9.83,9.83,0,0,0-.506,3.8,13.351,13.351,0,0,0,.506,3.925,2.755,2.755,0,0,0,2.279,1.772A1.9,1.9,0,0,0,353,171.8a8.825,8.825,0,0,0,.633-3.925Z"/><path class="cls-31" d="M393.891,293.589c0,.633-3.039,23.928-3.039,23.928l27.979,8.736L430.859,304.6s5.7-20.763,6.076-21.269-2.658-10.382-2.658-10.382L428.96,264.6l-13.927-3.672s-12.153,2.659-12.66,2.785-9.368,5.571-10.128,6.71-2.659,10-2.532,11.9S393.891,293.589,393.891,293.589Z"/><path d="M400.094,400.315s1.14,9.115-3.8,15.7c-1.519,2.026,0,2.912,0,2.912l7.343-1.013L405.791,415a5.119,5.119,0,0,0,.887-2.658h0a6.166,6.166,0,0,1,2.912-5.191l3.038-1.9v-1.266a5.368,5.368,0,0,0-2.4-4.558l-2.279-1.519"/><path d="M436.049,397.909s2.532,8.609,1.773,10.508-.38,9.875,3.924,11.9a6.8,6.8,0,0,0,7.6-1.393,17.569,17.569,0,0,0-1.9-9.5c-2.532-4.431-2.911-11.521-2.911-11.521"/><path d="M391.106,314.732s5.317,8.989,21.775,6.457,19.117-5.7,19.117-5.7l-2.785,17.471,3.8,29.5s9.495,19.117,9.622,28.358c0,0,3.671,7.343,4.684,7.343s-4.684,4.685-4.684,4.685h-9.749l-1.013-15.193s-8.735-11.141-8.988-18.483-10.128-25.321-10.128-25.321l-4.431-5.19-3.419,33.929,2.026,22.155,2.532,6.837-3.292,1.392-10.381,3.165-.127-31.017-2.152-17.091L389.586,334.1Z"/><g class="cls-32"><path class="cls-33" d="M412,454.12l-2.279,1.52,3.292,1.392-2.532,6.837-.886,9.242-10.382-.507.127-20,2.405.76s1.14-9.116-3.8-15.7c-1.519-2.025,0-2.912,0-2.912l7.47,1.013,2.152,2.912a5.131,5.131,0,0,1,.886,2.659,6.167,6.167,0,0,0,2.912,5.19l3.038,1.9v1.266A5.168,5.168,0,0,1,412,454.12Z"/><path class="cls-34" d="M450.862,460.324c-1.013,0-4.685,7.343-4.685,7.343a33.248,33.248,0,0,1-1.266,7.089l-11.9-.633c1.392-2.025,2.4-3.418,2.4-3.418l1.013-15.192h1.393s2.532-8.609,1.772-10.508-.38-10,3.925-11.9a6.567,6.567,0,0,1,7.469,1.393,17.587,17.587,0,0,1-1.9,9.5c-2.532,4.431-2.912,11.521-2.912,11.521S451.875,460.324,450.862,460.324Z"/></g><path d="M397.816,223.2h5.19l.38-8.229a2.25,2.25,0,0,0,.886-1.013c.127-.253-.126-1.14,0-1.393a6.2,6.2,0,0,0,.507-1.392,4.817,4.817,0,0,0,0-1.9c.126-.254-4.178-1.266-5.571-1.14-.38,0-1.139.886-1.519,1.519a1.559,1.559,0,0,0-.253,1.266l1.9,6.2Z"/><path class="cls-11" d="M404.525,225.478l-8.229-.127-.506-3.418,1.646-1.266c-.253,5.317,6.836,1.139,6.456.759l.254-.759.253.38.38,1.645Z"/><path d="M467.067,310.681a7.527,7.527,0,0,1-3.925-1.52l-2.279-.126-2.785-2.026-2.279,1.773a8.847,8.847,0,0,0,1.393,2.658c.633,1.013,1.266,2.152,1.772,3.165l4.305,3.292,1.772.126,1.013-.506L465.8,316l-.38-.76-.76-2.279-1.266-1.772c.127-.506.507-.253.507-.253l2.278.38c.254,0,.38-.127.633-.254S467.193,310.681,467.067,310.681Z"/><path class="cls-11" d="M455.673,310.427l-2.786-2.152,5.7-2.279.887,1.646h-.38a3.063,3.063,0,0,0-2.532.76,1.768,1.768,0,0,0-.38,1.9c.127.506.886.506.76.759v.38Z"/><path d="M416.3,264.851l-2.911-.886v4.177a1.485,1.485,0,0,1-1.14,1.393l-13.926,7.849c-1.139.254-3.545,5.318-3.671,6.457-.507,5.191-1.266,13.546-.254,14.686,1.393,1.392-1.772,4.937-1.772,4.937s-11.9-23.168-24.434-28.738a63.776,63.776,0,0,0-12.534-4.305,1.43,1.43,0,0,1-1.139-1.646.966.966,0,0,1,.253-.633c1.9-2.532,5.191-6.456,6.33-6.709,5.064-1.266,28.865-.254,33.17,0a.6.6,0,0,0,.633-.633h0l-.127-2.279a32.736,32.736,0,0,1,.38-6.077l1.013-3.418a5.247,5.247,0,0,0-.127-3.419l-.633-1.646c-.253-1.139.76-2.785,1.14-4.177l.126-1.52-.759-16.458,1.645-1.139s-4.177,6.71,5.318,4.178a3.441,3.441,0,0,0,2.405-2.153c.38-1.266-1.519-2.025-.76-2.025l2.153,17.218,2.279,12.153.633,2.153v1.392l.126.633s7.47.507,7.47,6.2Z"/><path d="M429.466,269.282c.127.38,2.279,5.824,2.4,6.2,1.14,2.406,4.052,13.293-.759,14.939-5.444,1.773-5.064,6.584-5.064,9.749s-.127,16.711-6.2,16.584-1.519,8.23-1.519,8.23,17.977,11.52,17.851,10.128c-1.013-8.989,2.659-9.5.253-20.763-2.532-11.647,6.837-10.761,6.837-10.761l4.937,2.152,1.772.507c1.646.633,3.419,2.532,4.558,4.051l3.039,1.139a1.843,1.843,0,0,1-1.14-.759,2.588,2.588,0,0,1-.506-2.659c.38-.633,1.772-1.139,2.785-1.393.506-.126,1.013.887,1.013.887l-.507-1.646-2.911-1.52c-1.773-.886-3.672-2.278-4.178-4.177l-2.659-4.558-1.266-1.646-4.051-5.444s-.127-7.469-3.039-9.368C437.569,277,430.226,267,430.226,267Z"/><path d="M434.277,263.205c-.76,1.646,1.772-5.191,1.519-6.963-.126-1.519-3.418-6.71-4.558-6.837-2.025-.253-3.8-1.266-8.608.633a12.13,12.13,0,0,0-3.165,2.532,31.1,31.1,0,0,0-3.292,8.863c-.127,1.392.759,3.291,1.013,4.81a3.885,3.885,0,0,0,2.532,3.039l1.392.38a9.065,9.065,0,0,0,5.191.126h0C431.365,268.649,434.783,262.192,434.277,263.205Z"/><path d="M416.046,270.421l-.506,3.672-5.571,1.519s-2.4,5.95-20.889,14.306l-2.026,7.6,7.09.253s19.623-14.812,20.256-18.61l1.393-4.811,4.431-1.519c.127,0,.127-.127.127-.254a.124.124,0,0,0-.127-.126l-4.051-2.152a.124.124,0,0,0-.127.126Z"/><path class="cls-35" d="M75.488,299.16H65.233v4.684a3.666,3.666,0,0,1,1.9-1.139,9.827,9.827,0,0,1,2.659-.507,7.738,7.738,0,0,1,3.8,1.013,6.589,6.589,0,0,1,2.278,2.659,9.677,9.677,0,0,1,.76,3.8,8.016,8.016,0,0,1-2.026,5.823,7.725,7.725,0,0,1-5.95,2.153,10.652,10.652,0,0,1-4.431-.887,6.276,6.276,0,0,1-2.912-2.532,7.841,7.841,0,0,1-1.139-3.8h5.444A3.37,3.37,0,0,0,66.5,312.2a2.876,2.876,0,0,0,2.026.759,2.289,2.289,0,0,0,2.152-.886,4.566,4.566,0,0,0,.759-2.532,3.537,3.537,0,0,0-.759-2.279,2.834,2.834,0,0,0-2.152-.759,2.908,2.908,0,0,0-1.773.506,2.53,2.53,0,0,0-1.013,1.266H60.422v-13.8H75.614Z"/><path class="cls-35" d="M89.287,301.692q0-2.66-2.279-2.659a2.131,2.131,0,0,0-1.9.886,5.317,5.317,0,0,0-.633,2.786H79.032a8.82,8.82,0,0,1,2.533-6.2,8.949,8.949,0,0,1,5.823-2.152,7.97,7.97,0,0,1,5.571,1.772,6.8,6.8,0,0,1,1.9,4.811,10.052,10.052,0,0,1-2.532,6.457,22.165,22.165,0,0,1-6.077,5.317h8.988v4.431H79.159v-4.178C85.869,308.4,89.287,304.6,89.287,301.692Z"/><path class="cls-35" d="M97.643,306.123a13.909,13.909,0,0,1,2.279-8.356,7.926,7.926,0,0,1,6.836-3.165,7.608,7.608,0,0,1,6.837,3.165,17.319,17.319,0,0,1,0,16.838,8.055,8.055,0,0,1-6.837,3.165c-3.165,0-5.444-1.013-6.836-3.165A12.894,12.894,0,0,1,97.643,306.123Zm12.66,0a9.885,9.885,0,0,0-.759-4.684,3.4,3.4,0,0,0-5.824,0,14.509,14.509,0,0,0-.76,4.684,9.9,9.9,0,0,0,.76,4.684,3.4,3.4,0,0,0,5.824,0,15.117,15.117,0,0,0,.759-4.684Z"/><path class="cls-35" d="M244.5,181.927a3.473,3.473,0,0,0-1.9-1.013,2.308,2.308,0,0,0-2.659,1.266,12.053,12.053,0,0,0-.759,5.191,2.928,2.928,0,0,1,1.9-1.773,5.028,5.028,0,0,1,3.038-.253,7.822,7.822,0,0,1,5.064,2.785,8.943,8.943,0,0,1,1.9,5.824,8.481,8.481,0,0,1-.886,3.924,5.474,5.474,0,0,1-2.785,2.279,7.174,7.174,0,0,1-4.305.254q-4.936-.761-6.836-4.178a18.078,18.078,0,0,1-1.9-8.862c0-4.178.633-7.217,2.025-8.989s3.545-2.406,6.584-1.9a8.307,8.307,0,0,1,5.444,2.912,9.749,9.749,0,0,1,2.152,5.444l-5.191-.76A4.591,4.591,0,0,0,244.5,181.927ZM240.45,194.46a3.753,3.753,0,0,0,2.405,1.266,2.935,2.935,0,0,0,2.279-.506,2.555,2.555,0,0,0,.76-2.279,3.872,3.872,0,0,0-.887-2.532,3.31,3.31,0,0,0-2.279-1.139,3.517,3.517,0,0,0-2.278.379,2.293,2.293,0,0,0-.887,2.153,5.523,5.523,0,0,0,.887,2.658Z"/><path class="cls-35" d="M255.768,181.547a4.837,4.837,0,0,1,2.786-1.9,9.261,9.261,0,0,1,4.557-.127,11.618,11.618,0,0,1,4.558,1.646,8.369,8.369,0,0,1,2.785,2.785,6.134,6.134,0,0,1,.886,3.292,4.926,4.926,0,0,1-.886,2.912,4.15,4.15,0,0,1-2.405,1.519,7.057,7.057,0,0,1,3.8,6.33,6.694,6.694,0,0,1-1.14,3.8,5.987,5.987,0,0,1-3.165,2.026,10.506,10.506,0,0,1-4.431.126,14.149,14.149,0,0,1-4.431-1.519,9.092,9.092,0,0,1-3.165-3.038,7.975,7.975,0,0,1-1.139-4.178,4.833,4.833,0,0,1,3.8-5.191,5.975,5.975,0,0,1-2.406-2.279,5.711,5.711,0,0,1-.886-3.165A3.983,3.983,0,0,1,255.768,181.547Zm4.811,16.585a3.773,3.773,0,0,0,2.532,1.266,3.03,3.03,0,0,0,2.532-.507,2.291,2.291,0,0,0,.887-2.152,3.458,3.458,0,0,0-1.013-2.405,3.6,3.6,0,0,0-2.406-1.14,3.092,3.092,0,0,0-2.4.38,2.7,2.7,0,0,0-1.013,2.152,4,4,0,0,0,.886,2.406Zm.507-9.749a3.849,3.849,0,0,0,2.025,1.013,2.812,2.812,0,0,0,2.026-.38,2.175,2.175,0,0,0,.76-1.9,3.441,3.441,0,0,0-.76-2.152,2.643,2.643,0,0,0-2.026-1.013,2.816,2.816,0,0,0-2.025.38,2.173,2.173,0,0,0-.76,1.9,2.429,2.429,0,0,0,.76,2.152Z"/><path class="cls-35" d="M274.885,193.7c0-3.545.76-6.2,2.153-8.1s3.671-2.532,6.836-2.026a9.411,9.411,0,0,1,6.837,4.178,16.3,16.3,0,0,1,2.152,8.736c0,3.545-.76,6.33-2.152,8.1-1.393,1.9-3.8,2.532-6.837,2.026a9.4,9.4,0,0,1-6.836-4.178A16.291,16.291,0,0,1,274.885,193.7Zm12.66,2.025a12.382,12.382,0,0,0-.759-4.811,3.321,3.321,0,0,0-2.912-2.025,2.419,2.419,0,0,0-2.912,1.139,11.153,11.153,0,0,0-.759,4.558,12.382,12.382,0,0,0,.759,4.811,3.692,3.692,0,0,0,2.912,2.152,2.484,2.484,0,0,0,2.912-1.266,14.35,14.35,0,0,0,.759-4.558Z"/><path class="cls-35" d="M319.323,153.694l-8.1,17.6-5.7-.886,8.229-16.965-9.622-1.519v-4.684l15.319,2.405v4.051Z"/><path class="cls-35" d="M321.222,161.291c0-3.545.759-6.2,2.152-8.1s3.8-2.532,6.963-2.026a9.407,9.407,0,0,1,6.836,4.178,16.292,16.292,0,0,1,2.153,8.736c0,3.545-.76,6.33-2.153,8.1s-3.8,2.532-6.836,2.026a9.408,9.408,0,0,1-6.837-4.178A15.344,15.344,0,0,1,321.222,161.291Zm12.66,1.9a10.421,10.421,0,0,0-.76-4.811,3.319,3.319,0,0,0-2.912-2.026,2.42,2.42,0,0,0-2.912,1.14,9.377,9.377,0,0,0-.759,4.557,15.314,15.314,0,0,0,.759,4.811,3.69,3.69,0,0,0,2.912,2.152,2.477,2.477,0,0,0,2.912-1.139,14.514,14.514,0,0,0,.76-4.684Z"/><path class="cls-35" d="M341.984,164.582c0-3.545.76-6.2,2.152-8.1,1.393-1.773,3.8-2.532,6.837-2.026a9.4,9.4,0,0,1,6.836,4.178,16.291,16.291,0,0,1,2.153,8.735c0,3.545-.76,6.331-2.153,8.1-1.392,1.9-3.8,2.532-6.836,2.026a9.411,9.411,0,0,1-6.837-4.178A16.3,16.3,0,0,1,341.984,164.582Zm12.66,2.026a12.379,12.379,0,0,0-.759-4.811,3.322,3.322,0,0,0-2.912-2.026,2.421,2.421,0,0,0-2.912,1.14,11.147,11.147,0,0,0-.76,4.557,10.421,10.421,0,0,0,.76,4.811,3.691,3.691,0,0,0,2.912,2.153,2.479,2.479,0,0,0,2.912-1.14,15.737,15.737,0,0,0,.759-4.684Z"/><path class="cls-35" d="M407.691,116.094l-10.635,22.155-7.47-1.646,10.762-21.269-12.534-2.912v-6.077l19.877,4.558v5.191Z"/><path class="cls-35" d="M423.136,123.437q0-3.418-3.039-4.178a1.985,1.985,0,0,0-2.4.633,6.57,6.57,0,0,0-.886,3.418l-6.963-1.646c.126-3.545,1.266-6.077,3.291-7.343a9.441,9.441,0,0,1,7.6-1.012,12.752,12.752,0,0,1,7.217,4.177,10.752,10.752,0,0,1-.886,14.56,22.311,22.311,0,0,1-7.976,5.19l11.647,2.659v5.824l-21.142-4.811v-5.444C418.705,131.159,423.136,127.235,423.136,123.437Z"/><path class="cls-35" d="M433.9,131.666c0-4.558.886-8.1,2.785-10.255s4.811-2.912,8.989-2.026a13.565,13.565,0,0,1,8.989,6.077,22.039,22.039,0,0,1,2.785,11.648c0,4.684-.886,8.1-2.785,10.381s-4.811,2.912-8.989,1.9a13.565,13.565,0,0,1-8.989-6.077A23.284,23.284,0,0,1,433.9,131.666Zm16.458,3.8a15.458,15.458,0,0,0-1.013-6.33,4.818,4.818,0,0,0-3.671-2.912c-1.9-.38-3.165,0-3.8,1.266a15.262,15.262,0,0,0-1.013,5.824,15.477,15.477,0,0,0,1.013,6.33,4.907,4.907,0,0,0,3.8,3.038c1.9.38,3.038,0,3.671-1.266a13.727,13.727,0,0,0,1.013-5.95Z"/></g><g id="arrow"><polyline class="cls-35" points="47.509 370.31 287.039 219.148 300.965 236.239 342.237 177.622 388.194 180.914 405.791 157.746 410.096 157.872 389.46 186.738 345.782 182.18 301.345 256.242 283.874 231.808 101.188 371.323"/><polygon class="cls-35" points="100.302 369.044 283.621 231.301 284.127 230.921 284.38 231.428 301.851 255.735 300.965 255.735 345.656 182.053 345.782 181.8 345.909 181.927 389.46 186.611 389.333 186.611 410.096 157.872 389.46 186.864 389.46 186.864 389.46 186.864 345.909 182.306 346.035 182.18 301.851 256.242 301.472 256.875 300.965 256.368 283.494 232.061 284.254 232.188 101.821 371.07 100.302 369.044"/><polygon class="cls-35" points="101.947 371.323 55.991 370.437 101.947 368.791 101.947 371.323"/><polyline class="cls-35" points="413.261 149.39 423.896 160.911 393.638 156.86"/></g><g id="text"><path class="cls-11" d="M143.473.38V4.937h-9.622v5.191h7.47v4.305h-7.47v9.5h-5.7V.38Z"/><path class="cls-11" d="M158.538,23.928l-5.064-8.862h-1.266v8.862h-5.7V.38h9.749a9.764,9.764,0,0,1,4.684,1.013,6.62,6.62,0,0,1,2.912,2.658,8.115,8.115,0,0,1,1.012,3.8,7.287,7.287,0,0,1-1.392,4.305,7.653,7.653,0,0,1-4.051,2.532L165,23.928Zm-6.33-12.787h3.545a3.189,3.189,0,0,0,2.532-.76,2.952,2.952,0,0,0,.76-2.278,2.778,2.778,0,0,0-.886-2.153,3.189,3.189,0,0,0-2.532-.759h-3.545Z"/><path class="cls-11" d="M173.351,4.937V9.875h7.976v4.3h-7.976V19.37h8.988v4.558H167.654V.38h14.685V4.937Z"/><path class="cls-11" d="M191.2,4.937V9.875h7.976v4.3H191.2V19.37h8.988v4.558H185.505V.38H200.19V4.937Z"/><path class="cls-11" d="M215.762,15.7v8.229h-5.7V.38h9.242a9.495,9.495,0,0,1,6.33,2.025,7.242,7.242,0,0,1,2.152,5.571,7.286,7.286,0,0,1-1.012,3.925,5.962,5.962,0,0,1-2.912,2.658,11.984,11.984,0,0,1-4.684,1.013h-3.419Zm6.33-7.6q0-3.039-3.418-3.039h-2.912v6.077h2.912q3.228,0,3.418-3.038Z"/><path class="cls-11" d="M242.728,23.928l-5.064-8.862H236.4v8.862h-5.7V.38h9.622a9.759,9.759,0,0,1,4.684,1.013,8.334,8.334,0,0,1,2.912,2.658,8.117,8.117,0,0,1,1.013,3.8,7.281,7.281,0,0,1-1.393,4.305,7.526,7.526,0,0,1-4.178,2.532l5.571,9.242Zm-6.456-12.787h3.545a3.19,3.19,0,0,0,2.532-.76,2.549,2.549,0,0,0,.759-2.278,3.2,3.2,0,0,0-.759-2.153,3.189,3.189,0,0,0-2.532-.759h-3.545Z"/><path class="cls-11" d="M268.935,1.519a11.694,11.694,0,0,1,4.3,4.305,11.874,11.874,0,0,1,1.52,6.2,13.221,13.221,0,0,1-1.52,6.2,11.7,11.7,0,0,1-4.3,4.3,12.659,12.659,0,0,1-12.027,0,11.7,11.7,0,0,1-4.305-4.3,13.361,13.361,0,0,1-1.645-6.2,11.994,11.994,0,0,1,1.645-6.2,11.7,11.7,0,0,1,4.305-4.3,12.664,12.664,0,0,1,12.027,0ZM258.554,7.09a7.076,7.076,0,0,0-1.646,4.937,7.078,7.078,0,0,0,1.646,4.938,6.344,6.344,0,0,0,8.862,0,7.088,7.088,0,0,0,1.646-4.938,7.085,7.085,0,0,0-1.646-4.937A6.342,6.342,0,0,0,258.554,7.09Z"/><path class="cls-11" d="M296.408,2.279A9.135,9.135,0,0,1,299.952,8.1h-6.076A4.6,4.6,0,0,0,292.1,6.077a5.875,5.875,0,0,0-2.912-.76,5.552,5.552,0,0,0-4.3,1.773,7.076,7.076,0,0,0-1.646,4.937,7.229,7.229,0,0,0,1.772,5.191,6.19,6.19,0,0,0,4.811,1.772,5.581,5.581,0,0,0,5.7-4.3h-7.216V10.635h11.9V16.2a11.342,11.342,0,0,1-2.153,3.8,10.874,10.874,0,0,1-3.8,2.912,12.373,12.373,0,0,1-5.19,1.139,13.217,13.217,0,0,1-6.2-1.519,10.54,10.54,0,0,1-4.178-4.3,11.769,11.769,0,0,1-1.392-6.2,14.817,14.817,0,0,1,1.392-6.2,9.93,9.93,0,0,1,4.052-4.178,13.216,13.216,0,0,1,6.2-1.519A12.022,12.022,0,0,1,296.408,2.279Z"/><path class="cls-11" d="M315.524,23.928l-5.064-8.862h-1.266v8.862h-5.7V.38h9.749a9.764,9.764,0,0,1,4.684,1.013,6.62,6.62,0,0,1,2.912,2.658,8.117,8.117,0,0,1,1.013,3.8,7.288,7.288,0,0,1-1.393,4.305,7.653,7.653,0,0,1-4.051,2.532l5.57,9.242Zm-6.33-12.787h3.545a3.189,3.189,0,0,0,2.532-.76,2.952,2.952,0,0,0,.76-2.278,3.194,3.194,0,0,0-.76-2.153,3.188,3.188,0,0,0-2.532-.759h-3.545Z"/><path class="cls-11" d="M339.2,19.623h-8.862l-1.519,4.305h-5.951L331.476.506h6.584l8.608,23.422h-6.076Zm-1.519-4.3L334.768,6.71l-2.912,8.609Z"/><path class="cls-11" d="M375.28.506V23.928h-5.7V9.242l-5.064,14.686h-4.937L354.518,9.242V23.928h-5.7V.506h6.963l6.33,16.332,6.2-16.332Z"/><path class="cls-11" d="M111.949,63.807l-5.064-8.862h-1.266v8.862h-5.7V40.259h9.748a9.77,9.77,0,0,1,4.684,1.013,6.616,6.616,0,0,1,2.912,2.659,8.113,8.113,0,0,1,1.013,3.8,7.278,7.278,0,0,1-1.393,4.3,7.521,7.521,0,0,1-4.177,2.532l5.57,9.242Zm-6.33-12.787h3.545a3.189,3.189,0,0,0,2.532-.759,3.44,3.44,0,0,0,.759-2.152,2.72,2.72,0,0,0-3.291-2.912h-3.419Z"/><path class="cls-11" d="M135.623,59.5h-8.862l-1.519,4.3h-5.95L127.9,40.513h6.583l8.609,23.421h-6.077ZM134.1,55.2l-2.912-8.609L128.281,55.2Z"/><path class="cls-11" d="M151.069,40.259V63.807h-5.7V40.259Z"/><path class="cls-11" d="M170.945,60.642a5.985,5.985,0,0,1-2.785,2.532,8.984,8.984,0,0,1-4.431.886,11.109,11.109,0,0,1-6.583-1.9,7.018,7.018,0,0,1-2.785-5.443h6.076a3.121,3.121,0,0,0,1.013,2.152,2.878,2.878,0,0,0,2.026.759A2.366,2.366,0,0,0,165.248,59a2.4,2.4,0,0,0,.633-1.645,1.843,1.843,0,0,0-.633-1.52,5.641,5.641,0,0,0-1.392-1.012c-.633-.254-1.393-.507-2.406-.887a22.453,22.453,0,0,1-3.671-1.519,6.573,6.573,0,0,1-2.406-2.152,6.978,6.978,0,0,1,0-7.343,7.638,7.638,0,0,1,2.912-2.405,9.976,9.976,0,0,1,4.305-.76,10.248,10.248,0,0,1,6.33,1.772,7.171,7.171,0,0,1,2.658,5.064h-6.2a3.763,3.763,0,0,0-.886-1.9,2.093,2.093,0,0,0-1.9-.633,2.544,2.544,0,0,0-1.646.507,2.336,2.336,0,0,0-.633,1.519,1.9,1.9,0,0,0,.506,1.393,5.628,5.628,0,0,0,1.393,1.012c.506.254,1.392.507,2.405.887a18.661,18.661,0,0,1,3.672,1.519,6.971,6.971,0,0,1,2.532,2.152,5.619,5.619,0,0,1,1.013,3.672A6.257,6.257,0,0,1,170.945,60.642Z"/><path class="cls-11" d="M180.694,44.817v4.937h7.976v4.305h-7.976V59.25h8.988v4.557H175V40.259h14.685v4.558Z"/><path class="cls-11" d="M219.94,40.259l-8.1,15.7v7.849h-5.7V55.958l-8.1-15.7H204.5l4.557,9.622,4.558-9.622Z"/><path class="cls-11" d="M239.31,41.525a11.7,11.7,0,0,1,4.305,4.305,12.728,12.728,0,0,1,0,12.407,11.7,11.7,0,0,1-4.305,4.3,12.659,12.659,0,0,1-12.027,0,11.7,11.7,0,0,1-4.3-4.3,12.723,12.723,0,0,1,0-12.407,11.694,11.694,0,0,1,4.3-4.3A12.326,12.326,0,0,1,239.31,41.525ZM228.8,47.1a7.085,7.085,0,0,0-1.646,4.937,7.088,7.088,0,0,0,1.646,4.938,6.344,6.344,0,0,0,8.862,0,7.078,7.078,0,0,0,1.646-4.938,7.076,7.076,0,0,0-1.646-4.937,6.342,6.342,0,0,0-8.862,0Z"/><path class="cls-11" d="M253.869,40.259V53.806a5.1,5.1,0,0,0,1.013,3.545,4.359,4.359,0,0,0,6.077,0,5.085,5.085,0,0,0,1.013-3.545V40.259h5.7V53.806a10.614,10.614,0,0,1-1.266,5.57,7.728,7.728,0,0,1-3.545,3.418,11.414,11.414,0,0,1-5.064,1.14,10.88,10.88,0,0,1-4.937-1.14,7.45,7.45,0,0,1-3.419-3.418,12.512,12.512,0,0,1-1.266-5.7V40.259Z"/><path class="cls-11" d="M283.621,63.807l-5.064-8.862h-1.266v8.862h-5.7V40.259h9.748a9.77,9.77,0,0,1,4.684,1.013,6.616,6.616,0,0,1,2.912,2.659,8.113,8.113,0,0,1,1.013,3.8,6.965,6.965,0,0,1-1.519,4.431,7.651,7.651,0,0,1-4.052,2.532l5.571,9.242h-6.33Zm-6.33-12.787h3.545a3.189,3.189,0,0,0,2.532-.759,2.953,2.953,0,0,0,.759-2.279,2.721,2.721,0,0,0-3.291-2.912h-3.545Z"/><path class="cls-11" d="M312.992,60.642a5.98,5.98,0,0,1-2.785,2.532,8.982,8.982,0,0,1-4.431.886,10.485,10.485,0,0,1-6.457-1.9,7.021,7.021,0,0,1-2.785-5.443h5.95A3.121,3.121,0,0,0,303.5,58.87a2.878,2.878,0,0,0,2.026.759A2.366,2.366,0,0,0,307.3,59a2.4,2.4,0,0,0,.633-1.645,1.843,1.843,0,0,0-.633-1.52,5.623,5.623,0,0,0-1.392-1.012c-.633-.254-1.393-.507-2.406-.887a22.453,22.453,0,0,1-3.671-1.519,6.573,6.573,0,0,1-2.406-2.152,6.978,6.978,0,0,1,0-7.343,7.638,7.638,0,0,1,2.912-2.405,9.978,9.978,0,0,1,4.305-.76,9.6,9.6,0,0,1,6.33,1.9,7.169,7.169,0,0,1,2.658,5.064h-6.2a3.759,3.759,0,0,0-.886-1.9,2.091,2.091,0,0,0-1.9-.633,2.549,2.549,0,0,0-1.646.506,2.336,2.336,0,0,0-.633,1.52,1.906,1.906,0,0,0,.506,1.392,5.625,5.625,0,0,0,1.393,1.013c.506.253,1.393.506,2.4.886a18.721,18.721,0,0,1,3.672,1.519,6.582,6.582,0,0,1,2.4,2.153,5.6,5.6,0,0,1,1.013,3.671A6.055,6.055,0,0,1,312.992,60.642Z"/><path class="cls-11" d="M335.274,42.412a10.652,10.652,0,0,1,3.8,6.33H333a5.66,5.66,0,0,0-2.026-2.532,5.2,5.2,0,0,0-3.292-.887,5.46,5.46,0,0,0-4.051,1.773,6.977,6.977,0,0,0-1.519,4.937,6.979,6.979,0,0,0,1.519,4.938,5.463,5.463,0,0,0,4.051,1.772,6.134,6.134,0,0,0,3.292-.886A5.66,5.66,0,0,0,333,55.325h6.076a10.655,10.655,0,0,1-3.8,6.33,11.482,11.482,0,0,1-7.469,2.405,12.722,12.722,0,0,1-6.077-1.519,10.211,10.211,0,0,1-4.051-4.3,14.222,14.222,0,0,1,0-12.407,9.24,9.24,0,0,1,4.051-4.178,12.367,12.367,0,0,1,6.077-1.519A10.717,10.717,0,0,1,335.274,42.412Z"/><path class="cls-11" d="M359.455,41.525a11.7,11.7,0,0,1,4.305,4.305,12.728,12.728,0,0,1,0,12.407,11.7,11.7,0,0,1-4.305,4.3,12.659,12.659,0,0,1-12.027,0,11.7,11.7,0,0,1-4.3-4.3,12.723,12.723,0,0,1,0-12.407,11.694,11.694,0,0,1,4.3-4.3A12.326,12.326,0,0,1,359.455,41.525ZM348.947,47.1a7.085,7.085,0,0,0-1.646,4.937,7.088,7.088,0,0,0,1.646,4.938,6.344,6.344,0,0,0,8.862,0,7.078,7.078,0,0,0,1.646-4.938,7.076,7.076,0,0,0-1.646-4.937A6.119,6.119,0,0,0,348.947,47.1Z"/><path class="cls-11" d="M380.6,63.807l-5.064-8.862h-1.266v8.862h-5.7V40.259h9.748A9.77,9.77,0,0,1,383,41.272a5.963,5.963,0,0,1,2.912,2.659,8.113,8.113,0,0,1,1.013,3.8,7.285,7.285,0,0,1-1.393,4.3,7.524,7.524,0,0,1-4.178,2.532l5.571,9.242ZM374.141,51.02h3.545a3.189,3.189,0,0,0,2.532-.759,2.958,2.958,0,0,0,.76-2.279,2.722,2.722,0,0,0-3.292-2.912h-3.545Z"/><path class="cls-11" d="M395.41,44.817v4.937h7.976v4.305H395.41V59.25H404.4v4.557H389.713V40.259H404.4v4.558Z"/><path class="cls-11" d="M47.382,457.412H38.52L37,461.716H31.05L39.659,438.3h6.584l8.609,23.421H48.775Zm-1.393-4.3L43.078,444.5l-2.912,8.608Z"/><path class="cls-11" d="M69.537,444.752a7.331,7.331,0,0,1,2.659,4.684H66.879a2.771,2.771,0,0,0-1.013-1.772,2.976,2.976,0,0,0-2.026-.633,3.371,3.371,0,0,0-1.519.379,1.422,1.422,0,0,0,.38,2.406,11.119,11.119,0,0,0,2.912.886c1.139.253,2.405.633,3.545,1.013a6.288,6.288,0,0,1,2.405,1.646,4.744,4.744,0,0,1,1.013,3.165,4.314,4.314,0,0,1-.886,2.785,5.4,5.4,0,0,1-2.532,1.9,8.031,8.031,0,0,1-3.8.633,10.237,10.237,0,0,1-6.076-1.646,7.255,7.255,0,0,1-2.786-4.811h5.444a2.4,2.4,0,0,0,1.013,1.9,4.735,4.735,0,0,0,2.279.633,2.431,2.431,0,0,0,1.519-.506,1.375,1.375,0,0,0,.507-1.139,1.557,1.557,0,0,0-.887-1.393,25.438,25.438,0,0,0-2.912-.886,34.172,34.172,0,0,1-3.418-.887,5.858,5.858,0,0,1-2.279-1.645,5.187,5.187,0,0,1,.887-7.09,7.96,7.96,0,0,1,5.317-1.519A8.985,8.985,0,0,1,69.537,444.752Z"/><path class="cls-11" d="M86.882,461.716l-5.571-7.849v7.849h-5.7V437.029h5.7v13.546l5.571-7.469h6.583L86,452.348l7.722,9.242Z"/><path class="cls-11" d="M117.013,457.412h-8.862l-1.519,4.3h-5.951L109.29,438.3h6.584l8.609,23.421h-6.077Zm-1.519-4.3-2.912-8.608-2.912,8.608Z"/><path class="cls-11" d="M142.46,444.119a7.371,7.371,0,0,1,2.912,3.291,12.806,12.806,0,0,1,0,10.129,7.371,7.371,0,0,1-2.912,3.291,7.966,7.966,0,0,1-4.178,1.14,6.458,6.458,0,0,1-3.671-1.013,5.852,5.852,0,0,1-2.279-2.659v3.292h-5.7V437.029h5.7V446.4a5.852,5.852,0,0,1,2.279-2.659,7.627,7.627,0,0,1,3.671-1.013A10.21,10.21,0,0,1,142.46,444.119Zm-8.862,5.064a5.324,5.324,0,0,0,0,6.583,4.2,4.2,0,0,0,5.95,0,5.51,5.51,0,0,0,0-6.71,4.124,4.124,0,0,0-2.912-1.266,4.071,4.071,0,0,0-3.038,1.393Z"/><path class="cls-11" d="M162.969,444.119a8.555,8.555,0,0,1,3.419,3.291,11.012,11.012,0,0,1,0,10.129,8.555,8.555,0,0,1-3.419,3.291,11.268,11.268,0,0,1-9.875,0,8.559,8.559,0,0,1-3.418-3.291,11.006,11.006,0,0,1,0-10.129,8.559,8.559,0,0,1,3.418-3.291A11.268,11.268,0,0,1,162.969,444.119Zm-7.722,4.937a5.7,5.7,0,0,0,0,6.837,3.724,3.724,0,0,0,2.785,1.139,3.928,3.928,0,0,0,2.785-1.139,5.3,5.3,0,0,0,1.14-3.419,4.355,4.355,0,0,0-1.14-3.418,3.724,3.724,0,0,0-2.785-1.139A3.17,3.17,0,0,0,155.247,449.056Z"/><path class="cls-11" d="M189.049,443.106v18.61h-5.7v-3.291a5.811,5.811,0,0,1-2.405,2.532,7.634,7.634,0,0,1-3.672,1.013,6.442,6.442,0,0,1-5.064-2.153,8.3,8.3,0,0,1-1.9-5.823V443.233h5.7v10.128a3.618,3.618,0,0,0,1.013,2.911,2.98,2.98,0,0,0,2.659,1.013,3.925,3.925,0,0,0,2.785-1.139,4.746,4.746,0,0,0,1.013-3.165v-9.875Z"/><path class="cls-11" d="M203.482,456.906v4.937H200.95a7.4,7.4,0,0,1-5.064-1.646c-1.266-1.139-1.773-2.912-1.773-5.317v-6.837h-2.532v-4.937h2.532v-4.558h5.7v4.558h3.671v4.811h-3.671v6.963a1.791,1.791,0,0,0,2.025,2.026Z"/><path class="cls-11" d="M230.575,439.435a11.7,11.7,0,0,1,4.3,4.3,12.728,12.728,0,0,1,0,12.407,11.7,11.7,0,0,1-4.3,4.3,12.659,12.659,0,0,1-12.027,0,11.694,11.694,0,0,1-4.305-4.3,12.728,12.728,0,0,1,0-12.407,11.694,11.694,0,0,1,4.305-4.3A12,12,0,0,1,230.575,439.435Zm-10.508,5.57a8.359,8.359,0,0,0,0,9.875,6.344,6.344,0,0,0,8.862,0,8.359,8.359,0,0,0,0-9.875A6.344,6.344,0,0,0,220.067,445.005Z"/><path class="cls-11" d="M258.047,443.106v18.61h-5.7v-3.291a5.211,5.211,0,0,1-2.405,2.532,7.634,7.634,0,0,1-3.672,1.013,6.442,6.442,0,0,1-5.064-2.153,8.946,8.946,0,0,1-1.9-5.823V443.233h5.7v10.128a4.108,4.108,0,0,0,1.013,2.911,2.98,2.98,0,0,0,2.659,1.013,3.445,3.445,0,0,0,2.658-1.139,4.166,4.166,0,0,0,1.013-3.165v-9.875Z"/><path class="cls-11" d="M270.454,443.992a7.634,7.634,0,0,1,3.672-1.013v6.077H272.48a5.09,5.09,0,0,0-3.545,1.013,3.889,3.889,0,0,0-1.266,3.292v8.482h-5.7V443.106h5.7v3.545A7.035,7.035,0,0,1,270.454,443.992Z"/><path class="cls-11" d="M380.724,442.22l-8.355,19.5h-5.824l8.482-18.863h-10v-4.811h15.825Z"/><path class="cls-11" d="M298.053,438.169v4.557h-9.621v5.191H295.9v4.3h-7.469v9.5h-5.7V438.169Z"/><path class="cls-11" d="M312.992,461.716l-5.064-8.862h-1.266v8.862h-5.57V438.169h9.748a9.77,9.77,0,0,1,4.684,1.012,7.378,7.378,0,0,1,2.912,2.659,7.732,7.732,0,0,1,1.013,3.8,7.972,7.972,0,0,1-1.393,4.431,6.711,6.711,0,0,1-4.177,2.4l5.57,9.242Zm-6.33-12.786h3.545a3.192,3.192,0,0,0,2.532-.76,2.835,2.835,0,0,0,.76-2.152,2.722,2.722,0,0,0-3.292-2.912h-3.545Z"/><path class="cls-11" d="M327.805,442.726v4.938h7.976v4.3h-7.976v5.191h8.989v4.557H322.108V438.169h14.686v4.557Z"/><path class="cls-11" d="M345.656,442.726v4.938h7.976v4.3h-7.976v5.191h8.988v4.557H339.959V438.169h14.685v4.557Z"/><path class="cls-11" d="M404.525,458.551a5.98,5.98,0,0,1-2.785,2.532,8.994,8.994,0,0,1-4.431.887,10.737,10.737,0,0,1-6.457-1.9,7.023,7.023,0,0,1-2.785-5.444h6.077a3.121,3.121,0,0,0,1.013,2.152,2.877,2.877,0,0,0,2.026.76,2.37,2.37,0,0,0,1.772-.633,2.482,2.482,0,0,0,0-3.165,5.607,5.607,0,0,0-1.393-1.013c-.633-.253-1.392-.507-2.405-.886a22.558,22.558,0,0,1-3.672-1.52,6.578,6.578,0,0,1-2.405-2.152,6.974,6.974,0,0,1,0-7.343,7.631,7.631,0,0,1,2.912-2.4,8.419,8.419,0,0,1,4.3-.76,9.072,9.072,0,0,1,6.2,1.9,7.423,7.423,0,0,1,2.658,5.064h-6.2a3.763,3.763,0,0,0-.886-1.9,2.093,2.093,0,0,0-1.9-.633,2.544,2.544,0,0,0-1.646.507,2.331,2.331,0,0,0-.633,1.519,1.9,1.9,0,0,0,.506,1.392,5.607,5.607,0,0,0,1.393,1.013c.506.253,1.393.507,2.4.886a18.725,18.725,0,0,1,3.672,1.52,8.2,8.2,0,0,1,2.532,2.152,5.767,5.767,0,0,1,1.013,3.8A6.583,6.583,0,0,1,404.525,458.551Z"/><path class="cls-11" d="M419.211,456.906v4.937h-2.532a7.4,7.4,0,0,1-5.064-1.646c-1.266-1.139-1.772-2.912-1.772-5.317v-6.837h-2.532v-4.937h2.532v-4.558h5.7v4.558h3.671v4.811H415.54v6.963a1.791,1.791,0,0,0,2.025,2.026Z"/><path class="cls-11" d="M439.847,453.487H426.934a5.151,5.151,0,0,0,1.013,3.039,3.448,3.448,0,0,0,2.532.886,2.789,2.789,0,0,0,2.025-.633,3.851,3.851,0,0,0,1.14-1.646h6.077a7.618,7.618,0,0,1-1.646,3.545,8.432,8.432,0,0,1-3.165,2.405,10.925,10.925,0,0,1-9.115-.253,8.23,8.23,0,0,1-3.292-3.291,11.006,11.006,0,0,1,0-10.129,8.23,8.23,0,0,1,3.292-3.291,11,11,0,0,1,9.748,0,7.934,7.934,0,0,1,3.292,3.165,9.861,9.861,0,0,1,1.139,4.684A6.143,6.143,0,0,1,439.847,453.487Zm-6.583-5.19a3.149,3.149,0,0,0-2.532-.887,3.449,3.449,0,0,0-2.532.887,3.718,3.718,0,0,0-1.139,2.785h7.216a3.8,3.8,0,0,0-1.013-2.785Z"/><path class="cls-11" d="M458.711,444.119a7.371,7.371,0,0,1,2.912,3.291,12.806,12.806,0,0,1,0,10.129,7.371,7.371,0,0,1-2.912,3.291,7.852,7.852,0,0,1-4.051,1.14,6.463,6.463,0,0,1-3.672-1.013,5.858,5.858,0,0,1-2.279-2.659v12.154h-5.7V443.106h5.7v3.418a5.86,5.86,0,0,1,2.279-2.658,7.634,7.634,0,0,1,3.672-1.013A8.01,8.01,0,0,1,458.711,444.119Zm-8.862,5.064a5.324,5.324,0,0,0,0,6.583,4.2,4.2,0,0,0,5.95,0,5.51,5.51,0,0,0,0-6.71,4.364,4.364,0,0,0-2.912-1.266,4.071,4.071,0,0,0-3.038,1.393Z"/><path class="cls-11" d="M477.954,444.752a7.331,7.331,0,0,1,2.659,4.684H475.3a2.771,2.771,0,0,0-1.013-1.772,2.976,2.976,0,0,0-2.026-.633,2.553,2.553,0,0,0-1.392.379,1.421,1.421,0,0,0,.38,2.406,19.532,19.532,0,0,0,2.911.886c1.14.253,2.406.633,3.545,1.013a6.291,6.291,0,0,1,2.406,1.646,4.749,4.749,0,0,1,1.012,3.165,4.314,4.314,0,0,1-.886,2.785,5.4,5.4,0,0,1-2.532,1.9,8.029,8.029,0,0,1-3.8.633,10.242,10.242,0,0,1-6.077-1.646,7.254,7.254,0,0,1-2.785-4.811h5.444a2.4,2.4,0,0,0,1.013,1.9,4.735,4.735,0,0,0,2.279.633,2.432,2.432,0,0,0,1.519-.506,1.374,1.374,0,0,0,.506-1.139,1.558,1.558,0,0,0-.886-1.393,21.232,21.232,0,0,0-3.039-.886,34.172,34.172,0,0,1-3.418-.887,5.858,5.858,0,0,1-2.279-1.645,5.187,5.187,0,0,1,.887-7.09,7.96,7.96,0,0,1,5.317-1.519A9.253,9.253,0,0,1,477.954,444.752Z"/><path class="cls-11" d="M147.524,478.175v4.557h-6.33v18.991h-5.7V482.732h-6.33v-4.557Z"/><path class="cls-11" d="M163.6,484a8.557,8.557,0,0,1,3.419,3.292,11.01,11.01,0,0,1,0,10.128,8.557,8.557,0,0,1-3.419,3.292,11.268,11.268,0,0,1-9.875,0,8.561,8.561,0,0,1-3.418-3.292,11,11,0,0,1,0-10.128A8.561,8.561,0,0,1,153.727,484,11.268,11.268,0,0,1,163.6,484Zm-7.722,4.938a5.553,5.553,0,0,0-1.14,3.418,4.355,4.355,0,0,0,1.14,3.418,3.721,3.721,0,0,0,2.785,1.14,3.925,3.925,0,0,0,2.785-1.14,5.551,5.551,0,0,0,1.14-3.418,4.873,4.873,0,0,0-1.14-3.418,3.721,3.721,0,0,0-2.785-1.14,3.534,3.534,0,0,0-2.785,1.14Z"/><path class="cls-11" d="M192.341,497.418h-8.862l-1.393,4.305h-5.95l8.609-23.422h6.583l8.609,23.422H193.86Zm-1.393-4.3-2.911-8.609-2.912,8.609Z"/><path class="cls-11" d="M223.232,482.1l-8.356,19.5h-5.824l8.483-18.864H207.407V477.8h15.825Z"/><path class="cls-11" d="M235.512,485.138c0-1.773-.759-2.659-2.405-2.659a2.13,2.13,0,0,0-1.9.886,4.7,4.7,0,0,0-.633,2.912H225a8.79,8.79,0,0,1,2.659-6.457,9.762,9.762,0,0,1,11.9-.253,6.857,6.857,0,0,1,1.9,5.064,10.855,10.855,0,0,1-2.658,6.71,26.739,26.739,0,0,1-6.33,5.571h9.242v4.557H225v-4.3C231.967,492.1,235.512,488.05,235.512,485.138Z"/><path class="cls-11" d="M243.994,489.7a15.352,15.352,0,0,1,2.279-8.735c1.52-2.152,3.925-3.165,7.09-3.165,3.292,0,5.7,1.013,7.09,3.165a17.885,17.885,0,0,1,0,17.471c-1.519,2.152-3.925,3.165-7.09,3.165a8.415,8.415,0,0,1-7.09-3.165A15.354,15.354,0,0,1,243.994,489.7Zm13.04,0a10.4,10.4,0,0,0-.759-4.81,2.8,2.8,0,0,0-2.912-1.646,2.9,2.9,0,0,0-2.912,1.772,10.407,10.407,0,0,0-.759,4.811,11.207,11.207,0,0,0,.759,4.937,3.072,3.072,0,0,0,3.039,1.773,2.741,2.741,0,0,0,2.911-1.773,14.254,14.254,0,0,0,.633-5.064Z"/><path class="cls-11" d="M287.545,498.557a5.988,5.988,0,0,1-2.785,2.533,8.993,8.993,0,0,1-4.431.886,11.116,11.116,0,0,1-6.583-1.9,7.02,7.02,0,0,1-2.785-5.444h6.077a3.12,3.12,0,0,0,1.012,2.152,2.874,2.874,0,0,0,2.026.76,2.37,2.37,0,0,0,1.772-.633,2.407,2.407,0,0,0,.633-1.646,2.336,2.336,0,0,0-.633-1.519,5.6,5.6,0,0,0-1.392-1.013,16.531,16.531,0,0,0-2.406-.886,22.548,22.548,0,0,1-3.671-1.52,6.57,6.57,0,0,1-2.405-2.152,6.974,6.974,0,0,1,0-7.343,6.644,6.644,0,0,1,2.911-2.405,9.993,9.993,0,0,1,4.305-.76,9.068,9.068,0,0,1,6.2,1.9,7.424,7.424,0,0,1,2.659,5.064h-6.2a3.746,3.746,0,0,0-.886-1.9,1.968,1.968,0,0,0-1.772-.633,2.544,2.544,0,0,0-1.646.507,2.333,2.333,0,0,0-.633,1.519,1.909,1.909,0,0,0,.506,1.393,5.647,5.647,0,0,0,1.393,1.012c.506.254,1.393.507,2.4.887a18.661,18.661,0,0,1,3.672,1.519,6.57,6.57,0,0,1,2.4,2.152,5.757,5.757,0,0,1,1.013,3.8A6.027,6.027,0,0,1,287.545,498.557Z"/><path class="cls-11" d="M306.029,484.885a8.461,8.461,0,0,1,3.039,5.443h-6.077a3.007,3.007,0,0,0-1.14-1.9,2.59,2.59,0,0,0-2.025-.633,2.782,2.782,0,0,0-2.406,1.14,6.626,6.626,0,0,0,0,6.836,2.766,2.766,0,0,0,2.406,1.14,3.507,3.507,0,0,0,2.025-.633,3.007,3.007,0,0,0,1.14-1.9h6.077a9.054,9.054,0,0,1-3.039,5.443,9.508,9.508,0,0,1-6.077,2.026,10.753,10.753,0,0,1-4.81-1.139,8.239,8.239,0,0,1-3.292-3.292,11,11,0,0,1,0-10.128A8.239,8.239,0,0,1,295.142,484a10.753,10.753,0,0,1,4.81-1.139A9.269,9.269,0,0,1,306.029,484.885Z"/><path class="cls-11" d="M325.653,484a8.561,8.561,0,0,1,3.418,3.292,11,11,0,0,1,0,10.128,8.561,8.561,0,0,1-3.418,3.292,11.271,11.271,0,0,1-9.875,0,8.557,8.557,0,0,1-3.419-3.292,11.01,11.01,0,0,1,0-10.128A8.557,8.557,0,0,1,315.778,484a11.284,11.284,0,0,1,4.937-1.139A10.9,10.9,0,0,1,325.653,484Zm-7.6,4.938a5.7,5.7,0,0,0,0,6.836,3.782,3.782,0,0,0,5.318.127l.126-.127a6.114,6.114,0,0,0,0-6.836,3.719,3.719,0,0,0-2.785-1.14A3.449,3.449,0,0,0,318.056,488.936Z"/><path class="cls-11" d="M341.731,483.872a7.627,7.627,0,0,1,3.671-1.013v6.077h-1.645a4.768,4.768,0,0,0-3.419,1.013,4.037,4.037,0,0,0-1.266,3.291v8.483h-5.7V483.112h5.7v3.545A9.3,9.3,0,0,1,341.731,483.872Z"/><path class="cls-11" d="M365.279,493.493H352.366a5.15,5.15,0,0,0,1.012,3.039,3.627,3.627,0,0,0,4.558.253,3.858,3.858,0,0,0,1.139-1.646h6.077a7.6,7.6,0,0,1-1.646,3.545,8.445,8.445,0,0,1-3.165,2.406,10.926,10.926,0,0,1-9.115-.254,8.236,8.236,0,0,1-3.292-3.291,11.01,11.01,0,0,1,0-10.128,8.232,8.232,0,0,1,3.292-3.292,11,11,0,0,1,9.748,0,7.928,7.928,0,0,1,3.292,3.165,9.853,9.853,0,0,1,1.14,4.684A6.139,6.139,0,0,1,365.279,493.493ZM358.7,488.3a3.145,3.145,0,0,0-2.532-.886,3.448,3.448,0,0,0-2.532.886,3.721,3.721,0,0,0-1.14,2.785h7.216A3.355,3.355,0,0,0,358.7,488.3Z"/><path class="cls-11" d="M376.167,477.035l-.633,16.332h-4.811l-.76-16.332Zm-.127,18.99v5.7h-5.95v-5.7Z"/></g></g></g></svg>