<?xml version="1.0" encoding="utf-8"?>
<!-- Generator: Adobe Illustrator 25.2.0, SVG Export Plug-In . SVG Version: 6.00 Build 0)  -->
<svg version="1.1" id="Layer_1" xmlns="http://www.w3.org/2000/svg" xmlns:xlink="http://www.w3.org/1999/xlink" x="0px" y="0px"
	 viewBox="0 0 499.4 502" style="enable-background:new 0 0 499.4 502;" xml:space="preserve">
<style type="text/css">
	.st0{opacity:0.71;fill:#FFFFFF;enable-background:new    ;}
	.st1{opacity:0.53;fill:url(#SVGID_1_);enable-background:new    ;}
	.st2{fill:#DEF1FA;}
	.st3{fill:none;stroke:#DEF1FA;stroke-miterlimit:10;}
	.st4{fill:#47C7F2;}
	.st5{opacity:0.46;fill:url(#SVGID_2_);enable-background:new    ;}
	.st6{opacity:0.46;fill:url(#SVGID_3_);enable-background:new    ;}
	.st7{opacity:0.62;fill:url(#SVGID_4_);enable-background:new    ;}
	.st8{opacity:0.62;fill:url(#SVGID_5_);enable-background:new    ;}
	.st9{opacity:0.65;}
	.st10{fill:#FFFFFF;}
	.st11{opacity:0.46;fill:url(#SVGID_6_);enable-background:new    ;}
	.st12{opacity:0.46;fill:url(#SVGID_7_);enable-background:new    ;}
	.st13{opacity:0.48;}
	.st14{opacity:0.32;fill:url(#SVGID_8_);enable-background:new    ;}
	.st15{opacity:0.67;fill:url(#SVGID_9_);enable-background:new    ;}
	.st16{opacity:0.46;fill:url(#SVGID_10_);enable-background:new    ;}
	.st17{opacity:0.46;fill:url(#SVGID_11_);enable-background:new    ;}
	.st18{opacity:0.46;fill:url(#SVGID_12_);enable-background:new    ;}
	.st19{opacity:0.67;fill:url(#SVGID_13_);enable-background:new    ;}
	.st20{opacity:0.62;fill:url(#SVGID_14_);enable-background:new    ;}
	.st21{opacity:0.53;}
	.st22{opacity:0.46;fill:url(#SVGID_15_);enable-background:new    ;}
	.st23{opacity:0.67;fill:url(#SVGID_16_);enable-background:new    ;}
	.st24{fill:#35495B;}
	.st25{opacity:0.5;fill:#35495B;enable-background:new    ;}
	.st26{opacity:0.51;fill:#35495B;enable-background:new    ;}
	.st27{opacity:0.55;fill:#35495B;enable-background:new    ;}
	.st28{fill:none;stroke:#A4C1CA;stroke-width:2;stroke-miterlimit:10;}
	.st29{fill:url(#SVGID_17_);}
	.st30{opacity:4.000000e-02;}
	.st31{fill:url(#SVGID_18_);}
	.st32{fill:url(#SVGID_19_);}
	.st33{fill:#F6B412;}
</style>
<g id="Layer_2_1_">
	<g id="largest">
		<polygon class="st0" points="472.8,339 42.8,371 19.8,55 468.8,172 		"/>
		<g id="reflections">
			
				<linearGradient id="SVGID_1_" gradientUnits="userSpaceOnUse" x1="252.8234" y1="284.8235" x2="263.7104" y2="202.6724" gradientTransform="matrix(1 0 0 -1 0 617.22)">
				<stop  offset="0" style="stop-color:#53C8F2"/>
				<stop  offset="1" style="stop-color:#50BFE7;stop-opacity:0"/>
			</linearGradient>
			<path class="st1" d="M27.9,412.1c0.4,7.7,17.3,13.2,26.5,16c36,11.3,49.9-11.1,91.4-6c26.6,3.4,33.9,14.3,54.6,8.9
				c14.9-3.9,15.7-10.9,31.4-17.7c28.1-12.4,95-4.3,131.2-11.9c17.9-3.8-4.6-6.6,12.4-17.2c3.7-2.5,8-3.9,12.4-4.2
				c10.4-0.4,18.2,7.1,20.6,9.1c20.8,17.2,86-2.9,85.6-13.8c-0.5-13.8-105.6-22-170.2-22.7C176,351.4,26.7,388.5,27.9,412.1z"/>
		</g>
		<g id="graph_fill">
			<polygon class="st2" points="45.5,416.1 25.9,416.1 1,64.7 21.2,56.5 			"/>
		</g>
		<g id="graph_outlines">
			<polygon class="st3" points="21.2,54.9 45.5,415 469,346.8 469,172.4 			"/>
			<polyline class="st3" points="21.2,54.9 1,63.2 25.9,415 45.5,415 			"/>
			<line class="st3" x1="130.4" y1="83.5" x2="143.9" y2="399.2"/>
			<line class="st3" x1="219.6" y1="107" x2="229.8" y2="385.2"/>
			<line class="st3" x1="295.8" y1="127" x2="301.5" y2="373.7"/>
			<line class="st3" x1="362.7" y1="144.6" x2="362.7" y2="363.8"/>
			<line class="st3" x1="419.6" y1="159.4" x2="419.6" y2="354.7"/>
			<line class="st3" x1="24.8" y1="110" x2="469" y2="204.4"/>
			<line class="st3" x1="28.4" y1="162.9" x2="469" y2="238.3"/>
			<line class="st3" x1="31.9" y1="215.6" x2="469" y2="272.1"/>
			<line class="st3" x1="35.5" y1="268.4" x2="469" y2="304.1"/>
			<line class="st3" x1="39" y1="320" x2="469" y2="331.9"/>
		</g>
		<g id="blobs_fill">
			<path class="st4" d="M277.7,339.8l62.4-2l58.2-1.9c32.3-1,67.4-3.2,99.6-4.3c-4.2-2.4-7.5-5.8-11.6-8.2s-8.1-4.3-12-6.3
				c-1.8-0.9-3.5-1.9-5.6-3c-3.8-2.2-5.7-3.9-11.6-6.6c-16-1.6-35.2,0.4-50.6,0.3l-27.9-0.3c-10-0.1-19-1-29.8,0.4
				c-7.5,1.9-12.7,5.1-19,8l-9.6,4.3l-21.5,9.9L277.7,339.8z"/>
			
				<linearGradient id="SVGID_2_" gradientUnits="userSpaceOnUse" x1="385" y1="285.47" x2="499.4" y2="285.47" gradientTransform="matrix(1 0 0 -1 0 617.22)">
				<stop  offset="0" style="stop-color:#313390;stop-opacity:0"/>
				<stop  offset="1" style="stop-color:#05007F;stop-opacity:0.64"/>
			</linearGradient>
			<path class="st5" d="M499.4,332.1c-32.3,1-67.4,3.2-99.6,4.3l-14.8,0.5l106.7-10.3C494.2,328.5,496.7,330.4,499.4,332.1z"/>
			
				<linearGradient id="SVGID_3_" gradientUnits="userSpaceOnUse" x1="428.077" y1="281.7714" x2="475.527" y2="328.3864" gradientTransform="matrix(1 0 0 -1 0 617.22)">
				<stop  offset="0" style="stop-color:#313390;stop-opacity:0"/>
				<stop  offset="1" style="stop-color:#05007F;stop-opacity:0.64"/>
			</linearGradient>
			<path class="st6" d="M482.6,321.6l-66.5-14.1c13.3-0.4,28-1.4,40.5-0.1c6.1,2.7,7.9,4.4,11.6,6.6c1.9,1.1,3.8,2,5.6,3
				C476.8,318.6,479.6,319.9,482.6,321.6z"/>
			
				<linearGradient id="SVGID_4_" gradientUnits="userSpaceOnUse" x1="279" y1="293.02" x2="384.9" y2="293.02" gradientTransform="matrix(1 0 0 -1 0 617.22)">
				<stop  offset="0" style="stop-color:#FFFFFF"/>
				<stop  offset="1" style="stop-color:#FFFFFF;stop-opacity:0"/>
			</linearGradient>
			<path class="st7" d="M384.9,335.6c-6.1,0.3-12.2,0.4-18.2,0.6l-16.7,0.5c-23.7,0.8-47.3,1.5-71,2.2c8-3.5,16-7.1,23.9-10.8
				c8.2-3.7,16.3-7.3,24.6-11l10.9-4.9c2-0.9,3.8-1.8,5.7-2.7l22.8,14.4L384.9,335.6z"/>
			<path class="st4" d="M145,341.2l20.4-1.4c12.3-0.8,24.6-2.4,36.8-3.2l4.4-0.3l16-1l13.5-0.9l35.1-2.3l36.6-2.4l53.8-3.5h1
				l-52.7-8.9h-0.3c-12.2-0.5-24.3,0.5-36.5,0.8l-34.8,0.6c-4.4,0.1-9,0.1-13.4,0.4l-15.8,1l-4.3,0.3c-12.2,0.8-24.1,0.4-36.3,1.1
				c-6.7,0.4-12.3,0.6-19,3.5c-3.4,5.1-2.5,5.3-3,8.1L145,341.2z"/>
			
				<linearGradient id="SVGID_5_" gradientUnits="userSpaceOnUse" x1="145" y1="286.82" x2="222.6" y2="286.82" gradientTransform="matrix(1 0 0 -1 0 617.22)">
				<stop  offset="0" style="stop-color:#FFFFFF"/>
				<stop  offset="0.68" style="stop-color:#FFFFFF;stop-opacity:0"/>
			</linearGradient>
			<path class="st8" d="M222.6,334.7L222.6,334.7l-16,1l-4.4,0.3c-12.3,0.8-24.6,2.4-36.8,3.2l-20.4,1.4l1.4-8.2
				c0.5-2.9-0.3-3,3-8.1c6.7-2.9,12.3-3.2,19-3.5c8.2-0.5,16.3-0.5,24.4-0.6L222.6,334.7z"/>
			<path class="st4" d="M277.7,373.5h145.7c19.8,0,21.4,1.6,41.1,1.6H498v-43.4l-9.2,0.3c-2,0-23.3-0.4-25.3-0.3
				c-19.8,0.6-20.1,1.8-39.9,2.4l-50.6,1.6l-95.1,3L277.7,373.5L277.7,373.5z"/>
			<g class="st9">
				<path class="st10" d="M498.1,332.4c-9.2,0.5-18.4,0.1-27.6,0l-6.8-0.1c-2.3,0-4.6,0.1-6.8,0.3c-4.6,0.3-9.1,0.5-13.8,0.9
					c-9.1,0.9-18.4,1.1-27.5,1.4l-27.6,0.8L277.9,339l110.1-3.7l27.6-0.9c9.2-0.3,18.4-0.5,27.5-1.4c4.6-0.4,9.1-0.8,13.8-1
					c2.3-0.1,4.6-0.3,6.8-0.3h6.8c9.2,0,18.4,0.4,27.6-0.1V332.4z"/>
			</g>
			
				<linearGradient id="SVGID_6_" gradientUnits="userSpaceOnUse" x1="449.925" y1="263.82" x2="497.925" y2="263.82" gradientTransform="matrix(1 0 0 -1 0 617.22)">
				<stop  offset="0" style="stop-color:#313390;stop-opacity:0"/>
				<stop  offset="1" style="stop-color:#05007F;stop-opacity:0.64"/>
			</linearGradient>
			<path class="st11" d="M498,331.7v43.4h-33.4c-6.3,0-10.8-0.1-14.6-0.4v-42.4c3.4-0.3,7.6-0.5,13.4-0.6c2,0,23.3,0.4,25.3,0.3
				L498,331.7z"/>
			
				<linearGradient id="SVGID_7_" gradientUnits="userSpaceOnUse" x1="411.982" y1="262.42" x2="301.882" y2="262.42" gradientTransform="matrix(1 0 0 -1 0 617.22)">
				<stop  offset="0" style="stop-color:#313390;stop-opacity:0"/>
				<stop  offset="0.38" style="stop-color:#110E82;stop-opacity:0.47"/>
				<stop  offset="1" style="stop-color:#05007F;stop-opacity:0.64"/>
			</linearGradient>
			<path class="st12" d="M408.8,335.6V374H298.7v-34.8l95.1-3L408.8,335.6z"/>
			<path class="st4" d="M145,394.7c2.2-0.1,21.4,0.1,23.5,0L188,394c9.9-0.4,19.5-0.8,28.9-1.1l10.9-0.5l12.2-0.5
				c18.7-0.8,37.1-1.6,56.1-2.4c17-0.8,34.3-1.4,52.7-2l12.5-0.5l0.6-34.3l0.5-27.1h-11.8l-52.7,0.1l-32.3,0.1
				c-4.2,0-8.5,0.3-12.7,0.8c-5.7,0.8-6.1,0.8-11,1.4c-4.3,0.6-13.4,1.9-17.3,2.4c-3.5,0.5-10.6,0.6-14.1,1.1
				c-8.9,1.3-13.7,2.9-23.4,4.3c-6.1,0.9-12.7,1.8-19.9,2.7c-2.2,0.3-20.3,1.3-22.4,1.6L145,394.7L145,394.7z"/>
			<g class="st13">
				<path class="st4" d="M144.4,340.2c2.2-0.3,20.3-1.3,22.3-1.6c7.2-0.9,13.8-1.8,19.9-2.7c9.6-1.4,14.6-3,23.4-4.3
					c3.4-0.5,10.5-0.6,14.1-1.1c3.9-0.6,13-1.8,17.3-2.4c4.9-0.6,5.3-0.6,11-1.4c4.2-0.5,8.4-0.8,12.7-0.8h32.3l52.7-0.1h11.8"/>
				<path class="st10" d="M144.2,339.7c4.6-0.4,9.1-0.6,13.7-0.9l6.8-0.5c2.3-0.1,4.6-0.5,6.7-0.8c9-1.3,18.1-2,27-4.1
					c4.4-1,9-1.8,13.4-2.4c4.6-0.4,9.1-0.4,13.5-1.1c9-1.3,18-2.5,27.1-3.5c4.5-0.5,9.1-0.8,13.7-0.8h95.7l-54.6,0.3l-27.3,0.1
					h-13.7c-4.5,0-9,0.3-13.5,0.8c-9,1.1-18.1,2.4-27.1,3.7c-4.6,0.8-9.1,0.8-13.7,1.1c-4.5,0.5-9,1.3-13.4,2.4
					c-8.9,2-18,2.9-27,4.2c-2.3,0.3-4.6,0.6-6.8,0.8l-6.8,0.5c-4.6,0.4-9.1,0.6-13.5,1L144.2,339.7z"/>
			</g>
			
				<linearGradient id="SVGID_8_" gradientUnits="userSpaceOnUse" x1="319.892" y1="260.02" x2="362.861" y2="260.02" gradientTransform="matrix(1 0 0 -1 0 617.22)">
				<stop  offset="0" style="stop-color:#313390;stop-opacity:0"/>
				<stop  offset="1" style="stop-color:#05007F;stop-opacity:0.64"/>
			</linearGradient>
			<path class="st14" d="M362.9,325.7l-0.5,27.1c-0.3,11.4,0.5,22.8,0.3,34.3c-4.3,0.1-9.4,0.3-13.4,0.5c-10,0.4-19.7,0.8-29.2,1.1
				V326h31.1L362.9,325.7z"/>
			
				<linearGradient id="SVGID_9_" gradientUnits="userSpaceOnUse" x1="208.166" y1="256.87" x2="242.906" y2="256.87" gradientTransform="matrix(1 0 0 -1 0 617.22)">
				<stop  offset="0" style="stop-color:#FFFFFF;stop-opacity:0"/>
				<stop  offset="0.1" style="stop-color:#FFFFFF;stop-opacity:2.000000e-02"/>
				<stop  offset="0.21" style="stop-color:#FFFFFF;stop-opacity:7.000000e-02"/>
				<stop  offset="0.32" style="stop-color:#FFFFFF;stop-opacity:0.15"/>
				<stop  offset="0.43" style="stop-color:#FFFFFF;stop-opacity:0.26"/>
				<stop  offset="0.54" style="stop-color:#FFFFFF;stop-opacity:0.41"/>
				<stop  offset="0.54" style="stop-color:#FFFFFF;stop-opacity:0.42"/>
				<stop  offset="0.63" style="stop-color:#FFFFFF;stop-opacity:0.36"/>
				<stop  offset="0.81" style="stop-color:#FFFFFF;stop-opacity:0.2"/>
				<stop  offset="1" style="stop-color:#FFFFFF;stop-opacity:0"/>
			</linearGradient>
			<path class="st15" d="M247.9,328.4v62.5l-32.2,1.3l-2.5,0.1v-61.1l4.7-0.6c4.9-0.6,5.3-0.6,11-1.4c4.2-0.5,8.4-0.8,12.7-0.8
				H247.9z"/>
			
				<linearGradient id="SVGID_10_" gradientUnits="userSpaceOnUse" x1="195.8806" y1="232.929" x2="152.8616" y2="285.786" gradientTransform="matrix(1 0 0 -1 0 617.22)">
				<stop  offset="0.45" style="stop-color:#313390;stop-opacity:0"/>
				<stop  offset="1" style="stop-color:#05007F;stop-opacity:0.64"/>
			</linearGradient>
			<path class="st16" d="M213.1,331.8v61.7c-8.2,0.4-16.6,0.6-25.2,1l-19.5,0.8c-2.2,0.1-21.4-0.1-23.5,0v-54.6
				c2.2-0.3,20.3-1.3,22.3-1.6c7.2-0.9,13.8-1.8,19.9-2.7c9.6-1.4,14.6-3,23.4-4.3C211.3,331.9,212.2,331.8,213.1,331.8z"/>
			<path class="st4" d="M22.9,379.5c3.9-0.4,9.1-0.8,13-1.1c12.7-1.3,27.7-2.5,40.4-3.8l108.8-10.8c0.4,0,0.7-0.1,1-0.3
				c0.9-0.4,0.5-1.4-0.3-1.6c-1-0.4-2.1-0.6-3.2-0.8l-46.2-13c-2.4-0.6-4.8-0.9-7.2-0.8l-34.4,2.3l-31.3,2.2l-9.6,0.6l-13.3,12.3
				c-3.7,3.3-9.7,6.7-13.4,10.1c-1.3,1.1-3.7,2.3-4.9,3.4c-0.3,0.3-0.3,0.8,0,1.1C22.5,379.5,22.7,379.6,22.9,379.5z"/>
			
				<linearGradient id="SVGID_11_" gradientUnits="userSpaceOnUse" x1="141.8" y1="255.52" x2="188.4913" y2="255.52" gradientTransform="matrix(1 0 0 -1 0 617.22)">
				<stop  offset="0" style="stop-color:#313390;stop-opacity:0"/>
				<stop  offset="1" style="stop-color:#05007F;stop-opacity:0.64"/>
			</linearGradient>
			<path class="st17" d="M188,363.5c-0.3,0.1-0.7,0.2-1,0.3l-45.2,4.6l20.5-13.4l22.3,6.3c1.1,0.1,2.1,0.4,3.2,0.8
				C188.4,362.2,188.9,363.1,188,363.5z"/>
			<path class="st4" d="M27.6,413.3c2.2,2.2,4.9,1.6,7.7,1.5l141.7-8.2l9.1-0.5c2.2-0.1,3.9-2,3.9-4.2v-35.6c0-2.2-1.7-4-3.9-4.1
				H186h-0.4l-1.9,0.1c-48.6,4.4-99.8,8.9-148.4,13.3c-2.9,0.3-7,0.5-9.9,0.8c-1.9,0.2-3.4,1.8-3.4,3.8c0,5.3,1.3,10.6,1.3,16
				c0,4.3,1.3,8.6,1.3,12.9C24.6,410.8,26.5,412.2,27.6,413.3z"/>
			
				<linearGradient id="SVGID_12_" gradientUnits="userSpaceOnUse" x1="136.497" y1="231.6784" x2="190.051" y2="231.6784" gradientTransform="matrix(1 0 0 -1 0 617.22)">
				<stop  offset="0" style="stop-color:#313390;stop-opacity:0"/>
				<stop  offset="1" style="stop-color:#05007F;stop-opacity:0.64"/>
			</linearGradient>
			<path class="st18" d="M190.1,366.2v35.6c0,2.2-1.7,4-3.9,4.2l-9,0.5l-40.5,2.4v-42.3l47.2-4.3l1.9-0.1c2.2-0.2,4.2,1.4,4.4,3.6
				v0.1C189.9,366.1,190.1,366.1,190.1,366.2z"/>
			
				<linearGradient id="SVGID_13_" gradientUnits="userSpaceOnUse" x1="22.0614" y1="221.3011" x2="43.6214" y2="221.3011" gradientTransform="matrix(1 0 0 -1 0 617.22)">
				<stop  offset="0" style="stop-color:#FFFFFF"/>
				<stop  offset="1" style="stop-color:#FFFFFF;stop-opacity:0"/>
			</linearGradient>
			<path class="st19" d="M41.1,376.5l2.5,38.4l-5.6,0.3c-1.1,0-2.2,0.1-3.3,0.1c-2.4,0.2-4.7-0.4-6.7-1.6c-1.4-1-3.4-2.5-3.4-4.1
				l-2.5-28.5c0-0.5,0.1-1,0.4-1.4c0.1-0.3,0.3-0.4,0.4-0.6s0.4-0.4,0.5-0.5s0.3-0.1,0.3-0.3c1.3-0.6,2.6-0.9,4.1-1l4.6-0.3l6.5-0.5
				C39.4,376.6,40.3,376.6,41.1,376.5z"/>
			
				<linearGradient id="SVGID_14_" gradientUnits="userSpaceOnUse" x1="13.2656" y1="211.3537" x2="134.3216" y2="271.7807" gradientTransform="matrix(1 0 0 -1 0 617.22)">
				<stop  offset="0" style="stop-color:#FFFFFF"/>
				<stop  offset="1" style="stop-color:#FFFFFF;stop-opacity:0"/>
			</linearGradient>
			<path class="st20" d="M157.5,366.1l-81.3,8.1c-12.7,1.3-27.7,2.5-40.4,3.8c-3.9,0.4-9.1,0.8-13,1.1c-0.4,0-0.7-0.3-0.8-0.6l0,0
				c0-0.2,0.1-0.5,0.3-0.6c1.3-1.1,3.7-2.3,4.9-3.4c3.7-3.3,9.7-6.7,13.4-10.1l10.4-9.6L157.5,366.1z"/>
			<g class="st21">
				<polygon class="st10" points="22.3,377.9 188,363.5 22.3,378.5 				"/>
			</g>
			
				<linearGradient id="SVGID_15_" gradientUnits="userSpaceOnUse" x1="308.0578" y1="287.9136" x2="318.5778" y2="309.8916" gradientTransform="matrix(1 0 0 -1 0 617.22)">
				<stop  offset="0" style="stop-color:#313390;stop-opacity:0"/>
				<stop  offset="1" style="stop-color:#05007F;stop-opacity:0.64"/>
			</linearGradient>
			<path class="st22" d="M325.5,319.7l-18.1,9.7H307l-3.8,0.3l-2-12.9c2.7,0,5.2,0,7.9,0.1h0.3L325.5,319.7z"/>
			
				<linearGradient id="SVGID_16_" gradientUnits="userSpaceOnUse" x1="368.847" y1="294.2538" x2="314.522" y2="291.4818" gradientTransform="matrix(1 0 0 -1 0 617.22)">
				<stop  offset="0" style="stop-color:#FFFFFF"/>
				<stop  offset="0.87" style="stop-color:#FFFFFF;stop-opacity:0"/>
			</linearGradient>
			<path class="st23" d="M361.6,327h-1l-53.4,3.5l18.1-9.7l0,0C337.4,323,349.5,325,361.6,327z"/>
		</g>
		<g id="shadow">
			<polygon class="st24" points="97.3,361.7 141.6,353.2 118.4,349.8 110.3,349.8 			"/>
			<polygon class="st25" points="147.4,340.4 176.5,340.9 174.1,357.9 147.4,350.7 			"/>
			<polygon class="st26" points="323.8,319.7 348.1,312.4 348.1,312.4 348.2,312.4 369.1,312.8 369.1,312.8 376.7,310.9 
				369.1,313.1 369.1,313.1 369.1,313.1 348.1,313.1 347.8,313.2 325.4,319.9 			"/>
			<polygon class="st27" points="147.4,340.4 176.5,340.9 283.7,324 297.2,328.4 324.8,319.8 323,319.5 297.7,325.7 283.9,321.8 			
				"/>
		</g>
		<g id="outline">
			<path class="st28" d="M24.2,407.1L1,63.2l20-8.4l376.3,98.6l72.2,19.1l-0.5,140l25.6,14.9c2.3,1.3,3.7,3.7,3.7,6.3v37.1
				c0,2.4-1.9,4.3-4.2,4.3c0,0,0,0-0.1,0h-0.1l-44.3-0.8l-27-0.8h-59l-0.1,9.6c-0.1,2.2-1.8,4-4.1,4.1l-57.1,2.2l-69.5,3l-42,1.4
				v7.5c0,2.9-1,5.3-4.1,5.4l-21.6,0.8L45.5,415l-10.9,1c-5.2,0.5-9.8-3.3-10.4-8.5l0,0C24.2,407.5,24.2,407.3,24.2,407.1z"/>
		</g>
		<g id="guy">
			
				<linearGradient id="SVGID_17_" gradientUnits="userSpaceOnUse" x1="389.786" y1="332.72" x2="441.009" y2="332.72" gradientTransform="matrix(1 0 0 -1 0 617.22)">
				<stop  offset="0" style="stop-color:#FFFFFF"/>
				<stop  offset="0.37" style="stop-color:#FBFBFB"/>
				<stop  offset="0.51" style="stop-color:#F4F4F4"/>
				<stop  offset="0.6" style="stop-color:#E9E9E9"/>
				<stop  offset="0.68" style="stop-color:#D8D8D8"/>
				<stop  offset="0.75" style="stop-color:#C2C2C2"/>
				<stop  offset="0.8" style="stop-color:#A6A6A6"/>
				<stop  offset="0.86" style="stop-color:#868686"/>
				<stop  offset="0.91" style="stop-color:#626262"/>
				<stop  offset="0.95" style="stop-color:#373737"/>
				<stop  offset="0.99" style="stop-color:#090909"/>
				<stop  offset="1" style="stop-color:#000000"/>
			</linearGradient>
			<path class="st29" d="M393.9,284.6c0,0.6-3,23.9-3,23.9l28,8.7l12-21.7c0,0,5.7-20.8,6.1-21.3s-2.7-10.4-2.7-10.4l-5.3-8.3
				l-13.9-3.7c0,0-12.2,2.7-12.7,2.8s-9.4,5.6-10.1,6.7s-2.7,10-2.5,11.9S393.9,284.6,393.9,284.6z"/>
			<path d="M400.1,391.3c0,0,1.1,9.1-3.8,15.7c-1.5,2,0,2.9,0,2.9l7.3-1l2.2-2.9c0.5-0.8,0.8-1.7,0.9-2.7l0,0c0-2.1,1.1-4.1,2.9-5.2
				l3-1.9V395c0-1.8-0.9-3.5-2.4-4.6l-2.3-1.5"/>
			<path d="M436,388.9c0,0,2.5,8.6,1.8,10.5s-0.4,9.9,3.9,11.9c2.6,1.2,5.6,0.6,7.6-1.4c0.3-3.3-0.4-6.6-1.9-9.5
				c-2.5-4.4-2.9-11.5-2.9-11.5"/>
			<path d="M391.1,305.7c0,0,5.3,9,21.8,6.5s19.1-5.7,19.1-5.7l-2.8,17.5l3.8,29.5c0,0,9.5,19.1,9.6,28.4c0,0,3.7,7.3,4.7,7.3
				s-4.7,4.7-4.7,4.7h-9.7l-1-15.2c0,0-8.7-11.1-9-18.5s-10.1-25.3-10.1-25.3l-4.4-5.2l-3.4,33.9l2,22.2l2.5,6.8l-3.3,1.4l-10.4,3.2
				l-0.1-31l-2.2-17.1l-3.9-23.9L391.1,305.7z"/>
			<g class="st30">
				
					<linearGradient id="SVGID_18_" gradientUnits="userSpaceOnUse" x1="405.8167" y1="191.672" x2="405.8167" y2="153.223" gradientTransform="matrix(1 0 0 -1 0 617.22)">
					<stop  offset="0" style="stop-color:#000000"/>
					<stop  offset="1" style="stop-color:#030709;stop-opacity:0"/>
				</linearGradient>
				<path class="st31" d="M412,445.1l-2.3,1.5l3.3,1.4l-2.5,6.8l-0.9,9.2l-10.4-0.5l0.1-20l2.4,0.8c0,0,1.1-9.1-3.8-15.7
					c-1.5-2,0-2.9,0-2.9l7.5,1l2.2,2.9c0.5,0.8,0.8,1.7,0.9,2.7c0,2.1,1.1,4.1,2.9,5.2l3,1.9v1.3C414.4,442.5,413.5,444.2,412,445.1
					z"/>
				
					<linearGradient id="SVGID_19_" gradientUnits="userSpaceOnUse" x1="442.0341" y1="193.647" x2="442.0341" y2="151.4313" gradientTransform="matrix(1 0 0 -1 0 617.22)">
					<stop  offset="0" style="stop-color:#000000"/>
					<stop  offset="1" style="stop-color:#030709;stop-opacity:0"/>
				</linearGradient>
				<path class="st32" d="M450.9,451.3c-1,0-4.7,7.3-4.7,7.3c-0.2,2.4-0.6,4.8-1.3,7.1l-11.9-0.6c1.4-2,2.4-3.4,2.4-3.4l1-15.2h1.4
					c0,0,2.5-8.6,1.8-10.5s-0.4-10,3.9-11.9c2.5-1.2,5.5-0.6,7.5,1.4c0.3,3.3-0.4,6.6-1.9,9.5c-2.5,4.4-2.9,11.5-2.9,11.5
					S451.9,451.3,450.9,451.3z"/>
			</g>
			<path d="M397.8,214.2h5.2l0.4-8.2c0.4-0.2,0.7-0.6,0.9-1c0.1-0.3-0.1-1.1,0-1.4c0.2-0.4,0.4-0.9,0.5-1.4c0.1-0.6,0.1-1.3,0-1.9
				c0.1-0.3-4.2-1.3-5.6-1.1c-0.4,0-1.1,0.9-1.5,1.5c-0.3,0.4-0.4,0.8-0.3,1.3l1.9,6.2L397.8,214.2z"/>
			<path class="st10" d="M404.5,216.5l-8.2-0.1l-0.5-3.4l1.6-1.3c-0.3,5.3,6.8,1.1,6.5,0.8l0.3-0.8l0.3,0.4l0.4,1.6L404.5,216.5z"/>
			<path d="M467.1,301.7c-1.4-0.1-2.8-0.7-3.9-1.5l-2.3-0.1l-2.8-2l-2.3,1.8c0.3,1,0.8,1.9,1.4,2.7c0.6,1,1.3,2.2,1.8,3.2l4.3,3.3
				l1.8,0.1l1-0.5l-0.3-1.5l-0.4-0.8l-0.8-2.3l-1.3-1.8c0.1-0.5,0.5-0.3,0.5-0.3l2.3,0.4c0.3,0,0.4-0.1,0.6-0.3
				S467.2,301.7,467.1,301.7z"/>
			<path class="st10" d="M455.7,301.4l-2.8-2.2l5.7-2.3l0.9,1.6h-0.4c-0.9-0.1-1.8,0.1-2.5,0.8c-0.5,0.5-0.6,1.2-0.4,1.9
				c0.1,0.5,0.9,0.5,0.8,0.8v0.4L455.7,301.4z"/>
			<path d="M416.3,255.9l-2.9-0.9v4.2c0,0.7-0.5,1.2-1.1,1.4l-13.9,7.8c-1.1,0.3-3.5,5.3-3.7,6.5c-0.5,5.2-1.3,13.5-0.3,14.7
				c1.4,1.4-1.8,4.9-1.8,4.9s-11.9-23.2-24.4-28.7c-4-1.9-8.2-3.3-12.5-4.3c-0.8-0.1-1.3-0.9-1.1-1.6c0-0.2,0.1-0.5,0.3-0.6
				c1.9-2.5,5.2-6.5,6.3-6.7c5.1-1.3,28.9-0.3,33.2,0c0.3,0,0.6-0.2,0.6-0.6c0,0,0,0,0-0.1l0,0l-0.1-2.3c-0.1-2,0.1-4.1,0.4-6.1
				l1-3.4c0.3-1.1,0.3-2.3-0.1-3.4l-0.6-1.6c-0.3-1.1,0.8-2.8,1.1-4.2l0.1-1.5l-0.8-16.5l1.6-1.1c0,0-4.2,6.7,5.3,4.2
				c1.1-0.3,2-1.1,2.4-2.2c0.4-1.3-1.5-2-0.8-2l2.2,17.2l2.3,12l0.6,2.2v1.4l0.1,0.6c0,0,7.5,0.5,7.5,6.2L416.3,255.9z"/>
			<path d="M429.5,260.3c0.1,0.4,2.3,5.8,2.4,6.2c1.1,2.4,4.1,13.3-0.8,14.9c-5.4,1.8-5.1,6.6-5.1,9.7s-0.1,16.7-6.2,16.6
				s-1.5,8.2-1.5,8.2s18,11.5,17.9,10.1c-1-9,2.7-9.5,0.3-20.8c-2.5-11.6,6.8-10.8,6.8-10.8l4.9,2.2l1.8,0.5
				c1.6,0.6,3.4,2.5,4.6,4.1l3,1.1c-0.5-0.1-0.9-0.4-1.1-0.8c-0.7-0.7-0.9-1.7-0.5-2.7c0.4-0.6,1.8-1.1,2.8-1.4c0.5-0.1,1,0.9,1,0.9
				l-0.5-1.6l-2.9-1.5c-1.8-0.9-3.7-2.3-4.2-4.2l-2.7-4.6l-1.3-1.6l-4.1-5.4c0,0-0.1-7.5-3-9.4c-3.5-2.2-10.9-12.2-10.9-12.2
				L429.5,260.3z"/>
			<path d="M434.3,254.2c-0.8,1.6,1.8-5.2,1.5-7c-0.1-1.5-3.4-6.7-4.6-6.8c-2-0.3-3.8-1.3-8.6,0.6c-1.2,0.7-2.3,1.5-3.2,2.5
				c-1.5,2.8-2.7,5.8-3.3,8.9c-0.1,1.4,0.8,3.3,1,4.8c0.2,1.4,1.2,2.6,2.5,3l1.4,0.4c1.7,0.5,3.5,0.6,5.2,0.1l0,0
				C431.4,259.6,434.8,253.2,434.3,254.2z"/>
			<path d="M416,261.4l-0.5,3.7l-5.6,1.5c0,0-2.4,6-20.9,14.3l-2,7.6l7.1,0.3c0,0,19.6-14.8,20.3-18.6l1.4-4.8l4.4-1.5
				c0.1,0,0.1-0.1,0.1-0.3c0-0.1-0.1-0.1-0.1-0.1l0,0l-4.1-2.2C416.1,261.3,416,261.4,416,261.4L416,261.4L416,261.4z"/>
		</g>
		<g id="arrow">
			<polyline class="st33" points="47.5,361.3 287,210.1 301,227.2 342.2,168.6 388.2,171.9 405.8,148.7 410.1,148.9 389.5,177.7 
				345.8,173.2 301.3,247.2 283.9,222.8 101.2,362.3 			"/>
			<polygon class="st33" points="100.3,360 283.6,222.3 284.1,221.9 284.4,222.4 301.9,246.7 301,246.7 345.7,173.1 345.8,172.8 
				345.9,172.9 389.5,177.6 389.3,177.6 410.1,148.9 389.5,177.9 389.5,177.9 389.5,177.9 345.9,173.3 346,173.2 301.9,247.2 
				301.5,247.9 301,247.4 283.5,223.1 284.3,223.2 101.8,362.1 			"/>
			<polygon class="st33" points="101.9,362.3 56,361.4 101.9,359.8 			"/>
			<polyline class="st33" points="413.3,140.4 423.9,151.9 393.6,147.9 			"/>
		</g>
	</g>
</g>
<g>
	<g>
		<path class="st10" d="M116.6,35.8v5h9.7v4.8h-9.7v9.1h-6.2V31.1h18.3v4.8h-12.1V35.8z"/>
		<path class="st10" d="M142,46.1h-3.7v8.7h-6V31.1h11.3c5.7,0,8.9,2.7,8.9,7.6c0,3.5-1.6,5.8-4.6,6.9l6,9.3h-6.8L142,46.1z
			 M138.4,41.7h4.2c2.6,0,3.8-0.9,3.8-3s-1.1-3-3.8-3h-4.2V41.7z"/>
		<path class="st10" d="M175.8,50v4.8H157V31.1h18.4v4.8h-12.2v4.8h9.7v4.5h-9.7V50H175.8z"/>
		<path class="st10" d="M198.4,50v4.8h-18.8V31.1H198v4.8h-12.2v4.8h9.7v4.5h-9.7V50H198.4z"/>
		<path class="st10" d="M232.3,38.9c0,4.9-3.3,7.6-9.1,7.6h-4.7v8.2h-6.2V31.1h10.8C229,31.1,232.3,33.8,232.3,38.9z M226.1,38.9
			c0-2.1-1.2-3.1-3.9-3.1h-3.7V42h3.7C224.9,42,226.1,41,226.1,38.9z"/>
		<path class="st10" d="M245.9,46.1h-3.7v8.7h-6V31.1h11.3c5.7,0,8.9,2.7,8.9,7.6c0,3.5-1.6,5.8-4.6,6.9l6,9.3H251L245.9,46.1z
			 M242.2,41.7h4.2c2.6,0,3.8-0.9,3.8-3s-1.1-3-3.8-3h-4.2V41.7z"/>
		<path class="st10" d="M282.7,42.9c0,7.7-4.4,12.2-11.6,12.2s-11.6-4.6-11.6-12.2s4.4-12.2,11.6-12.2
			C278.4,30.7,282.7,35.3,282.7,42.9z M265.9,42.9c0,4.9,1.9,7.4,5.3,7.4s5.3-2.5,5.3-7.4s-1.9-7.4-5.3-7.4
			C267.7,35.5,265.9,38.1,265.9,42.9z"/>
		<path class="st10" d="M308.1,42v12.9h-4.3l-0.2-2.8c-1.3,2-3.5,3.1-6.8,3.1c-6.4,0-11-4.3-11-12.2c0-7.7,4.5-12.3,11.8-12.3
			c5.4,0,8.5,1.8,10.4,6.1l-5.7,2.3c-0.6-2.4-2.3-3.5-4.5-3.5c-3.6,0-5.6,2.5-5.6,7.4c0,5.1,2,7.5,5.8,7.5c2.8,0,4.9-1.3,4.9-3.9
			v-0.4H297V42H308.1z"/>
		<path class="st10" d="M322.5,46.1h-3.7v8.7h-6V31.1h11.3c5.7,0,8.9,2.7,8.9,7.6c0,3.5-1.6,5.8-4.6,6.9l6,9.3h-6.8L322.5,46.1z
			 M318.8,41.7h4.2c2.6,0,3.8-0.9,3.8-3s-1.1-3-3.8-3h-4.2V41.7z"/>
		<path class="st10" d="M351,49.4h-8.2l-1.6,5.4H335l8.3-23.8h7.4l8.3,23.8h-6.3L351,49.4z M349.7,45.2l-1.7-5.7l-1-3.7h-0.1l-1,3.7
			l-1.8,5.7H349.7z"/>
		<path class="st10" d="M389,54.8h-5.4V43.9l0.2-7.3h-0.1l-5.8,18.2h-5L367,36.6h-0.1l0.2,7.3v10.9h-5.5V31.1h8.8l3.7,12.1l1.3,5
			h0.1l1.4-5l3.7-12.1h8.4V54.8z"/>
	</g>
</g>
<g>
	<path class="st10" d="M72,453.3h-8.2l-1.6,5.4H56l8.3-23.8h7.4l8.3,23.8h-6.3L72,453.3z M70.8,449.1l-1.7-5.7l-1-3.7H68l-1,3.7
		l-1.8,5.7H70.8z"/>
	<path class="st10" d="M80.9,455.8l3.1-3.5c1.1,1.8,3,2.6,5.3,2.6c1.7,0,2.7-0.5,2.7-1.3c0-0.7-0.9-1.1-3.3-1.6
		c-5.4-1.1-7.4-2.8-7.4-5.8s2.8-6,8.6-6c4.3,0,6.7,1.3,8.2,3.4l-3.1,3.1c-1.1-1.7-2.7-2.4-4.9-2.4c-1.8,0-2.7,0.6-2.7,1.4
		c0,0.7,0.8,1.2,3.3,1.7c5.3,0.9,7.4,2.6,7.4,5.7c0,3.3-2.8,5.9-8.5,5.9C85.7,459,82.7,458.1,80.9,455.8z"/>
	<path class="st10" d="M110.2,451.2l-2.9,3.2v4.1h-6.1V433h6.1v15.2l6.8-7.6h6.7l-6.6,7.1l7,10.9h-6.7L110.2,451.2z"/>
	<path class="st10" d="M146.4,453.3h-8.2l-1.6,5.4h-6.2l8.3-23.8h7.4l8.3,23.8H148L146.4,453.3z M145.1,449.1l-1.7-5.7l-1-3.7h-0.1
		l-1,3.7l-1.8,5.7H145.1z"/>
	<path class="st10" d="M175.5,449.7c0,5.9-2.7,9.3-7.4,9.3c-2.9,0-5-1.7-6-4.2l-0.2,3.8h-5.3V433h6.1v10.6c1-2,2.8-3.3,5.4-3.3
		C172.7,440.3,175.5,443.7,175.5,449.7z M169.4,449.6c0-3.4-1.3-4.9-3.4-4.9c-2.1,0-3.3,1.7-3.3,4.7v0.4c0,3.1,1.3,4.7,3.3,4.7
		C168.1,454.5,169.4,453,169.4,449.6z"/>
	<path class="st10" d="M197.1,449.6c0,5.9-3.5,9.4-9.4,9.4c-6,0-9.4-3.5-9.4-9.4s3.5-9.4,9.4-9.4
		C193.7,440.3,197.1,443.7,197.1,449.6z M184.3,449.6c0,3.5,1.1,5,3.4,5c2.3,0,3.4-1.5,3.4-5s-1.1-5-3.4-5
		C185.4,444.6,184.3,446.1,184.3,449.6z"/>
	<path class="st10" d="M218.4,440.6v18H213l-0.2-3.3c-1.1,2.5-3.3,3.7-6.2,3.7c-3.6,0-6.1-1.8-6.1-6.3v-12h6.1v10.5
		c0,2.4,0.9,3.2,2.5,3.2c1.9,0,3.3-1.3,3.3-4.1v-9.5h6V440.6z"/>
	<path class="st10" d="M235.8,457.6c-1.2,0.8-3.2,1.4-5,1.4c-4,0-6.5-1.6-6.6-5.8V445h-3.1v-4.4h3.1v-4l6.1-1.7v5.7h5.4v4.4h-5.4
		v7.2c0,1.7,0.9,2.4,2.4,2.4c1.1,0,1.9-0.3,2.6-0.8L235.8,457.6z"/>
	<path class="st10" d="M255.2,439.7v5h9.7v4.8h-9.7v9.1H249v-23.8h18.3v4.8h-12.1V439.7z"/>
	<path class="st10" d="M282.9,440.7l-0.6,5.2c-0.5-0.3-1.3-0.5-2.3-0.5c-2.1,0-4,1.4-4,4.2v9.1h-6.1v-18h5.4l0.2,3.9
		c0.9-2.7,2.6-4.2,5.4-4.2C281.9,440.3,282.5,440.5,282.9,440.7z"/>
	<path class="st10" d="M302.3,451.4h-12.2c0.4,2.3,1.7,3.3,3.8,3.3c1.8,0,2.9-0.7,3.3-2l4.9,1.6c-1,3.1-4.1,4.7-8.2,4.7
		c-6.3,0-9.7-3.4-9.7-9.4s3.4-9.4,9.3-9.4c5.8,0,8.9,3.4,8.9,9.1C302.5,450,302.4,450.9,302.3,451.4z M290.1,448.1h6.7
		c-0.3-2.3-1.4-3.5-3.3-3.5C291.6,444.6,290.4,445.6,290.1,448.1z"/>
	<path class="st10" d="M323.1,451.4h-12.2c0.4,2.3,1.7,3.3,3.8,3.3c1.8,0,2.9-0.7,3.3-2l4.9,1.6c-1,3.1-4.1,4.7-8.2,4.7
		c-6.3,0-9.7-3.4-9.7-9.4s3.4-9.4,9.3-9.4c5.8,0,8.9,3.4,8.9,9.1C323.3,450,323.2,450.9,323.1,451.4z M310.9,448.1h6.7
		c-0.3-2.3-1.4-3.5-3.3-3.5C312.4,444.6,311.2,445.6,310.9,448.1z"/>
	<path class="st10" d="M347.9,459c-7.2,0-11.6-4.6-11.6-12.2s4.4-12.2,11.6-12.2c4.9,0,8.9,2.1,10.1,6.6l-5.4,2.2
		c-0.7-3-2-3.9-4.5-3.9c-3.4,0-5.5,2.5-5.5,7.4c0,4.8,1.9,7.4,5.4,7.4c2.6,0,4.1-1.2,4.7-3.9l5.6,1.6
		C356.9,456.8,352.9,459,347.9,459z"/>
	<path class="st10" d="M374.3,440.7l-0.6,5.2c-0.5-0.3-1.3-0.5-2.3-0.5c-2.1,0-4,1.4-4,4.2v9.1h-6.1v-18h5.4l0.2,3.9
		c0.9-2.7,2.6-4.2,5.4-4.2C373.2,440.3,373.9,440.5,374.3,440.7z"/>
	<path class="st10" d="M393.7,451.4h-12.2c0.4,2.3,1.7,3.3,3.8,3.3c1.8,0,2.9-0.7,3.3-2l4.9,1.6c-1,3.1-4.1,4.7-8.2,4.7
		c-6.3,0-9.7-3.4-9.7-9.4s3.4-9.4,9.3-9.4c5.8,0,8.9,3.4,8.9,9.1C393.9,450,393.8,450.9,393.7,451.4z M381.5,448.1h6.7
		c-0.3-2.3-1.4-3.5-3.3-3.5C383,444.6,381.8,445.6,381.5,448.1z"/>
	<path class="st10" d="M415.4,433v25.6h-5.5l-0.2-3.4c-1,2.3-3,3.8-5.8,3.8c-4.6,0-7.4-3.4-7.4-9.3c0-6,2.8-9.4,7.4-9.4
		c2.6,0,4.5,1.4,5.4,3.4V433H415.4z M409.3,449.8L409.3,449.8v-0.4v0.1c0-3-1.2-4.7-3.3-4.7c-2.1,0-3.4,1.5-3.4,4.9s1.3,4.9,3.4,4.9
		C408,454.5,409.3,452.9,409.3,449.8z"/>
	<path class="st10" d="M419.2,435.6c0-2.1,1.1-3,3.5-3s3.5,0.9,3.5,3c0,2-1.1,2.9-3.5,2.9S419.2,437.6,419.2,435.6z M425.8,458.6
		h-6.1v-18h6.1V458.6z"/>
	<path class="st10" d="M443.1,457.6c-1.2,0.8-3.2,1.4-5,1.4c-4,0-6.5-1.6-6.6-5.8V445h-3.1v-4.4h3.1v-4l6.1-1.7v5.7h5.4v4.4h-5.4
		v7.2c0,1.7,0.9,2.4,2.4,2.4c1.1,0,1.9-0.3,2.6-0.8L443.1,457.6z"/>
	<path class="st10" d="M125.1,484.2h-3.7v8.7h-6v-23.8h11.3c5.7,0,8.9,2.7,8.9,7.6c0,3.5-1.6,5.8-4.6,6.9l6,9.3h-6.8L125.1,484.2z
		 M121.4,479.8h4.2c2.6,0,3.8-0.9,3.8-3s-1.1-3-3.8-3h-4.2C121.4,473.8,121.4,479.8,121.4,479.8z"/>
	<path class="st10" d="M156.6,485.6h-12.2c0.4,2.3,1.7,3.3,3.8,3.3c1.8,0,2.9-0.7,3.3-2l4.9,1.6c-1,3.1-4.1,4.7-8.2,4.7
		c-6.3,0-9.7-3.4-9.7-9.4s3.4-9.4,9.3-9.4c5.8,0,8.9,3.4,8.9,9.1C156.7,484.2,156.7,485.1,156.6,485.6z M144.4,482.3h6.7
		c-0.3-2.3-1.4-3.5-3.3-3.5C145.8,478.8,144.7,479.8,144.4,482.3z"/>
	<path class="st10" d="M179,483.8c0,6-2.8,9.4-7.4,9.4c-2.6,0-4.4-1.3-5.4-3.3v10.5h-6.1v-25.6h5.3l0.2,3.8c1-2.5,3-4.2,6-4.2
		C176.3,474.5,179,477.9,179,483.8z M172.9,483.8c0-3.4-1.3-4.9-3.4-4.9c-2,0-3.3,1.6-3.3,4.7v0.4c0,3,1.2,4.7,3.3,4.7
		S172.9,487.2,172.9,483.8z"/>
	<path class="st10" d="M200.8,489.2l-0.5,3.4c-0.7,0.4-1.5,0.6-2.4,0.6c-2.4,0-4.1-0.8-4.6-2.8c-1,1.7-3.1,2.8-6.4,2.8
		c-3.5,0-5.5-1.6-5.5-4.5c0-3,1.9-4.9,7-5.9l4-0.8v-0.6c0-1.6-0.9-2.7-2.5-2.7c-1.7,0-3,0.7-3.3,2.8l-4.9-1.4
		c0.6-3.4,3.4-5.5,8.3-5.5c5.5,0,8.5,2.3,8.5,6.9v6.6c0,0.9,0.4,1.4,1.3,1.4C200.1,489.3,200.5,489.3,200.8,489.2z M192.4,486.7
		v-1.5l-2.9,0.7c-1.5,0.4-2.1,0.9-2.1,1.9s0.6,1.5,1.8,1.5C190.6,489.2,192.4,488.3,192.4,486.7z"/>
	<path class="st10" d="M202.7,469.8c0-2.1,1.1-3,3.5-3c2.5,0,3.5,0.9,3.5,3c0,2-1.1,2.9-3.5,2.9
		C203.8,472.7,202.7,471.8,202.7,469.8z M209.3,492.8h-6.1v-18h6.1V492.8z"/>
	<path class="st10" d="M226.6,474.9l-0.6,5.2c-0.5-0.3-1.3-0.5-2.3-0.5c-2.1,0-4,1.4-4,4.2v9.1h-6.1v-18h5.4l0.2,3.9
		c0.9-2.7,2.6-4.2,5.4-4.2C225.5,474.5,226.2,474.7,226.6,474.9z"/>
	<path class="st10" d="M259.1,477c0,4.9-3.3,7.6-9.1,7.6h-4.7v8.2h-6.2V469h10.8C255.8,469.1,259.1,471.8,259.1,477z M252.9,476.9
		c0-2.1-1.2-3.1-3.9-3.1h-3.7v6.3h3.7C251.7,480,252.9,479,252.9,476.9z"/>
	<path class="st10" d="M275.5,474.9l-0.6,5.2c-0.5-0.3-1.3-0.5-2.3-0.5c-2.1,0-4,1.4-4,4.2v9.1h-6.1v-18h5.4l0.2,3.9
		c0.9-2.7,2.6-4.2,5.4-4.2C274.5,474.5,275.1,474.7,275.5,474.9z"/>
	<path class="st10" d="M295.7,483.8c0,5.9-3.5,9.4-9.4,9.4c-6,0-9.4-3.5-9.4-9.4s3.5-9.4,9.4-9.4
		C292.3,474.5,295.7,477.9,295.7,483.8z M282.9,483.8c0,3.5,1.1,5,3.4,5s3.4-1.5,3.4-5s-1.1-5-3.4-5
		C284.1,478.8,282.9,480.3,282.9,483.8z"/>
	<path class="st10" d="M316.8,494.2c0,4.2-4,6.3-10.1,6.3c-6.5,0-9.2-1.7-9.2-4.2c0-1.5,1-2.8,3.3-3.4c-1.5-0.7-2.7-1.9-2.7-3.7
		c0-1.7,1.2-3.1,2.9-3.7c-1.9-1-2.9-2.7-2.9-4.9c0-3.9,3.2-6.1,8.7-6.1c1.3,0,2.5,0.1,3.6,0.4c0.5-2.8,2.1-5.1,5.7-4.8l0.7,4.1
		c-2.3-0.3-3.6,0.4-4.2,1.5c2,1,3,2.7,3,5c0,3.9-3.2,6.1-8.7,6.1c-1.3,0-2.4-0.1-3.4-0.3c-0.8,0.2-1.1,0.6-1.1,1.3
		c0,0.8,0.7,1.2,1.9,1.2h6.1C314.5,488.8,316.8,490.6,316.8,494.2z M312.1,494.8c0-0.7-0.5-1.2-2.2-1.2H305c-2,0-2.7,0.4-2.7,1.3
		c0,1,1.5,1.7,5,1.7C310.5,496.6,312.1,495.9,312.1,494.8z M304.3,480.6c0,1.6,1.1,2.6,2.6,2.6c1.6,0,2.6-1,2.6-2.6
		s-1.1-2.6-2.6-2.6S304.3,479,304.3,480.6z"/>
	<path class="st10" d="M332.2,474.9l-0.6,5.2c-0.5-0.3-1.3-0.5-2.3-0.5c-2.1,0-4,1.4-4,4.2v9.1h-6.1v-18h5.4l0.3,3.9
		c0.9-2.7,2.6-4.2,5.4-4.2C331.2,474.5,331.8,474.7,332.2,474.9z"/>
	<path class="st10" d="M352.8,489.2l-0.5,3.4c-0.7,0.4-1.5,0.6-2.4,0.6c-2.4,0-4.1-0.8-4.6-2.8c-1,1.7-3.1,2.8-6.4,2.8
		c-3.5,0-5.5-1.6-5.5-4.5c0-3,1.9-4.9,7-5.9l4-0.8v-0.6c0-1.6-0.9-2.7-2.5-2.7c-1.7,0-3,0.7-3.3,2.8l-4.9-1.4
		c0.6-3.4,3.4-5.5,8.3-5.5c5.5,0,8.5,2.3,8.5,6.9v6.6c0,0.9,0.4,1.4,1.3,1.4C352.1,489.3,352.5,489.3,352.8,489.2z M344.4,486.7
		v-1.5l-2.9,0.7c-1.5,0.4-2.1,0.9-2.1,1.9s0.6,1.5,1.8,1.5C342.6,489.2,344.4,488.3,344.4,486.7z"/>
	<path class="st10" d="M384.6,480.8l-0.1,12h-6v-10.6c0-2.3-1-3.1-2.4-3.1c-1.8,0-3.1,1.4-3.1,4.1v9.6h-6.1v-10.6
		c0-2.3-1-3.1-2.4-3.1c-1.7,0-3.1,1.2-3.1,4.2v9.5h-6.1v-18h5.4l0.2,3.5c1.1-2.5,3.3-3.8,6-3.8c2.6,0,4.8,1.2,5.7,3.6
		c1.1-2.4,3.4-3.6,6-3.6C382,474.5,384.6,476.6,384.6,480.8z"/>
</g>
</svg>
