<svg xmlns="http://www.w3.org/2000/svg" viewBox="0 0 146.054 149.8"><defs><style>.cls-1{fill:#e94335;}.cls-2{fill:#34a753;}.cls-3{fill:#4284f3;}.cls-4{fill:#5e96f5;}.cls-5{fill:#ef766c;}.cls-6{fill:#6dc083;}.cls-7{fill:#7dc690;}.cls-8{fill:#f0837a;}.cls-9{fill:#fabb04;}</style></defs><g id="Layer_2" data-name="Layer 2"><g id="Why"><path class="cls-1" d="M84.835.791c14.1,1.662,26.33,7.5,37.171,16.6,1.949,1.634,1.845,2.667.094,4.375-5.781,5.637-11.432,11.41-17.086,17.177-1.253,1.279-2.232,1.83-3.841.376C81.122,21.2,44.405,28.639,33.224,59.386a3.1,3.1,0,0,1-.556.729c-1.526.531-2.7-.286-3.77-1.137q-9.366-7.432-18.858-14.7a5.018,5.018,0,0,1-2.368-3.262c.3-3.442,2.468-6,4.284-8.634C22.445,17.148,36.485,6.772,54.236,1.651A38.52,38.52,0,0,1,65.223.483c1.825-.244,3.737.53,5.5-.483h9.3C81.488,1.108,83.322-.043,84.835.791Z"/><path class="cls-2" d="M32.573,89.663c3.386,7.372,7.308,14.352,13.583,19.725a45.344,45.344,0,0,0,50.759,5.4c1.082-.586,2.181-1.14,3.272-1.709,6.2,2.336,10.59,7.3,15.742,11.132,2.887,2.145,6.453,3.734,8.134,7.319A6.256,6.256,0,0,1,121.2,135.6c-10.878,8.039-22.545,14-36.513,13.718-1.858.245-3.8-.532-5.6.483H70.718c-1.745-1.013-3.646-.238-5.459-.483-14.97-.025-27.311-6.7-38.621-15.733a71.475,71.475,0,0,1-17.324-20.4c-.767-1.33-1.725-2.6-1.617-4.276,1.136-3.166,4.116-4.5,6.415-6.506,4.566-3.987,9.656-7.3,14.3-11.195C29.588,90.219,30.828,89.2,32.573,89.663Z"/><path class="cls-3" d="M123.707,131.363l-23.518-18.287c5.787-4.852,10.711-10.348,13.168-17.72,1.687-5.064,1.615-5.217-3.577-5.223-10.384-.011-20.769-.113-31.15.063-3.157.054-4.351-.747-4.233-4.123.246-7.011.168-14.04.027-21.057-.053-2.593.7-3.534,3.389-3.522,21.231.09,42.466.226,63.694-.077,5.193-.074,2.563,4.405,4.547,5.993v5.618a12.265,12.265,0,0,0,0,7.49v6.553c-.817,7.892-2.211,15.621-5.55,22.917a66.288,66.288,0,0,1-12.2,18.62C127.049,129.911,125.891,131.555,123.707,131.363Z"/><path class="cls-4" d="M146.054,80.518a7.033,7.033,0,0,1,0-7.49Z"/><path class="cls-5" d="M64.977.818A1.6,1.6,0,0,0,65.138,0h5.58C68.985,1.553,66.946.935,64.977.818Z"/><path class="cls-6" d="M65.138,149.8a1.416,1.416,0,0,0-.15-.824c1.965-.112,4-.731,5.73.824Z"/><path class="cls-7" d="M84.844,149.027q-.087.386-.175.773h-5.58C80.843,148.3,82.872,148.878,84.844,149.027Z"/><path class="cls-8" d="M84.835.791c-1.677.181-3.4.645-4.816-.791h4.65A5.2,5.2,0,0,0,84.835.791Z"/><path class="cls-9" d="M8.191,108.385C-2.661,86.034-2.837,63.7,8.305,41.392L32.668,60.114a53.4,53.4,0,0,0-.094,29.549Z"/></g></g></svg>