<svg xmlns="http://www.w3.org/2000/svg" viewBox="0 0 458.457 50.349"><defs><style>.cls-1{fill:#fff;}.cls-2{fill:#f6b412;}</style></defs><g id="Layer_2" data-name="Layer 2"><g id="header"><path class="cls-1" d="M7.567,11.548H18.5V.656h7.611V29.833H18.5V18.022H7.567V29.833H0V.656H7.567Z"/><path class="cls-1" d="M60.369,26.159a16.634,16.634,0,0,1-11.505,4.33,16.634,16.634,0,0,1-11.5-4.33,15.264,15.264,0,0,1,0-21.828A16.631,16.631,0,0,1,48.864,0,16.631,16.631,0,0,1,60.369,4.331a15.264,15.264,0,0,1,0,21.828ZM42.958,9.667A8,8,0,0,0,40.64,15.4a7.419,7.419,0,0,0,2.318,5.424,8.28,8.28,0,0,0,5.906,2.318,7.925,7.925,0,0,0,8.224-7.874,7.874,7.874,0,0,0-2.362-5.6,8.736,8.736,0,0,0-5.862-2.318A8.408,8.408,0,0,0,42.958,9.667Z"/><path class="cls-1" d="M85.611,13.3h15.048c0,5.774-1.182,9.886-4.681,13.123A14.244,14.244,0,0,1,85.7,30.1a15.067,15.067,0,0,1-11.2-4.331,14.7,14.7,0,0,1-4.2-10.542A15.2,15.2,0,0,1,74.675,4.287,15.61,15.61,0,0,1,86.005,0a15.594,15.594,0,0,1,7.873,1.968,14.3,14.3,0,0,1,5.206,5.993l-7.218,2.975a7.136,7.136,0,0,0-2.1-2.931A6.115,6.115,0,0,0,85.7,6.561a7.049,7.049,0,0,0-4.986,2.012,9.843,9.843,0,0,0-2.538,6.693,9.125,9.125,0,0,0,2.319,6.3A6.9,6.9,0,0,0,85.83,23.8a6.245,6.245,0,0,0,4.2-1.357A5.184,5.184,0,0,0,91.822,19.2H85.611Z"/><path class="cls-1" d="M114.877.656V23.4h9.1v6.43H107.31V.656Z"/><path class="cls-1" d="M137.275.656V17.935a5.9,5.9,0,0,0,1.487,4.505,5.375,5.375,0,0,0,7.087.131c1.75-1.53,1.706-3.674,1.706-5.293V.656h7.568V17.41c0,3.062-.132,6.255-3.281,9.448-2.45,2.494-5.512,3.631-9.624,3.631-4.593,0-7.874-1.574-9.667-3.5-2.537-2.756-2.843-6.474-2.843-9.58V.656Z"/><path class="cls-1" d="M163.086,29.833V.656h7.567L184.608,18.5V.656h7.568V29.833h-7.568L170.653,11.985V29.833Z"/><path class="cls-1" d="M200.139,29.833V.656h9.93c2.93,0,7.83.394,11.592,4.024a14.244,14.244,0,0,1,4.068,10.63c0,3.85-.962,7.261-3.806,10.1a15.847,15.847,0,0,1-11.2,4.418Zm7.567-6.43h1.532c1.837,0,4.418-.175,6.386-2.1a7.951,7.951,0,0,0,2.231-5.993,8.718,8.718,0,0,0-2.275-6.386c-1.793-1.663-4.156-1.837-6.036-1.837h-1.838Z"/><path class="cls-2" d="M259.851,18.678a36.133,36.133,0,0,1-3.981,4.244l6.518,6.911h-9.449L250.4,27.165a16.374,16.374,0,0,1-9.8,3.324c-2.056,0-4.986-.306-7.174-2.449a7.89,7.89,0,0,1-2.362-5.775,7.7,7.7,0,0,1,2.187-5.6,13.078,13.078,0,0,1,4.769-2.843,18.615,18.615,0,0,1-1.706-2.318,6.5,6.5,0,0,1-1.007-3.587,7.859,7.859,0,0,1,2.231-5.337,10.589,10.589,0,0,1,13.649-.175,7.776,7.776,0,0,1,2.318,5.468,6.363,6.363,0,0,1-2.012,4.68,10.847,10.847,0,0,1-3.412,2.275l3.674,3.849a35.459,35.459,0,0,0,3.806-4.155Zm-18.2-1.049c-.306.175-2.756,1.4-2.756,3.412a2.635,2.635,0,0,0,.875,1.968,3.714,3.714,0,0,0,2.494.831,7.3,7.3,0,0,0,3.98-1.269Zm1.619-8.093a15.112,15.112,0,0,0,1.531,1.75,7.922,7.922,0,0,0,1.749-1.313,3.254,3.254,0,0,0,.919-2.143,2.611,2.611,0,0,0-.787-2.012,2.608,2.608,0,0,0-1.75-.656,2.381,2.381,0,0,0-1.662.612,2.276,2.276,0,0,0-.787,1.793A3.56,3.56,0,0,0,243.272,9.536Z"/><path class="cls-1" d="M265.978,29.833,270.92.656H278.4l5.9,15.573L290.561.656h7.568L302.5,29.833h-7.567l-2.144-16.8-7.043,16.8h-3.018L276,13.035l-2.494,16.8Z"/><path class="cls-1" d="M320.966.656a9.426,9.426,0,0,1,7.13,2.581A9.6,9.6,0,0,1,330.589,9.8a8.422,8.422,0,0,1-2.318,6.08,8.18,8.18,0,0,1-4.024,2.012l9.142,11.942h-9.405l-7.262-11.2v11.2h-7.567V.656Zm-4.244,13.079h1.444a5.684,5.684,0,0,0,3.674-1.181,3.632,3.632,0,0,0,.963-2.449,3.441,3.441,0,0,0-1.006-2.45,5.138,5.138,0,0,0-3.631-1.137h-1.444Z"/><path class="cls-1" d="M363.836,26.159a17.448,17.448,0,0,1-23.009,0,15.264,15.264,0,0,1,0-21.828,17.445,17.445,0,0,1,23.009,0,15.261,15.261,0,0,1,0,21.828ZM346.426,9.667a8,8,0,0,0-2.318,5.731,7.419,7.419,0,0,0,2.318,5.424,8.28,8.28,0,0,0,5.906,2.318,7.925,7.925,0,0,0,8.224-7.874,7.878,7.878,0,0,0-2.362-5.6,8.736,8.736,0,0,0-5.862-2.318A8.408,8.408,0,0,0,346.426,9.667Z"/><path class="cls-1" d="M385.317,23.4h12.248v6.43H372.588L386.411,7.087H374.95V.656h24.1Z"/><path class="cls-1" d="M412.089.656V29.833h-7.567V.656Z"/><path class="cls-1" d="M427.619,12.686,436.894.656h9.36L434.662,14.479,447.3,29.833h-9.8l-9.887-12.642V29.833h-7.567V.656h7.567Z"/><path class="cls-1" d="M3.5,37.218a5.061,5.061,0,0,1,3.139.808,3.341,3.341,0,0,1,1.194,2.657,2.745,2.745,0,0,1-1.445,2.523,3.009,3.009,0,0,1,1.675.808,3.278,3.278,0,0,1,.924,2.407,3.429,3.429,0,0,1-1.1,2.6,4.714,4.714,0,0,1-3.254,1.04H.322V37.218Zm-.674,5.333h.713a1.7,1.7,0,0,0,1.944-1.675c0-1.175-.905-1.617-1.925-1.617H2.825Zm0,5.468H3.9a3.412,3.412,0,0,0,1.714-.347,1.655,1.655,0,0,0,.79-1.482,1.537,1.537,0,0,0-.944-1.463,4.071,4.071,0,0,0-1.714-.251H2.825Z"/><path class="cls-1" d="M20.827,47.364h-5.18l-1.135,2.7H11.8l5.526-12.842h1.964L24.658,50.06h-2.7Zm-.732-2.04L18.266,40.7l-1.829,4.621Z"/><path class="cls-1" d="M28.084,50.06V37.218h1.733l7.817,8.568V37.218h2.5V50.06H38.4l-7.817-8.587V50.06Z"/><path class="cls-1" d="M47.491,42.647l4.717-5.429h3.158l-5.43,5.93,5.719,6.912H52.343L47.779,44.3l-.288.289V50.06h-2.5V37.218h2.5Z"/><path class="cls-1" d="M62.873,37.218a4.727,4.727,0,0,1,3.273.962,3.649,3.649,0,0,1,1.271,2.888,3.508,3.508,0,0,1-1.5,3.023,3.562,3.562,0,0,1-1.406.559l4,5.41H65.4L61.968,44.9H61.66v5.16h-2.5V37.218ZM61.66,43.129h.713c.481,0,2.464-.058,2.464-1.945,0-1.906-1.964-1.925-2.426-1.925H61.66Z"/><path class="cls-1" d="M74.636,37.218v8.067a2.791,2.791,0,0,0,.616,1.906,2.794,2.794,0,0,0,4.082,0,2.8,2.8,0,0,0,.616-1.906V37.218h2.5v7.855A5.4,5.4,0,0,1,81.49,48.5a5.689,5.689,0,0,1-8.395,0,5.4,5.4,0,0,1-.962-3.427V37.218Z"/><path class="cls-1" d="M91.039,37.218a4.6,4.6,0,0,1,3.388.982,4.365,4.365,0,0,1,.251,5.968A4.4,4.4,0,0,1,91.424,45.3H89.807V50.06H87.3V37.218Zm-1.232,5.93h1.02a2.558,2.558,0,0,0,1.637-.405,1.915,1.915,0,0,0,.693-1.5,1.768,1.768,0,0,0-.712-1.462,3.015,3.015,0,0,0-1.772-.405h-.866Z"/><path class="cls-1" d="M104.169,39.374V50.06h-2.5V39.374H98.778V37.218h8.279v2.156Z"/><path class="cls-1" d="M119.321,49.6a6.658,6.658,0,0,1-3.177.751,6.329,6.329,0,0,1-4.7-1.791,6.4,6.4,0,0,1-2.06-4.91,6.714,6.714,0,0,1,2.06-5.025,6.572,6.572,0,0,1,4.717-1.694,6.461,6.461,0,0,1,3.158.789v2.927a4.13,4.13,0,0,0-3.1-1.444,4.44,4.44,0,0,0,.1,8.876,3.889,3.889,0,0,0,3-1.406Z"/><path class="cls-1" d="M126.463,44.188l-4.409-6.97h2.965l2.753,4.466,2.753-4.466h2.965l-4.524,6.97V50.06h-2.5Z"/><path class="cls-1" d="M154.379,45.266a14.538,14.538,0,0,1-1.386,1.559l-.289.289,2.6,2.946h-3.1l-1.251-1.444a6.353,6.353,0,0,1-4.14,1.733,3.72,3.72,0,0,1-4.024-3.678,3.863,3.863,0,0,1,2.06-3.254l1-.6a4.047,4.047,0,0,1-1.291-2.695,3.224,3.224,0,0,1,3.543-3.2,3.14,3.14,0,0,1,3.447,3.061,3.321,3.321,0,0,1-1.81,2.85l-.539.327,2.118,2.426a14.774,14.774,0,0,0,1.6-1.771Zm-7.259-1.021c-.982.52-1.829,1.233-1.829,2.214a1.76,1.76,0,0,0,1.887,1.7,3.616,3.616,0,0,0,2.368-1.117Zm.886-2.407.577-.4a1.732,1.732,0,0,0,.886-1.425,1.282,1.282,0,0,0-2.561-.076,1.955,1.955,0,0,0,.54,1.212Z"/><path class="cls-1" d="M171.57,40.144a2.507,2.507,0,0,0-2.1-1.1c-1.348,0-1.772.847-1.772,1.5a1.082,1.082,0,0,0,.405.866,4.356,4.356,0,0,0,1.54.731,7.473,7.473,0,0,1,2.6,1.291,3.491,3.491,0,0,1,1.1,2.7,4.134,4.134,0,0,1-4.467,4.217,5.284,5.284,0,0,1-4.428-2.426l1.636-1.56a3.011,3.011,0,0,0,2.7,1.714,1.8,1.8,0,0,0,1.983-1.772,1.491,1.491,0,0,0-.5-1.155,5.755,5.755,0,0,0-1.983-.943,6.166,6.166,0,0,1-2.137-1.117A2.987,2.987,0,0,1,165.12,40.7c0-1.887,1.271-3.774,4.121-3.774a4.94,4.94,0,0,1,3.639,1.5Z"/><path class="cls-1" d="M190.554,43.648a6.856,6.856,0,1,1-6.855-6.719A6.5,6.5,0,0,1,190.554,43.648Zm-2.58,0a4.278,4.278,0,1,0-8.549,0,4.277,4.277,0,1,0,8.549,0Z"/><path class="cls-1" d="M204.107,49.6a6.655,6.655,0,0,1-3.177.751,6.33,6.33,0,0,1-4.7-1.791,6.4,6.4,0,0,1-2.06-4.91,6.718,6.718,0,0,1,2.06-5.025,6.572,6.572,0,0,1,4.717-1.694,6.458,6.458,0,0,1,3.158.789v2.927a4.129,4.129,0,0,0-3.1-1.444,4.44,4.44,0,0,0,.1,8.876,3.889,3.889,0,0,0,3-1.406Z"/><path class="cls-1" d="M210.844,37.218V50.06h-2.5V37.218Z"/><path class="cls-1" d="M223.3,47.364h-5.179l-1.136,2.7h-2.715L219.8,37.218h1.964l5.372,12.842h-2.7Zm-.731-2.04L220.741,40.7l-1.83,4.621Z"/><path class="cls-1" d="M233.062,37.218V47.9h3.966V50.06h-6.469V37.218Z"/><path class="cls-1" d="M253.411,40.144a2.507,2.507,0,0,0-2.1-1.1c-1.348,0-1.772.847-1.772,1.5a1.082,1.082,0,0,0,.405.866,4.356,4.356,0,0,0,1.54.731,7.481,7.481,0,0,1,2.6,1.291,3.491,3.491,0,0,1,1.1,2.7,4.134,4.134,0,0,1-4.467,4.217,5.286,5.286,0,0,1-4.429-2.426l1.637-1.56a3.011,3.011,0,0,0,2.7,1.714,1.8,1.8,0,0,0,1.982-1.772,1.494,1.494,0,0,0-.5-1.155,5.755,5.755,0,0,0-1.983-.943,6.166,6.166,0,0,1-2.137-1.117,2.987,2.987,0,0,1-1.021-2.387c0-1.887,1.271-3.774,4.121-3.774a4.94,4.94,0,0,1,3.639,1.5Z"/><path class="cls-1" d="M266.426,39.374h-4.621v2.869h4.428V44.4h-4.428v3.5h4.621V50.06H259.3V37.218h7.124Z"/><path class="cls-1" d="M280.1,49.6a6.652,6.652,0,0,1-3.177.751,6.332,6.332,0,0,1-4.7-1.791,6.4,6.4,0,0,1-2.06-4.91,6.718,6.718,0,0,1,2.06-5.025,6.572,6.572,0,0,1,4.717-1.694,6.458,6.458,0,0,1,3.158.789v2.927A4.129,4.129,0,0,0,277,39.2a4.44,4.44,0,0,0,.1,8.876,3.889,3.889,0,0,0,3-1.406Z"/><path class="cls-1" d="M286.833,37.218v8.067a2.791,2.791,0,0,0,.616,1.906,2.794,2.794,0,0,0,4.082,0,2.8,2.8,0,0,0,.616-1.906V37.218h2.5v7.855a5.406,5.406,0,0,1-.963,3.427,5.689,5.689,0,0,1-8.4,0,5.4,5.4,0,0,1-.962-3.427V37.218Z"/><path class="cls-1" d="M303.216,37.218a4.727,4.727,0,0,1,3.273.962,3.649,3.649,0,0,1,1.271,2.888,3.506,3.506,0,0,1-1.5,3.023,3.563,3.563,0,0,1-1.4.559l4,5.41h-3.119l-3.427-5.16H302v5.16h-2.5V37.218ZM302,43.129h.713c.481,0,2.464-.058,2.464-1.945,0-1.906-1.964-1.925-2.426-1.925H302Z"/><path class="cls-1" d="M314.98,37.218V50.06h-2.5V37.218Z"/><path class="cls-1" d="M323.873,39.374V50.06h-2.5V39.374h-2.889V37.218h8.28v2.156Z"/><path class="cls-1" d="M333.769,44.188l-4.409-6.97h2.965l2.753,4.466,2.754-4.466H340.8l-4.525,6.97V50.06h-2.5Z"/><path class="cls-1" d="M353.906,37.218a7.477,7.477,0,0,1,4.775,1.251,6.357,6.357,0,0,1,2.465,5.179,6.125,6.125,0,0,1-2.58,5.18,7.369,7.369,0,0,1-4.7,1.232h-3.312V37.218ZM353.06,47.9h.77a5.366,5.366,0,0,0,3.137-.847,4.173,4.173,0,0,0,1.6-3.408,4.281,4.281,0,0,0-1.579-3.427,5.224,5.224,0,0,0-3.157-.847h-.77Z"/><path class="cls-1" d="M367.884,37.218V50.06h-2.5V37.218Z"/><path class="cls-1" d="M379.05,40.144a2.506,2.506,0,0,0-2.1-1.1c-1.348,0-1.771.847-1.771,1.5a1.081,1.081,0,0,0,.4.866,4.365,4.365,0,0,0,1.54.731,7.473,7.473,0,0,1,2.6,1.291,3.491,3.491,0,0,1,1.1,2.7,4.134,4.134,0,0,1-4.467,4.217,5.287,5.287,0,0,1-4.429-2.426l1.637-1.56a3.01,3.01,0,0,0,2.7,1.714,1.8,1.8,0,0,0,1.983-1.772,1.491,1.491,0,0,0-.5-1.155,5.755,5.755,0,0,0-1.983-.943,6.174,6.174,0,0,1-2.137-1.117A2.987,2.987,0,0,1,372.6,40.7c0-1.887,1.271-3.774,4.121-3.774a4.94,4.94,0,0,1,3.639,1.5Z"/><path class="cls-1" d="M392.354,47.364h-5.179l-1.136,2.7h-2.715l5.526-12.842h1.964l5.372,12.842h-2.7Zm-.731-2.04-1.83-4.621-1.829,4.621Z"/><path class="cls-1" d="M402.789,37.218a5.058,5.058,0,0,1,3.138.808,3.341,3.341,0,0,1,1.194,2.657,2.743,2.743,0,0,1-1.445,2.523,3.016,3.016,0,0,1,1.676.808,3.278,3.278,0,0,1,.924,2.407,3.431,3.431,0,0,1-1.1,2.6,4.71,4.71,0,0,1-3.253,1.04h-4.313V37.218Zm-.674,5.333h.712a1.7,1.7,0,0,0,1.945-1.675c0-1.175-.9-1.617-1.926-1.617h-.731Zm0,5.468h1.078a3.409,3.409,0,0,0,1.713-.347,1.655,1.655,0,0,0,.79-1.482,1.537,1.537,0,0,0-.944-1.463,4.066,4.066,0,0,0-1.713-.251h-.924Z"/><path class="cls-1" d="M415.014,37.218V50.06h-2.5V37.218Z"/><path class="cls-1" d="M422.368,37.218V47.9h3.966V50.06h-6.469V37.218Z"/><path class="cls-1" d="M432.494,37.218V50.06h-2.5V37.218Z"/><path class="cls-1" d="M441.389,39.374V50.06h-2.5V39.374H436V37.218h8.278v2.156Z"/><path class="cls-1" d="M451.284,44.188l-4.409-6.97h2.965l2.753,4.466,2.754-4.466h2.965l-4.525,6.97V50.06h-2.5Z"/><path class="cls-1" d="M458.292,2.449a3.607,3.607,0,0,1-.7,2.515,2.78,2.78,0,0,1-2.14.913c-1.408,0-2.8-.883-2.8-3.158V1.746h-4.341V.638h9.984Zm-4.595-.7v.913c0,1.317.658,2.11,1.811,2.11,1.587,0,1.736-1.481,1.736-2.2V1.746Z"/><path class="cls-1" d="M458.292,10.07h-8.936v2.754h-1.048V8.962h9.984Z"/><path class="cls-1" d="M458.292,16.926h-8.936v2.755h-1.048V15.819h9.984Z"/><path class="cls-1" d="M456.092,29.83a4.886,4.886,0,0,0,.928-1.3,4.262,4.262,0,0,0,.389-1.721,4.118,4.118,0,0,0-8.233.015,4.158,4.158,0,0,0,.464,1.856,4.523,4.523,0,0,0,.839,1.152H449.1a5.191,5.191,0,0,1-.973-3.008,5.164,5.164,0,1,1,10.328.06,4.7,4.7,0,0,1-.988,2.948Z"/></g></g></svg>