<svg id="Layer_1" data-name="Layer 1" xmlns="http://www.w3.org/2000/svg" viewBox="0 0 382.37 47.79">
  <defs>
    <style>
      .cls-1 {
        fill: #00aeef;
      }

      .cls-2 {
        fill: #0a1f41;
      }
    </style>
  </defs>
  <g>
    <g>
      <path class="cls-1" d="M8.34,11.27h9.05v-9h6.3V26.4h-6.3V16.62h-9V26.4H2.08V2.25H8.34Z"/>
      <path class="cls-1" d="M52,23.36a13.78,13.78,0,0,1-9.52,3.58A13.76,13.76,0,0,1,33,23.36,12.63,12.63,0,0,1,33,5.3a13.72,13.72,0,0,1,9.52-3.59A13.74,13.74,0,0,1,52,5.3a12.63,12.63,0,0,1,0,18.06ZM37.62,9.71a6.64,6.64,0,0,0-1.92,4.74,6.15,6.15,0,0,0,1.92,4.49,6.87,6.87,0,0,0,4.89,1.92,6.55,6.55,0,0,0,6.8-6.52,6.52,6.52,0,0,0-2-4.63,7.22,7.22,0,0,0-4.85-1.92A7,7,0,0,0,37.62,9.71Z"/>
      <path class="cls-1" d="M72.91,12.71H85.36c0,4.78-1,8.19-3.87,10.86a11.75,11.75,0,0,1-8.51,3A12.45,12.45,0,0,1,63.72,23a12.16,12.16,0,0,1-3.48-8.72,12.57,12.57,0,0,1,3.62-9A14,14,0,0,1,79.75,3.34a11.82,11.82,0,0,1,4.31,5l-6,2.46a5.87,5.87,0,0,0-1.74-2.42A5.06,5.06,0,0,0,73,7.14a5.79,5.79,0,0,0-4.12,1.67,8.13,8.13,0,0,0-2.1,5.53,7.59,7.59,0,0,0,1.92,5.22,5.71,5.71,0,0,0,4.41,1.84,5.18,5.18,0,0,0,3.48-1.12,4.3,4.3,0,0,0,1.48-2.68H72.91Z"/>
      <path class="cls-1" d="M97.13,2.25V21.08h7.53V26.4H90.87V2.25Z"/>
      <path class="cls-1" d="M115.66,2.25v14.3a4.9,4.9,0,0,0,1.23,3.73,4.5,4.5,0,0,0,3,1.16,4.57,4.57,0,0,0,2.89-1.05c1.45-1.27,1.41-3,1.41-4.38V2.25h6.27V16.12c0,2.53-.11,5.17-2.72,7.82a10.44,10.44,0,0,1-8,3c-3.8,0-6.52-1.3-8-2.9-2.1-2.28-2.35-5.35-2.35-7.92V2.25Z"/>
      <path class="cls-1" d="M137,26.4V2.25h6.27L154.82,17V2.25h6.26V26.4h-6.26L143.28,11.63V26.4Z"/>
      <path class="cls-1" d="M167.67,26.4V2.25h8.22c2.42,0,6.48.33,9.59,3.33a11.81,11.81,0,0,1,3.37,8.8,11.13,11.13,0,0,1-3.15,8.36,13.11,13.11,0,0,1-9.27,3.66Zm6.26-5.32h1.27a7.2,7.2,0,0,0,5.28-1.74,6.56,6.56,0,0,0,1.85-5,7.23,7.23,0,0,0-1.88-5.28,7,7,0,0,0-5-1.52h-1.52Z"/>
      <path class="cls-2" d="M217.08,17.17a30.09,30.09,0,0,1-3.3,3.51l5.4,5.72h-7.82l-2.1-2.21a13.54,13.54,0,0,1-8.11,2.75,8.2,8.2,0,0,1-5.93-2,6.52,6.52,0,0,1-2-4.78,6.4,6.4,0,0,1,1.81-4.63,10.74,10.74,0,0,1,4-2.35,14.62,14.62,0,0,1-1.41-1.92,5.31,5.31,0,0,1-.84-3,6.5,6.5,0,0,1,1.85-4.41,8.75,8.75,0,0,1,11.29-.15,6.47,6.47,0,0,1,1.92,4.53,5.24,5.24,0,0,1-1.67,3.87A8.87,8.87,0,0,1,207.34,14l3,3.19a29.54,29.54,0,0,0,3.15-3.44ZM202,16.3c-.25.14-2.28,1.16-2.28,2.82a2.2,2.2,0,0,0,.72,1.63,3.1,3.1,0,0,0,2.07.69,6,6,0,0,0,3.29-1.05Zm1.34-6.7a12.09,12.09,0,0,0,1.27,1.45A6.33,6.33,0,0,0,206.07,10a2.65,2.65,0,0,0,.76-1.77,2.1,2.1,0,0,0-.65-1.66A2.14,2.14,0,0,0,204.74,6a2,2,0,0,0-1.38.51A1.89,1.89,0,0,0,202.71,8,2.9,2.9,0,0,0,203.36,9.6Z"/>
      <path class="cls-2" d="M222.15,26.4l4.09-24.15h6.18l4.89,12.89,5.18-12.89h6.26l3.62,24.15h-6.26l-1.78-13.9-5.82,13.9H236l-5.58-13.9-2.06,13.9Z"/>
      <path class="cls-2" d="M267.64,2.25a7.79,7.79,0,0,1,5.9,2.14,7.93,7.93,0,0,1,2.07,5.43,7,7,0,0,1-1.92,5,6.76,6.76,0,0,1-3.33,1.67l7.56,9.88h-7.78l-6-9.27V26.4h-6.26V2.25Zm-3.51,10.83h1.2a4.73,4.73,0,0,0,3-1,3,3,0,0,0,.79-2,2.84,2.84,0,0,0-.83-2,4.25,4.25,0,0,0-3-.94h-1.2Z"/>
      <path class="cls-2" d="M303.11,23.36a14.43,14.43,0,0,1-19,0,12.63,12.63,0,0,1,0-18.06,14.4,14.4,0,0,1,19,0,12.63,12.63,0,0,1,0,18.06ZM288.71,9.71a6.64,6.64,0,0,0-1.92,4.74,6.12,6.12,0,0,0,1.92,4.49,6.87,6.87,0,0,0,4.89,1.92,6.55,6.55,0,0,0,6.8-6.52,6.52,6.52,0,0,0-1.95-4.63,7.22,7.22,0,0,0-4.85-1.92A7,7,0,0,0,288.71,9.71Z"/>
      <path class="cls-2" d="M320.89,21.08H331V26.4H310.35L321.79,7.58h-9.48V2.25h19.94Z"/>
      <path class="cls-2" d="M343,2.25V26.4h-6.26V2.25Z"/>
      <path class="cls-2" d="M355.89,12.21l7.67-10h7.75l-9.6,11.44L372.18,26.4h-8.11l-8.18-10.46V26.4h-6.26V2.25h6.26Z"/>
    </g>
    <g>
      <path class="cls-2" d="M4.45,31H6.33l3.53,8.47L13.56,31h1.87l2.24,13.32H15l-1.19-8.21-3.58,8.21H9.38L6,36.06,4.61,44.27H2Z"/>
      <path class="cls-2" d="M24.62,31V44.27H22V31Z"/>
      <path class="cls-2" d="M29.66,44.27V31h1.8l8.11,8.89V31h2.59V44.27H40.37l-8.11-8.91v8.91Z"/>
      <path class="cls-2" d="M47.2,44.27V31H49l8.11,8.89V31H59.7V44.27H57.9l-8.1-8.91v8.91Z"/>
      <path class="cls-2" d="M72.13,33.19h-4.8v3h4.6V38.4h-4.6V42h4.8v2.23H64.74V31h7.39Z"/>
      <path class="cls-2" d="M83.2,34A2.61,2.61,0,0,0,81,32.85c-1.4,0-1.84.88-1.84,1.56a1.11,1.11,0,0,0,.42.89,4.55,4.55,0,0,0,1.6.76,7.62,7.62,0,0,1,2.69,1.34A3.63,3.63,0,0,1,85,40.2a4.28,4.28,0,0,1-4.63,4.37,5.51,5.51,0,0,1-4.6-2.51l1.7-1.62a3.13,3.13,0,0,0,2.8,1.78,1.87,1.87,0,0,0,2.06-1.84,1.55,1.55,0,0,0-.52-1.2,6,6,0,0,0-2.06-1A6.42,6.42,0,0,1,77.56,37a3.1,3.1,0,0,1-1.06-2.47c0-2,1.32-3.92,4.28-3.92a5.1,5.1,0,0,1,3.77,1.56Z"/>
      <path class="cls-2" d="M102.89,37.62a7.11,7.11,0,0,1-14.22,0,7.11,7.11,0,0,1,14.22,0Zm-2.68,0a4.43,4.43,0,1,0-8.86,0,4.43,4.43,0,1,0,8.86,0Z"/>
      <path class="cls-2" d="M110.9,33.19V44.27h-2.59V33.19h-3V31h8.59v2.24Z"/>
      <path class="cls-2" d="M124.65,41.48h-5.38l-1.18,2.79h-2.81L121,31h2l5.57,13.32h-2.8Zm-.76-2.12L122,34.57l-1.9,4.79Z"/>
      <path class="cls-2" d="M142.13,31a5.24,5.24,0,0,1,3.25.84,3.47,3.47,0,0,1,1.24,2.76,2.84,2.84,0,0,1-1.5,2.61,3.14,3.14,0,0,1,1.74.84,3.4,3.4,0,0,1,1,2.5,3.55,3.55,0,0,1-1.14,2.69,4.9,4.9,0,0,1-3.38,1.08h-4.47V31Zm-.7,5.53h.74a1.76,1.76,0,0,0,2-1.73c0-1.22-.94-1.68-2-1.68h-.76Zm0,5.68h1.11a3.55,3.55,0,0,0,1.78-.36,1.72,1.72,0,0,0,.82-1.54,1.6,1.6,0,0,0-1-1.52,4.22,4.22,0,0,0-1.77-.26h-1Z"/>
      <path class="cls-2" d="M160.1,41.48h-5.37l-1.18,2.79h-2.81L156.47,31h2l5.57,13.32h-2.8Zm-.76-2.12-1.89-4.79-1.9,4.79Z"/>
      <path class="cls-2" d="M167.64,44.27V31h1.79l8.11,8.89V31h2.6V44.27h-1.8l-8.11-8.91v8.91Z"/>
      <path class="cls-2" d="M187.77,36.58l4.9-5.63h3.27l-5.63,6.15,5.93,7.17H192.8l-4.73-6-.3.3v5.67h-2.59V31h2.59Z"/>
      <path class="cls-2" d="M203.73,31a4.91,4.91,0,0,1,3.4,1,3.78,3.78,0,0,1,1.32,3,3.64,3.64,0,0,1-1.56,3.14,3.7,3.7,0,0,1-1.46.58l4.15,5.61h-3.23l-3.56-5.35h-.32v5.35h-2.59V31Zm-1.26,6.13h.74c.5,0,2.56-.06,2.56-2s-2-2-2.52-2h-.78Z"/>
      <path class="cls-2" d="M215.94,31v8.37a2.9,2.9,0,0,0,.64,2,2.89,2.89,0,0,0,4.23,0,2.9,2.9,0,0,0,.64-2V31h2.6V39.1a5.57,5.57,0,0,1-1,3.55,5.9,5.9,0,0,1-8.71,0,5.57,5.57,0,0,1-1-3.55V31Z"/>
      <path class="cls-2" d="M233,31a4.76,4.76,0,0,1,3.51,1,4.24,4.24,0,0,1,1.36,3.21,4.29,4.29,0,0,1-1.1,3,4.55,4.55,0,0,1-3.37,1.18h-1.68v4.93h-2.6V31Zm-1.28,6.15h1.06a2.66,2.66,0,0,0,1.7-.42,2,2,0,0,0,.71-1.56,1.83,1.83,0,0,0-.73-1.51,3.13,3.13,0,0,0-1.84-.42h-.9Z"/>
      <path class="cls-2" d="M246.58,33.19V44.27H244V33.19h-3V31h8.59v2.24Z"/>
      <path class="cls-2" d="M262.3,43.79a6.9,6.9,0,0,1-3.29.78,6.81,6.81,0,0,1-7-7,7,7,0,0,1,2.13-5.21,6.83,6.83,0,0,1,4.9-1.76,6.7,6.7,0,0,1,3.27.82v3a4.27,4.27,0,0,0-3.21-1.5,4.61,4.61,0,0,0,.1,9.21,4,4,0,0,0,3.11-1.46Z"/>
      <path class="cls-2" d="M269.71,38.18,265.14,31h3.08l2.85,4.63L273.93,31H277l-4.69,7.23v6.09h-2.6Z"/>
      <path class="cls-2" d="M289.73,31V42h4.11v2.23h-6.71V31Z"/>
      <path class="cls-2" d="M306,41.48h-5.37l-1.18,2.79h-2.82L302.31,31h2l5.57,13.32h-2.79Zm-.76-2.12-1.9-4.79-1.89,4.79Z"/>
      <path class="cls-2" d="M317.78,44.27h-2L311.19,31h2.75l3,9.07,3.25-9.19h1.44L324.69,40,327.88,31h2.76l-4.93,13.32h-2l-2.92-8.45Z"/>
      <path class="cls-2" d="M341.27,33.19h-4.48v3H341V38.4h-4.2v5.87H334.2V31h7.07Z"/>
      <path class="cls-2" d="M348.1,31V44.27h-2.6V31Z"/>
      <path class="cls-2" d="M357,31a4.91,4.91,0,0,1,3.4,1,3.8,3.8,0,0,1,1.31,3,3.66,3.66,0,0,1-1.55,3.14,3.7,3.7,0,0,1-1.46.58l4.15,5.61h-3.23l-3.56-5.35h-.32v5.35h-2.59V31Zm-1.26,6.13h.74c.5,0,2.56-.06,2.56-2s-2-2-2.52-2h-.78Z"/>
      <path class="cls-2" d="M368.4,31h1.87l3.54,8.47,3.7-8.47h1.87l2.24,13.32H379l-1.2-8.21-3.57,8.21h-.88l-3.42-8.21-1.35,8.21h-2.64Z"/>
    </g>
    <g>
      <path class="cls-2" d="M381.27,3.74a3,3,0,0,1-.58,2.08A2.37,2.37,0,0,1,376.6,4v-.8H373V2.24h8.26Zm-3.8-.58v.75c0,1.09.54,1.75,1.5,1.75,1.31,0,1.43-1.23,1.43-1.82V3.16Z"/>
      <path class="cls-2" d="M381.27,10h-7.4v2.28H373V9.13h8.26Z"/>
      <path class="cls-2" d="M381.27,15.72h-7.4V18H373V14.8h8.26Z"/>
      <path class="cls-2" d="M379.45,26.4a4.15,4.15,0,0,0,.77-1.08,3.48,3.48,0,0,0,.32-1.43,3.34,3.34,0,0,0-3.44-3.32,3.3,3.3,0,0,0-3.37,3.34,3.46,3.46,0,0,0,.38,1.53,4,4,0,0,0,.69,1h-1.14a4.34,4.34,0,0,1-.8-2.49,4.28,4.28,0,1,1,8.55.05,3.88,3.88,0,0,1-.82,2.44Z"/>
    </g>
  </g>
</svg>
