<?xml version="1.0" encoding="utf-8"?>
<!-- Generator: Adobe Illustrator 25.2.0, SVG Export Plug-In . SVG Version: 6.00 Build 0)  -->
<svg version="1.1" id="Layer_1" xmlns="http://www.w3.org/2000/svg" xmlns:xlink="http://www.w3.org/1999/xlink" x="0px" y="0px"
	 viewBox="0 0 382.4 47.8" style="enable-background:new 0 0 382.4 47.8;" xml:space="preserve">
<style type="text/css">
	.st0{fill:#FFFFFF;}
	.st1{fill:#F6B412;}
</style>
<g>
	<g>
		<path class="st0" d="M8.3,11.3h9v-9h6.3v24.1h-6.3v-9.8h-9v9.8H2.1V2.2h6.3V11.3z"/>
		<path class="st0" d="M52,23.4c-2.6,2.4-6,3.6-9.5,3.6C39,27,35.6,25.7,33,23.4c-5-4.9-5.1-12.9-0.2-17.9c0.1-0.1,0.1-0.1,0.2-0.2
			c2.6-2.4,6-3.7,9.5-3.6C46,1.7,49.4,2.9,52,5.3c5,4.9,5.1,12.9,0.2,17.9C52.1,23.2,52.1,23.3,52,23.4z M37.6,9.7
			c-1.2,1.3-1.9,3-1.9,4.7c0,1.7,0.7,3.3,1.9,4.5c1.3,1.3,3.1,2,4.9,1.9c3.6,0.1,6.7-2.7,6.8-6.3c0-0.1,0-0.1,0-0.2
			c0-1.7-0.7-3.4-2-4.6c-1.3-1.2-3.1-1.9-4.8-1.9C40.7,7.8,38.9,8.5,37.6,9.7z"/>
		<path class="st0" d="M72.9,12.7h12.4c0,4.8-1,8.2-3.9,10.9c-2.3,2.1-5.4,3.2-8.5,3c-3.4,0.1-6.8-1.1-9.3-3.6
			c-2.3-2.3-3.5-5.5-3.5-8.7c0-3.4,1.3-6.6,3.6-9c4.4-3.9,10.7-4.7,15.9-1.9c1.9,1.2,3.4,3,4.3,5l-6,2.5c-0.4-0.9-1-1.8-1.7-2.4
			c-0.9-0.8-2.1-1.2-3.3-1.2c-1.5,0-3,0.6-4.1,1.7c-1.4,1.5-2.1,3.5-2.1,5.5c0,1.9,0.6,3.8,1.9,5.2c1.1,1.2,2.7,1.9,4.4,1.8
			c1.3,0.1,2.5-0.3,3.5-1.1c0.8-0.7,1.3-1.6,1.5-2.7h-5.2V12.7z"/>
		<path class="st0" d="M97.1,2.2v18.8h7.5v5.3H90.9V2.2H97.1z"/>
		<path class="st0" d="M115.7,2.2v14.3c-0.1,1.4,0.3,2.7,1.2,3.7c0.8,0.7,1.9,1.2,3,1.2c1.1,0,2.1-0.4,2.9-1c1.4-1.3,1.4-3,1.4-4.4
			V2.2h6.3v13.9c0,2.5-0.1,5.2-2.7,7.8c-2.1,2.1-5,3.2-8,3c-3.8,0-6.5-1.3-8-2.9c-2.1-2.3-2.3-5.4-2.3-7.9V2.2H115.7z"/>
		<path class="st0" d="M137,26.4V2.2h6.3L154.8,17V2.2h6.3v24.1h-6.3l-11.5-14.8v14.8H137z"/>
		<path class="st0" d="M167.7,26.4V2.2h8.2c2.4,0,6.5,0.3,9.6,3.3c2.3,2.3,3.5,5.5,3.4,8.8c0.2,3.1-1,6.1-3.1,8.4
			c-2.5,2.4-5.8,3.7-9.3,3.7H167.7z M173.9,21.1h1.3c1.9,0.2,3.8-0.5,5.3-1.7c1.3-1.3,2-3.1,1.9-5c0.1-1.9-0.6-3.8-1.9-5.3
			c-1.4-1.1-3.2-1.7-5-1.5h-1.5V21.1z"/>
		<path class="st1" d="M217.1,17.2c-1,1.3-2.1,2.4-3.3,3.5l5.4,5.7h-7.8l-2.1-2.2c-2.3,1.8-5.2,2.7-8.1,2.8c-2.2,0.1-4.3-0.6-5.9-2
			c-1.3-1.2-2-3-2-4.8c0-1.7,0.6-3.4,1.8-4.6c1.1-1.1,2.5-1.9,4-2.3c-0.5-0.6-1-1.2-1.4-1.9c-0.6-0.9-0.9-1.9-0.8-3
			c0-1.7,0.7-3.2,1.9-4.4c3.2-2.8,8-2.9,11.3-0.2c1.2,1.2,1.9,2.8,1.9,4.5c0,1.5-0.6,2.9-1.7,3.9c-0.8,0.8-1.8,1.5-2.8,1.9l3,3.2
			c1.1-1.1,2.2-2.2,3.1-3.4L217.1,17.2z M202,16.3c-0.2,0.1-2.3,1.2-2.3,2.8c0,0.6,0.3,1.2,0.7,1.6c0.6,0.5,1.3,0.7,2.1,0.7
			c1.2,0,2.3-0.4,3.3-1L202,16.3z M203.3,9.6c0.4,0.5,0.8,1,1.3,1.4c0.5-0.3,1-0.6,1.5-1c0.5-0.5,0.7-1.1,0.8-1.8
			c0-0.6-0.2-1.2-0.6-1.7c-0.4-0.4-0.9-0.6-1.4-0.6c-0.5,0-1,0.2-1.4,0.5c-0.4,0.4-0.7,0.9-0.6,1.5C202.8,8.6,203,9.1,203.3,9.6
			L203.3,9.6z"/>
		<path class="st0" d="M222.1,26.4l4.1-24.1h6.2l4.9,12.9l5.2-12.9h6.3l3.6,24.1h-6.3l-1.8-13.9l-5.8,13.9H236l-5.6-13.9l-2.1,13.9
			H222.1z"/>
		<path class="st0" d="M267.6,2.2c2.2-0.1,4.3,0.6,5.9,2.1c1.4,1.5,2.1,3.4,2.1,5.4c0,1.9-0.6,3.7-1.9,5c-0.9,0.9-2.1,1.4-3.3,1.7
			l7.6,9.9h-7.8l-6-9.3v9.3h-6.3V2.2H267.6z M264.1,13.1h1.2c1.1,0,2.1-0.3,3-1c0.5-0.5,0.8-1.3,0.8-2c0-0.8-0.3-1.5-0.8-2
			c-0.8-0.7-1.9-1-3-0.9h-1.2L264.1,13.1z"/>
		<path class="st0" d="M303.1,23.4c-5.4,4.8-13.6,4.8-19,0c-5-4.9-5.1-12.9-0.2-17.9c0.1-0.1,0.1-0.1,0.2-0.2c5.4-4.8,13.6-4.8,19,0
			c5,4.9,5.1,12.9,0.2,17.9C303.2,23.2,303.2,23.3,303.1,23.4z M288.7,9.7c-1.2,1.3-1.9,3-1.9,4.7c0,1.7,0.7,3.3,1.9,4.5
			c1.3,1.3,3.1,2,4.9,1.9c3.6,0.1,6.7-2.7,6.8-6.3c0-0.1,0-0.1,0-0.2c0-1.7-0.7-3.4-2-4.6c-1.3-1.2-3.1-1.9-4.9-1.9
			C291.8,7.8,290,8.5,288.7,9.7z"/>
		<path class="st0" d="M320.9,21.1H331v5.3h-20.6l11.4-18.8h-9.5V2.2h19.9L320.9,21.1z"/>
		<path class="st0" d="M343,2.2v24.1h-6.3V2.2H343z"/>
		<path class="st0" d="M355.9,12.2l7.7-10h7.8l-9.6,11.4l10.5,12.8h-8.1l-8.2-10.5v10.5h-6.3V2.2h6.3V12.2z"/>
	</g>
	<g>
		<path class="st0" d="M4.4,31h1.9l3.5,8.5l3.7-8.5h1.9l2.2,13.3H15l-1.2-8.2l-3.6,8.2H9.4L6,36.1l-1.4,8.2H2L4.4,31z"/>
		<path class="st0" d="M24.6,31v13.3H22V31H24.6z"/>
		<path class="st0" d="M29.7,44.3V31h1.8l8.1,8.9V31h2.6v13.3h-1.8l-8.1-8.9v8.9H29.7z"/>
		<path class="st0" d="M47.2,44.3V31H49l8.1,8.9V31h2.6v13.3h-1.8l-8.1-8.9v8.9H47.2z"/>
		<path class="st0" d="M72.1,33.2h-4.8v3h4.6v2.2h-4.6V42h4.8v2.2h-7.4V31h7.4V33.2z"/>
		<path class="st0" d="M83.2,34c-0.5-0.7-1.3-1.2-2.2-1.2c-1.4,0-1.8,0.9-1.8,1.6c0,0.3,0.1,0.7,0.4,0.9c0.5,0.4,1,0.6,1.6,0.8
			c1,0.3,1.9,0.7,2.7,1.3c0.8,0.7,1.2,1.7,1.1,2.8c0.1,2.4-1.8,4.3-4.2,4.4c-0.2,0-0.3,0-0.5,0c-1.9,0-3.6-1-4.6-2.5l1.7-1.6
			c0.5,1.1,1.6,1.8,2.8,1.8c1,0.1,1.9-0.6,2.1-1.7c0-0.1,0-0.1,0-0.2c0-0.5-0.2-0.9-0.5-1.2c-0.6-0.5-1.3-0.8-2.1-1
			c-0.8-0.2-1.5-0.6-2.2-1.2c-0.7-0.6-1.1-1.5-1.1-2.5c0-2,1.3-3.9,4.3-3.9c1.4,0,2.8,0.5,3.8,1.6L83.2,34z"/>
		<path class="st0" d="M102.9,37.6c0,3.9-3.2,7.1-7.1,7.1s-7.1-3.2-7.1-7.1s3.2-7.1,7.1-7.1S102.9,33.7,102.9,37.6z M100.2,37.6
			c0-2.4-2-4.4-4.4-4.4s-4.4,2-4.4,4.4s2,4.4,4.4,4.4S100.2,40.1,100.2,37.6z"/>
		<path class="st0" d="M110.9,33.2v11.1h-2.6V33.2h-3V31h8.6v2.2L110.9,33.2z"/>
		<path class="st0" d="M124.7,41.5h-5.4l-1.2,2.8h-2.8L121,31h2l5.6,13.3h-2.8L124.7,41.5z M123.9,39.4l-1.9-4.8l-1.9,4.8H123.9z"/>
		<path class="st0" d="M142.1,31c1.1-0.1,2.3,0.2,3.2,0.8c0.8,0.7,1.3,1.7,1.2,2.8c0,1.1-0.5,2.1-1.5,2.6c0.7,0.1,1.3,0.4,1.7,0.8
			c0.7,0.7,1,1.6,1,2.5c0,1-0.4,2-1.1,2.7c-1,0.8-2.2,1.2-3.4,1.1h-4.5V31H142.1z M141.4,36.5h0.7c1,0.1,1.9-0.5,2-1.5
			c0-0.1,0-0.2,0-0.2c0-1.2-0.9-1.7-2-1.7h-0.8L141.4,36.5z M141.4,42.2h1.1c0.6,0,1.2-0.1,1.8-0.4c0.5-0.3,0.8-0.9,0.8-1.5
			c0-0.7-0.4-1.3-1-1.5c-0.6-0.2-1.2-0.3-1.8-0.3h-1L141.4,42.2z"/>
		<path class="st0" d="M160.1,41.5h-5.4l-1.2,2.8h-2.8l5.7-13.3h2l5.6,13.3h-2.8L160.1,41.5z M159.3,39.4l-1.9-4.8l-1.9,4.8H159.3z"
			/>
		<path class="st0" d="M167.6,44.3V31h1.8l8.1,8.9V31h2.6v13.3h-1.8l-8.1-8.9v8.9H167.6z"/>
		<path class="st0" d="M187.8,36.6l4.9-5.6h3.3l-5.6,6.2l5.9,7.2h-3.4l-4.7-6l-0.3,0.3v5.7h-2.6V31h2.6V36.6z"/>
		<path class="st0" d="M203.7,31c1.2-0.1,2.4,0.3,3.4,1c0.9,0.7,1.4,1.9,1.3,3c0.1,1.2-0.5,2.4-1.6,3.1c-0.4,0.3-0.9,0.5-1.5,0.6
			l4.1,5.6h-3.2l-3.6-5.3h-0.3v5.3h-2.6V31H203.7z M202.5,37.1h0.7c0.5,0,2.6-0.1,2.6-2s-2-2-2.5-2h-0.8V37.1z"/>
		<path class="st0" d="M215.9,31v8.4c0,0.7,0.2,1.4,0.6,2c1.1,1.2,2.9,1.2,4.1,0.1c0.1,0,0.1-0.1,0.1-0.1c0.5-0.6,0.7-1.3,0.6-2V31
			h2.6v8.1c0.1,1.3-0.3,2.5-1,3.5c-2.2,2.4-5.9,2.6-8.3,0.4c-0.1-0.1-0.3-0.2-0.4-0.4c-0.7-1-1.1-2.3-1-3.5V31H215.9z"/>
		<path class="st0" d="M233,31c1.3-0.1,2.5,0.2,3.5,1c0.9,0.8,1.4,2,1.4,3.2c0,1.1-0.4,2.2-1.1,3c-0.9,0.8-2.1,1.3-3.4,1.2h-1.7v4.9
			h-2.6V31H233z M231.7,37.2h1.1c0.6,0.1,1.2-0.1,1.7-0.4c0.5-0.4,0.7-1,0.7-1.6c0-0.6-0.3-1.2-0.7-1.5c-0.6-0.3-1.2-0.5-1.8-0.4
			h-0.9L231.7,37.2z"/>
		<path class="st0" d="M246.6,33.2v11.1H244V33.2h-3V31h8.6v2.2L246.6,33.2z"/>
		<path class="st0" d="M262.3,43.8c-1,0.5-2.1,0.8-3.3,0.8c-3.8,0.1-6.9-2.9-7-6.6c0-0.1,0-0.3,0-0.4c-0.1-2,0.7-3.8,2.1-5.2
			c1.3-1.2,3.1-1.8,4.9-1.8c1.1,0,2.3,0.3,3.3,0.8v3c-0.8-0.9-2-1.5-3.2-1.5c-2.5,0.1-4.5,2.3-4.3,4.9c0.1,2.4,2.1,4.3,4.4,4.3
			c1.2,0,2.3-0.5,3.1-1.5L262.3,43.8z"/>
		<path class="st0" d="M269.7,38.2l-4.6-7.2h3.1l2.9,4.6l2.9-4.6h3.1l-4.7,7.2v6.1h-2.6V38.2z"/>
		<path class="st0" d="M289.7,31v11h4.1v2.2h-6.7V31H289.7z"/>
		<path class="st0" d="M306,41.5h-5.4l-1.2,2.8h-2.8l5.7-13.3h2l5.6,13.3h-2.8L306,41.5z M305.2,39.4l-1.9-4.8l-1.9,4.8H305.2z"/>
		<path class="st0" d="M317.8,44.3h-2L311.2,31h2.8l3,9.1l3.2-9.2h1.4l3.1,9.1l3.2-9h2.8l-4.9,13.3h-2l-2.9-8.5L317.8,44.3z"/>
		<path class="st0" d="M341.3,33.2h-4.5v3h4.2v2.2h-4.2v5.9h-2.6V31h7.1L341.3,33.2z"/>
		<path class="st0" d="M348.1,31v13.3h-2.6V31H348.1z"/>
		<path class="st0" d="M357,31c1.2-0.1,2.4,0.3,3.4,1c0.9,0.8,1.3,1.9,1.3,3c0.1,1.2-0.5,2.4-1.5,3.1c-0.4,0.3-0.9,0.5-1.5,0.6
			l4.1,5.6h-3.2l-3.6-5.3h-0.3v5.3h-2.6V31H357z M355.7,37.1h0.7c0.5,0,2.6-0.1,2.6-2s-2-2-2.5-2h-0.8V37.1z"/>
		<path class="st0" d="M368.4,31h1.9l3.5,8.5l3.7-8.5h1.9l2.2,13.3H379l-1.2-8.2l-3.6,8.2h-0.9l-3.4-8.2l-1.4,8.2h-2.6L368.4,31z"/>
	</g>
	<g>
		<path class="st0" d="M381.3,3.7c0.1,0.7-0.1,1.5-0.6,2.1c-0.9,1-2.4,1-3.3,0.1c-0.5-0.5-0.8-1.2-0.7-1.9V3.2H373v-1h8.3L381.3,3.7
			z M377.5,3.2v0.8c0,1.1,0.5,1.7,1.5,1.7c1.3,0,1.4-1.2,1.4-1.8V3.2H377.5z"/>
		<path class="st0" d="M381.3,10h-7.4v2.3H373V9.1h8.3L381.3,10z"/>
		<path class="st0" d="M381.3,15.7h-7.4V18H373v-3.2h8.3L381.3,15.7z"/>
		<path class="st0" d="M379.5,26.4c0.3-0.3,0.6-0.7,0.8-1.1c0.2-0.4,0.3-0.9,0.3-1.4c0-1.8-1.5-3.3-3.4-3.3c0,0-0.1,0-0.1,0
			c-1.8,0-3.3,1.4-3.4,3.2c0,0,0,0.1,0,0.1c0,0.5,0.1,1.1,0.4,1.5c0.2,0.4,0.4,0.7,0.7,1h-1.1c-0.5-0.7-0.8-1.6-0.8-2.5
			c-0.1-2.4,1.7-4.4,4.1-4.5s4.4,1.7,4.5,4.1c0,0.1,0,0.3,0,0.4c0,0.9-0.3,1.7-0.8,2.4L379.5,26.4z"/>
	</g>
</g>
</svg>
