<svg xmlns="http://www.w3.org/2000/svg" viewBox="0 0 983.026 107.958"><defs><style>.cls-1{fill:#00aaeb;}.cls-2{fill:#0a1f41;}</style></defs><g id="Layer_2" data-name="Layer 2"><g id="midCta"><path class="cls-1" d="M16.226,24.762H39.675V1.406H56V63.968H39.675V38.644H16.226V63.968H0V1.406H16.226Z"/><path class="cls-1" d="M129.443,56.089c-6.378,6.1-15.383,9.287-24.669,9.287s-18.29-3.19-24.668-9.287a32.728,32.728,0,0,1,0-46.8C86.484,3.189,95.488,0,104.774,0s18.291,3.189,24.669,9.286a32.728,32.728,0,0,1,0,46.8ZM92.112,20.728a17.155,17.155,0,0,0-4.971,12.288,15.9,15.9,0,0,0,4.971,11.63,17.746,17.746,0,0,0,12.662,4.971,16.992,16.992,0,0,0,17.634-16.883,16.882,16.882,0,0,0-5.065-12.006,18.732,18.732,0,0,0-12.569-4.971A18.021,18.021,0,0,0,92.112,20.728Z"/><path class="cls-1" d="M183.567,28.514h32.266c0,12.38-2.533,21.2-10.037,28.138-6.565,6.1-14.068,7.879-22.042,7.879-11.255,0-18.946-4.127-24.011-9.286a31.53,31.53,0,0,1-9-22.6,32.6,32.6,0,0,1,9.38-23.449C165.277,4.033,173.343,0,184.412,0c5.815,0,12.1,1.313,16.882,4.22a30.661,30.661,0,0,1,11.162,12.85L196.98,23.449a15.305,15.305,0,0,0-4.5-6.284,13.113,13.113,0,0,0-8.723-3.1,15.112,15.112,0,0,0-10.692,4.314c-3.658,3.658-5.44,9.474-5.44,14.351a19.568,19.568,0,0,0,4.971,13.507,14.8,14.8,0,0,0,11.443,4.784,13.4,13.4,0,0,0,9-2.908,11.136,11.136,0,0,0,3.845-6.941H183.567Z"/><path class="cls-1" d="M246.32,1.406V50.181h19.51V63.968H230.094V1.406Z"/><path class="cls-1" d="M294.346,1.406v37.05c0,2.626.094,6.659,3.189,9.661a11.527,11.527,0,0,0,15.195.281c3.752-3.283,3.658-7.878,3.658-11.349V1.406h16.227V37.331c0,6.565-.281,13.412-7.035,20.259-5.252,5.346-11.818,7.786-20.635,7.786-9.848,0-16.883-3.377-20.729-7.5-5.44-5.91-6.1-13.882-6.1-20.541V1.406Z"/><path class="cls-1" d="M349.69,63.968V1.406h16.226l29.921,38.269V1.406h16.227V63.968H395.837L365.916,25.7V63.968Z"/><path class="cls-1" d="M429.139,63.968V1.406H450.43c6.284,0,16.79.845,24.856,8.629,7.316,7.035,8.723,16.04,8.723,22.793,0,8.254-2.063,15.57-8.16,21.667a33.977,33.977,0,0,1-24.011,9.473Zm16.226-13.787h3.284c3.939,0,9.473-.376,13.693-4.5,2.064-1.97,4.784-5.909,4.784-12.85,0-5.815-1.783-10.787-4.877-13.694C458.4,15.57,453.338,15.2,449.305,15.2h-3.94Z"/><path class="cls-2" d="M557.173,40.05a77.377,77.377,0,0,1-8.535,9.1l13.976,14.819H542.353l-5.439-5.722a35.114,35.114,0,0,1-21.011,7.13c-4.408,0-10.692-.658-15.382-5.253a16.908,16.908,0,0,1-5.065-12.382,16.512,16.512,0,0,1,4.689-12.005,28.054,28.054,0,0,1,10.224-6.1,40.011,40.011,0,0,1-3.658-4.971,13.936,13.936,0,0,1-2.157-7.691,16.859,16.859,0,0,1,4.783-11.444C514.027.75,520.218,0,524.064,0c7.6,0,12.1,2.814,14.538,5.159a16.668,16.668,0,0,1,4.971,11.724,13.645,13.645,0,0,1-4.314,10.036,23.261,23.261,0,0,1-7.316,4.877l7.878,8.254a76.054,76.054,0,0,0,8.16-8.91ZM518.154,37.8c-.656.376-5.909,3-5.909,7.316a5.644,5.644,0,0,0,1.877,4.221,7.954,7.954,0,0,0,5.346,1.782A15.678,15.678,0,0,0,528,48.4Zm3.471-17.352a32.423,32.423,0,0,0,3.283,3.752,17.024,17.024,0,0,0,3.751-2.814,6.989,6.989,0,0,0,1.971-4.6,5.593,5.593,0,0,0-1.689-4.314,5.589,5.589,0,0,0-3.752-1.408,5.106,5.106,0,0,0-3.564,1.313,4.88,4.88,0,0,0-1.688,3.846A7.634,7.634,0,0,0,521.625,20.447Z"/><path class="cls-2" d="M570.311,63.968l10.6-62.562h16.039L609.611,34.8,623.023,1.406H639.25l9.38,62.562H632.4l-4.6-36.017-15.1,36.017h-6.472L591.79,27.951l-5.347,36.017Z"/><path class="cls-2" d="M688.216,1.406c4.69,0,10.693.751,15.289,5.535a20.591,20.591,0,0,1,5.346,14.069c0,5.347-1.876,10.036-4.971,13.037a17.526,17.526,0,0,1-8.629,4.315l19.6,25.606H694.688l-15.57-24.011V63.968H662.892V1.406Zm-9.1,28.045h3.1c2.438,0,5.908-.656,7.878-2.532a7.792,7.792,0,0,0,2.064-5.252A7.374,7.374,0,0,0,690,16.414c-1.5-1.5-4.221-2.439-7.784-2.439h-3.1Z"/><path class="cls-2" d="M780.14,56.089c-6.378,6.1-15.382,9.287-24.669,9.287s-18.29-3.19-24.668-9.287a32.728,32.728,0,0,1,0-46.8C737.181,3.189,746.186,0,755.471,0s18.291,3.189,24.669,9.286a32.726,32.726,0,0,1,0,46.8ZM742.809,20.728a17.155,17.155,0,0,0-4.971,12.288,15.9,15.9,0,0,0,4.971,11.63,17.748,17.748,0,0,0,12.662,4.971,16.992,16.992,0,0,0,17.635-16.883,16.89,16.89,0,0,0-5.065-12.006,18.733,18.733,0,0,0-12.57-4.971A18.023,18.023,0,0,0,742.809,20.728Z"/><path class="cls-2" d="M826.2,50.181h26.264V63.968H798.905L828.544,15.2H803.97V1.406h51.68Z"/><path class="cls-2" d="M883.6,1.406V63.968H867.378V1.406Z"/><path class="cls-2" d="M916.9,27.2,936.79,1.406h20.071l-24.856,29.64,27.108,32.922H938.1L916.9,36.862V63.968H900.677V1.406H916.9Z"/><path class="cls-2" d="M7.5,79.8c1.527,0,4.5,0,6.729,1.734a7.158,7.158,0,0,1,2.56,5.7,5.884,5.884,0,0,1-3.1,5.409,6.475,6.475,0,0,1,3.591,1.733,7.03,7.03,0,0,1,1.982,5.161,7.36,7.36,0,0,1-2.353,5.574,10.113,10.113,0,0,1-6.977,2.229H.691V79.8ZM6.058,91.238H7.586c.825,0,4.169-.083,4.169-3.592,0-2.519-1.94-3.467-4.128-3.467H6.058Zm0,11.724H8.37a7.336,7.336,0,0,0,3.674-.742,3.548,3.548,0,0,0,1.693-3.179A3.3,3.3,0,0,0,11.714,95.9a8.749,8.749,0,0,0-3.675-.537H6.058Z"/><path class="cls-2" d="M44.657,101.559H33.551l-2.435,5.78H25.294L37.143,79.8h4.211l11.519,27.537H47.092Zm-1.569-4.376-3.922-9.908-3.922,9.908Z"/><path class="cls-2" d="M60.218,107.339V79.8h3.715L80.695,98.174V79.8h5.366v27.537H82.346L65.584,88.926v18.413Z"/><path class="cls-2" d="M101.83,91.445,111.945,79.8h6.77L107.073,92.518l12.262,14.821h-7.1L102.449,95l-.619.619v11.725H96.463V79.8h5.367Z"/><path class="cls-2" d="M134.813,79.8c3.8,0,5.738.991,7.018,2.065a7.822,7.822,0,0,1,2.725,6.192,7.521,7.521,0,0,1-3.22,6.482,7.652,7.652,0,0,1-3.014,1.2l8.587,11.6h-6.688l-7.348-11.064h-.661v11.064h-5.367V79.8Zm-2.6,12.674h1.528c1.032,0,5.284-.124,5.284-4.169,0-4.087-4.211-4.128-5.2-4.128h-1.61Z"/><path class="cls-2" d="M160.034,79.8V97.1a6,6,0,0,0,1.321,4.088,5.995,5.995,0,0,0,8.753,0,5.993,5.993,0,0,0,1.321-4.088V79.8H176.8V96.646A11.587,11.587,0,0,1,174.732,104a12.2,12.2,0,0,1-18,0,11.593,11.593,0,0,1-2.063-7.349V79.8Z"/><path class="cls-2" d="M195.206,79.8c3.1,0,5.243.33,7.266,2.106a9.361,9.361,0,0,1,.537,12.8c-1.528,1.529-3.8,2.436-6.977,2.436h-3.468v10.2H187.2V79.8Zm-2.642,12.716h2.188a5.492,5.492,0,0,0,3.509-.867,4.111,4.111,0,0,0,1.487-3.221,3.791,3.791,0,0,0-1.528-3.137,6.465,6.465,0,0,0-3.8-.867h-1.858Z"/><path class="cls-2" d="M223.36,84.426v22.913h-5.368V84.426H211.8V79.8h17.752v4.624Z"/><path class="cls-2" d="M255.848,106.348a14.256,14.256,0,0,1-6.812,1.61,13.574,13.574,0,0,1-10.073-3.839,13.725,13.725,0,0,1-4.418-10.528,14.394,14.394,0,0,1,4.418-10.775,14.091,14.091,0,0,1,10.114-3.633,13.834,13.834,0,0,1,6.771,1.693v6.275a8.857,8.857,0,0,0-6.647-3.1c-5.532,0-9.123,4.542-9.123,9.619a9.121,9.121,0,0,0,9.33,9.413,8.339,8.339,0,0,0,6.44-3.013Z"/><path class="cls-2" d="M271.162,94.747,261.708,79.8h6.358l5.9,9.578,5.9-9.578h6.358l-9.7,14.945v12.592h-5.367Z"/><path class="cls-2" d="M331.021,97.059a31.037,31.037,0,0,1-2.973,3.344l-.619.619L333,107.339h-6.647l-2.683-3.1a13.618,13.618,0,0,1-8.877,3.716c-5.655,0-8.628-3.922-8.628-7.885,0-4.088,3.179-6.234,4.418-6.977l2.146-1.28a8.688,8.688,0,0,1-2.766-5.78c0-3.427,2.477-6.853,7.6-6.853,4.788,0,7.39,3.179,7.39,6.564,0,1.982-.95,4.335-3.882,6.11l-1.155.7,4.541,5.2a31.78,31.78,0,0,0,3.426-3.8Zm-15.565-2.188c-2.106,1.114-3.922,2.643-3.922,4.747a3.772,3.772,0,0,0,4.046,3.633,7.765,7.765,0,0,0,5.078-2.394Zm1.9-5.161,1.238-.867a3.716,3.716,0,0,0,1.9-3.055A2.749,2.749,0,0,0,315,85.624a4.2,4.2,0,0,0,1.156,2.6Z"/><path class="cls-2" d="M367.882,86.077a5.378,5.378,0,0,0-4.5-2.353c-2.89,0-3.8,1.817-3.8,3.221a2.32,2.32,0,0,0,.867,1.857,9.41,9.41,0,0,0,3.3,1.569,16.014,16.014,0,0,1,5.573,2.766,7.488,7.488,0,0,1,2.353,5.78c0,5.366-3.88,9.041-9.578,9.041a11.329,11.329,0,0,1-9.494-5.2l3.508-3.344a6.458,6.458,0,0,0,5.78,3.674c2.435,0,4.253-1.486,4.253-3.8a3.2,3.2,0,0,0-1.074-2.477,12.342,12.342,0,0,0-4.253-2.023,13.224,13.224,0,0,1-4.581-2.395,6.4,6.4,0,0,1-2.189-5.118c0-4.046,2.725-8.092,8.835-8.092a10.591,10.591,0,0,1,7.8,3.22Z"/><path class="cls-2" d="M408.586,93.591c0,8.38-6.027,14.367-14.7,14.367s-14.7-5.987-14.7-14.367,6.027-14.408,14.7-14.408S408.586,85.21,408.586,93.591Zm-5.532,0c0-5.573-3.8-9.537-9.165-9.537s-9.164,3.964-9.164,9.537,3.8,9.5,9.164,9.5S403.054,99.165,403.054,93.591Z"/><path class="cls-2" d="M437.647,106.348a14.255,14.255,0,0,1-6.811,1.61,13.576,13.576,0,0,1-10.074-3.839,13.724,13.724,0,0,1-4.417-10.528,14.4,14.4,0,0,1,4.417-10.775,14.092,14.092,0,0,1,10.115-3.633,13.833,13.833,0,0,1,6.77,1.693v6.275a8.857,8.857,0,0,0-6.646-3.1c-5.533,0-9.125,4.542-9.125,9.619a9.121,9.121,0,0,0,9.331,9.413,8.341,8.341,0,0,0,6.44-3.013Z"/><path class="cls-2" d="M452.094,79.8v27.537h-5.367V79.8Z"/><path class="cls-2" d="M478.8,101.559H467.7l-2.436,5.78h-5.821L471.29,79.8H475.5l11.518,27.537H481.24Zm-1.569-4.376-3.922-9.908-3.922,9.908Z"/><path class="cls-2" d="M499.732,79.8v22.913h8.5v4.624H494.366V79.8Z"/><path class="cls-2" d="M543.366,86.077a5.378,5.378,0,0,0-4.5-2.353c-2.89,0-3.8,1.817-3.8,3.221a2.317,2.317,0,0,0,.867,1.857,9.4,9.4,0,0,0,3.3,1.569,16.023,16.023,0,0,1,5.573,2.766,7.491,7.491,0,0,1,2.353,5.78c0,5.366-3.881,9.041-9.578,9.041a11.336,11.336,0,0,1-9.5-5.2l3.51-3.344a6.456,6.456,0,0,0,5.78,3.674c2.436,0,4.252-1.486,4.252-3.8a3.2,3.2,0,0,0-1.073-2.477,12.351,12.351,0,0,0-4.253-2.023,13.258,13.258,0,0,1-4.583-2.395,6.407,6.407,0,0,1-2.187-5.118c0-4.046,2.725-8.092,8.835-8.092a10.589,10.589,0,0,1,7.8,3.22Z"/><path class="cls-2" d="M571.272,84.426h-9.908v6.152h9.5V95.2h-9.5v7.513h9.908v4.624H556V79.8h15.275Z"/><path class="cls-2" d="M600.581,106.348a14.255,14.255,0,0,1-6.811,1.61,13.578,13.578,0,0,1-10.074-3.839,13.724,13.724,0,0,1-4.417-10.528A14.4,14.4,0,0,1,583.7,82.816a14.094,14.094,0,0,1,10.115-3.633,13.833,13.833,0,0,1,6.77,1.693v6.275a8.856,8.856,0,0,0-6.646-3.1c-5.533,0-9.125,4.542-9.125,9.619a9.121,9.121,0,0,0,9.331,9.413,8.341,8.341,0,0,0,6.44-3.013Z"/><path class="cls-2" d="M615.028,79.8V97.1a5.993,5.993,0,0,0,1.321,4.088,5.995,5.995,0,0,0,8.753,0,5.993,5.993,0,0,0,1.321-4.088V79.8h5.367V96.646A11.593,11.593,0,0,1,629.726,104a12.2,12.2,0,0,1-18,0,11.593,11.593,0,0,1-2.064-7.349V79.8Z"/><path class="cls-2" d="M650.158,79.8c3.8,0,5.738.991,7.018,2.065a7.822,7.822,0,0,1,2.725,6.192,7.521,7.521,0,0,1-3.22,6.482,7.646,7.646,0,0,1-3.014,1.2l8.587,11.6h-6.688l-7.348-11.064h-.661v11.064H642.19V79.8Zm-2.6,12.674h1.528c1.032,0,5.284-.124,5.284-4.169,0-4.087-4.211-4.128-5.2-4.128h-1.61Z"/><path class="cls-2" d="M675.381,79.8v27.537h-5.367V79.8Z"/><path class="cls-2" d="M694.451,84.426v22.913h-5.366V84.426h-6.193V79.8h17.752v4.624Z"/><path class="cls-2" d="M715.669,94.747,706.216,79.8h6.357l5.9,9.578,5.9-9.578h6.357l-9.7,14.945v12.592h-5.367Z"/><path class="cls-2" d="M758.848,79.8c3.84,0,7.184.413,10.239,2.683a13.633,13.633,0,0,1,5.284,11.106A13.133,13.133,0,0,1,768.84,104.7c-3.22,2.27-6.235,2.642-10.074,2.642h-7.1V79.8Zm-1.816,22.913h1.652a11.519,11.519,0,0,0,6.728-1.817,8.954,8.954,0,0,0,3.428-7.307,9.178,9.178,0,0,0-3.386-7.349,11.206,11.206,0,0,0-6.77-1.816h-1.652Z"/><path class="cls-2" d="M788.819,79.8v27.537h-5.366V79.8Z"/><path class="cls-2" d="M812.762,86.077a5.378,5.378,0,0,0-4.5-2.353c-2.889,0-3.8,1.817-3.8,3.221a2.319,2.319,0,0,0,.866,1.857,9.41,9.41,0,0,0,3.3,1.569,16.014,16.014,0,0,1,5.573,2.766,7.488,7.488,0,0,1,2.354,5.78c0,5.366-3.882,9.041-9.578,9.041a11.334,11.334,0,0,1-9.5-5.2L801,99.412a6.456,6.456,0,0,0,5.78,3.674c2.436,0,4.252-1.486,4.252-3.8a3.2,3.2,0,0,0-1.073-2.477,12.363,12.363,0,0,0-4.252-2.023,13.249,13.249,0,0,1-4.583-2.395,6.4,6.4,0,0,1-2.188-5.118c0-4.046,2.724-8.092,8.835-8.092a10.591,10.591,0,0,1,7.8,3.22Z"/><path class="cls-2" d="M841.288,101.559H830.182l-2.436,5.78h-5.821L833.775,79.8h4.21L849.5,107.339h-5.78Zm-1.568-4.376L835.8,87.275l-3.921,9.908Z"/><path class="cls-2" d="M863.662,79.8c1.528,0,4.5,0,6.728,1.734a7.158,7.158,0,0,1,2.56,5.7,5.882,5.882,0,0,1-3.1,5.409,6.475,6.475,0,0,1,3.592,1.733,7.025,7.025,0,0,1,1.982,5.161,7.358,7.358,0,0,1-2.354,5.574,10.109,10.109,0,0,1-6.976,2.229h-9.247V79.8Zm-1.445,11.436h1.528c.824,0,4.169-.083,4.169-3.592,0-2.519-1.94-3.467-4.129-3.467h-1.568Zm0,11.724h2.312a7.33,7.33,0,0,0,3.673-.742,3.551,3.551,0,0,0,1.694-3.179,3.3,3.3,0,0,0-2.024-3.138,8.742,8.742,0,0,0-3.673-.537h-1.982Z"/><path class="cls-2" d="M889.875,79.8v27.537h-5.368V79.8Z"/><path class="cls-2" d="M905.644,79.8v22.913h8.5v4.624H900.276V79.8Z"/><path class="cls-2" d="M927.357,79.8v27.537H921.99V79.8Z"/><path class="cls-2" d="M946.429,84.426v22.913h-5.367V84.426h-6.193V79.8H952.62v4.624Z"/><path class="cls-2" d="M967.647,94.747,958.193,79.8h6.357l5.9,9.578,5.9-9.578h6.357l-9.7,14.945v12.592h-5.366Z"/><path class="cls-2" d="M982.673,5.252c0,2.15-.256,3.947-1.508,5.392a5.965,5.965,0,0,1-4.59,1.958c-3.017,0-6-1.894-6-6.772V3.743h-9.308V1.369h21.408ZM972.82,3.743V5.7c0,2.825,1.411,4.525,3.883,4.525,3.4,0,3.723-3.177,3.723-4.718V3.743Z"/><path class="cls-2" d="M982.673,21.592h-19.16V27.5h-2.248v-8.28h21.408Z"/><path class="cls-2" d="M982.673,36.294h-19.16V42.2h-2.248v-8.28h21.408Z"/><path class="cls-2" d="M977.955,63.963a10.566,10.566,0,0,0,1.991-2.793,9.14,9.14,0,0,0,.833-3.691,8.829,8.829,0,0,0-17.653.032,8.887,8.887,0,0,0,1,3.98,9.74,9.74,0,0,0,1.8,2.472h-2.953a11.145,11.145,0,0,1-2.087-6.452,11.073,11.073,0,1,1,22.146.129,10.1,10.1,0,0,1-2.118,6.323Z"/></g></g></svg>